<?xml version="1.0" encoding="UTF-8"?><svg id="_레이어_2" xmlns="http://www.w3.org/2000/svg" viewBox="0 0 300.32 58"><defs><style>.cls-1{fill:#e20011;}.cls-2{fill:#fff;}</style></defs><g id="_레이어_1-2"><path class="cls-1" d="M58,29.18c.02-3.12-.48-6.12-1.38-8.94v.02c-.07.32,0,.31-.17.57-.17.28-.23,1.06-.24,1.21-.02.29-.04.48-.04.61,0,.25.03.36.01.54-.03.23,0,.47-.03.69-.03.44-.03.77-.04,1.21-.01.45.09.65.06,1.12-.04.51-.07.49-.11.67-.13.62-.05,1.17.03,1.94.04.28.12.5.11.78,0,.26-.06.53-.06.79,0,.41.03.81-.02,1.22-.04.38,0,.74,0,1.13l-.07.21c-.04.14-.01.28.03.42.03.15,0,.29.05.45.08.27-.2.38-.3.63l-.24.38c-.15.15-.29-.03-.42.06-.16.11-.11.4-.09.57.06.46.11.84-.03,1.3l-.08.26.07.13.05.15-.06.26c-.08.22-.22.49-.35.71-.12.16-.22.21-.37.36-.18.2-.34.2-.56.26-.21.07-.35.24-.53.36-.19.12-.31.17-.47.33-.13.12-.35.26-.53.32-.21.08-.28.09-.5.14-.43.11-.84.3-1.27.35-.34.03-.59-.16-.96-.07-.24.04-.36-.1-.61-.16-.23-.05-.38-.17-.58-.25-.22-.1-.46-.27-.7-.39-.54-.3-.95-.82-1.13-1.03-.14-.16-.24-.26-.4-.34h0c.05.21.21.27.37.38.13.1.1.23.12.36l.05.33c.03.27-.3.36-.34.59-.02.19.24.34.22.58-.02.2-.11.35-.16.52-.06.2-.04.47-.05.67,0,.26-.08.54-.03.8.06.29.12.44.06.76-.06.31,0,.53.04.83.07.42.04.91.04,1.33,0,.53.03,1.05.03,1.57,0,.22.06.51,0,.71-.04.17-.12.14-.18.28-.08.21.03.5.05.72.06.52,0,1.05,0,1.57,0,.58,0,1.14.03,1.71,0,.12.01.26.03.39,2.74-2.06,5.12-4.58,7-7.47-.08-.09-.15-.19-.21-.32l.51-.86-1.11.64s.11-.56-.32-1.27l.52-1.32s1.03,1.26,1.79,1.15c2.18-4.05,3.44-8.67,3.47-13.59M41.05,25.36l-.05-.11.07-.33c.06-.07-.23-.2-.36-.26l-.21.26c-.07.07-.34.24-.19.31l.28.17s.19.09.34.14v.24s-.42.24-.42.24l-.07.1v.14s.12.18.12.18l.11.17.02.06.14.18c.09.12.17.23.29.3.17.09.31.18.47.27l.04.02.08.06.26.18.16.14c.13.14.1.23.3.29.33.1.65.16,1,.16l.31-.04.25-.33c.15-.09.39-.05.55-.11.16-.06.37-.11.49-.22.25-.2.46-.58.64-.86.23-.35.2-.87.11-1.3-.1-.45-.06-.9-.5-1.1l-.22-.15-.11-.17c-.15-.09-.54-.04-.73-.04-.47-.01-1.26-.24-1.69-.09-.17.06-.23.19-.37.3-.18.13-.15.27-.31.41-.2.19-.2.33-.34.56-.11.2-.24.2-.47.21M47.21,35.59l.12.05c0,.14,0,.32,0,.39-.02.15.03.17.08.3.08.21.09.21-.1.37.04.04.04.37.11.24.03-.13.05-.11.08-.08.3.2.76.71.89.65.12-.06.3.17.47.24.05.03,0,.15.11.28.1.12.28.24.45.27.16.05.3.24.43.24.03-.01.58-.02.82-.21.25-.19.41-.41.7-.52.23-.09.81-.12,1-.27l.25-.25c.21-.19.28-.54.37-.8.06-.22.12-.44.14-.68l.02-.31c0-.14-.01-.28-.02-.42,0-.35-.54-.69-.6-1.07-.04-.27-.09-.4-.38-.43-.1,0-.25.44-.53.43-.17-.02-.13,0-.33-.05-.4-.06-.89-.38-1.28-.35-.14,0-.22-.06-.35-.08l-.15.03-.27.17c-.2.07-.4.13-.61.13-.39,0-.36.22-.55.52-.1.18-.3.4-.38.6l-.14.42-.35-.02c-.11-.05-.44-.04-.57-.05v.14s0,.26.2.22l.37-.11ZM12.98,42.78c.06.15.22.23.19.4l-.37.12-.21.23-.27.06c-.23.05-.46.11-.71.09-.24-.03-.32-.1-.5.06l-.13.18-.24.08c-.13.08-.25.3-.32.42-.1.17-.19.36-.22.55-.04.21-.08.26-.06.46,0,.15.05.22.11.38l.27.31c.17.2.07.5.3.65.52.33.89.58,1.5.74.28.08.5-.02.76-.05.15,0,.3-.03.42-.05l.22-.08c.24-.14.43-.31.61-.5.16-.16.36-.26.5-.46.09-.11.18-.29.21-.44.02-.13.05-.24.09-.31.08-.15.21-.09.19-.29-.02-.16.04-.15-.02-.25-.22-.41-.13-.93-.4-1.32l-.39-.18c-.03-.15-.17-.1-.31-.12-.16,0-.22-.06-.33-.09l-.42-.1-.09-.15-.12-.24-.26-.1ZM56.03,18.73l.06.07c-2.08-5.52-5.78-10.24-10.54-13.57,0,.4.01.8.04,1.17l.06.36c-.01.21-.17.26-.25.48.24.13.3.17.29.45-.02.25-.05.4-.02.63.03.21.03.41.03.6-.1.05-.18.1-.43.17-.26.04-.17-.04-.34-.14-.13.02-.54.21-.53.17l.19.49c.08-.02.7-.09.84-.1l.23-.02.04.2c.15.31.73.31,1,.18.15-.07.24-.21.38-.27l.36-.03h.31s.09.04.09.04l.2.09c.16.07.33.13.51.15l.24-.03c.2-.07.14-.26.45-.14l.33.22c.18.14.44.32.6.48.19.2.08.37.14.64-.15.06-.28.23-.4.33-.21.17-.43.32-.66.43-.2.09-.36.04-.57.08-.26.04-.29.09-.58,0-.37-.14-.82-.1-1.23-.1-.22,0-.44-.01-.65-.05-.16-.04-.26-.14-.4-.2l-.11-.04c-.05-.03-.12,0-.25.06v.11s-.01.3-.01.3c0,.25,0,.48-.05.72l-.2.49c.07.16.11.18.17.3.04.29-.1.44.11.53-.01.18-.01.35,0,.52,0,.26,0,.46.03.72.04.33-.04.6-.1.89-.06.24-.04.4-.08.66-.05.28-.33.36-.46.61-.08.15-.14.4-.21.58.16-.07.32-.14.51-.11.19.02.37.06.53.11.28.06.61,0,.88.12.26.12.5.35.75.48.24.12.42.29.76.58.18.15.58.29.65.52.04.13-.03.17-.05.27-.02.11-.05.34-.1.48-.11.26-.38.15-.66.2-.36.06-.6.36-1.03.32-.68-.05-1.35-.33-2.03-.37-.62-.03-.63-.12-1.21.05-.35.08-.65,0-1.02.1-.18.05-.13-.09-.29-.16l-.03-.02c.15-.13.19-.18.38-.22l.22-.05-.08-.2-.37-.19c-.16.04-.24.09-.4.14l-.12.34-.13.11-.27.02c-.16.01-.28.1-.42.13-.27.05-.7-.05-.98-.07-.73-.03-1.11.07-1.84.1-.69.03-1.54.18-2.24.25-.43.04-.79.14-1.29.38-.31-.07-.65-.16-.92-.21-.22-.04-.41-.08-.59-.2-.11-.06-.32-.22-.39-.35-.11-.18-.07-.39-.02-.65l.48-.15.41-.34v-.33l-.67.17c-.08-.11-.11-.09-.08-.21l.03-.22c-.01-.24-.11-.42-.09-.69.03-.3.03-.68.06-.84.03-.17,0-.34.04-.52.1-.38.17-.7.26-1.11.06-.3-.27-.8-.28-1.07,0-.14-.15-.18-.11-.45.05-.39.68-.3.88-.3.22.01.37,0,.46.14.16.24.1.19.41.26.13.03.16.05.28.1.13.07.33.14.41.25l.09.29.24.34c.13.2.13.28.11.54-.02.24.01.45.04.67.01.17,0,.46-.09.6l-.22.2v.37c.02.37.03.99-.06,1.39l.29.06c.51.09,1.02.01,1.53.06.12,0,.05,0,.3-.08l.17-.08.4-.02c.17.01.34-.01.5-.02h.33l.14.09c.15,0,.2,0,.4-.01.46-.04.66-.19,1.11-.23.38-.04.71-.05,1.06-.17.38-.14.79.02,1.18,0,.45-.02,0-.08.43-.15.11-.01.24-.06.37-.11l-.13-.17c-.06-.2-.14-.27-.16-.49-.03-.24-.09-.48-.11-.72-.01-.16-.05-.38-.09-.55-.03-.21-.11-.27-.18-.46l.18-.86c.12-.34.08-.59.02-.92-.06-.33-.03-.33-.02-.68,0-.2-.03-.65,0-.84.02-.18.02-.29.1-.46.08-.16.08-.13.1-.31,0-.15-.08-.3-.07-.45,0-.86.05-1.76-.03-2.63-.02-.21-.04-.44,0-.64l-.14.08-.13-.12c.13-.09.18-.28.25-.41.1-.16.16-.18.15-.39-.03-.38-.05-.76-.07-1.14,0-.26-.09-.58-.04-.84l.28-.13-.38-.22c-.1-.37-.13-.67-.42-.98-.21-.23-.54-.41-.68-.69l-.05-.12c-2.56-1.3-5.33-2.25-8.25-2.74v.2c.06.46.24.79.21,1.29-.01.27-.12.58-.13.9,0,.38,0,.76,0,1.15-.36.15-.31-.38-.43-.72-.19-.53-.37-.5-.26-1.08.07-.35.19-.54.23-.96l.02-.2c0-.21,0-.45.04-.63C32.08.13,30.64.01,29.17,0c-1.5,0-2.97.12-4.41.33.23.06.47.15.58.24l.16.22c.11.15.17.24.32.33l.36.15c.15.16.11.79.12.99.01.29.11.59.09.87,0,.14-.05.26-.14.39l-.1.22-.12.18c-.04.12,0,.3-.02.43-.05.38-.09.89-.13,1.24-.03.42.07.86.01,1.25-.03.18-.07.27-.09.45-.03.24-.06.3-.05.53.01.24.07.62-.01.93l.08.03s.06.54.07.68c.05.47-.35.75-.66,1.03-.19.17-.17.31-.44.28-.19-.02-.38-.07-.56-.09-.35-.03-.75,0-.98-.26-.4-.44-1.21-.24-1.69-.24-.26,0-.36-.11-.59-.08-.28.05-.17.13-.37.11l.14-.05-.21.04h.07c-.2.06-.53.09-.51.09-.16.01-.25-.01-.42,0-.13,0-.17,0-.26.02l-.29.05c-.32.03-.38.19-.63.36-.13.09-.35.18-.5.15l-.19-.07c-.15-.04-.3,0-.44.03-.23.04-.39.08-.6-.03-.23-.12-.41-.25-.66-.35-.19-.06-.39-.08-.45-.27l-.02-.22-.06-.28.1-.19.09-.17c.1-.26.04-.32.03-.57,0-.14-.01-.19-.01-.42,0-.27.02-.36,0-.64l-.04-.18c-.04-.15-.02-.31-.02-.47,0-.24.18-.48.18-.71,0-.16-.21-.24-.26-.37-.07-.16-.02-.34-.05-.52-.02-.17-.05-.33-.06-.51,0-.38-.02-.37-.03-.75,0-.13.04-.21.04-.34-.01-.13,0-.17-.03-.29,0-.08.13.04.15-.15l-.02-.1c-1.55.81-3.02,1.74-4.4,2.81l-.68.8.66.56-.18.6c-.41-.32-1.13,1.25-1.13,1.25l-.7-.16-.27-.57c-.04-.2,0-.41.07-.58C4.81,12.01,1.81,17.26.6,23.16c.59.02,1.15-.08,1.74-.02.57.06,1.11-.04,1.68-.04.51,0,.91-.08,1.37-.15.2-.03,2.56.19,2.78-.1.03-.09.25-.11.39-.16.14-.04.27-.03.42-.03.29-.01.62,0,.93-.03.31-.03.6-.11.9-.13.47-.03.62-.03,1.07-.13l.25.17c.21-.26.33-.44.38-.82.05-.29.16-.58.19-.86.03-.3.04-.53.03-.82-.02-.29,0-.11-.04-.48-.05-.21-.02-.33-.02-.46,0-.2-.02-.58-.03-.76,0-.06-.26-.12-.48-.2-.16-.06-.33-.08-.57-.09-.79-.04-1.42.34-2.23.21-.21-.04-.49-.13-.74-.12-.14,0-.28.03-.43.05l-.39.15c-.24.02-.27-.15-.44-.3-.19-.15-.31-.15-.57-.14l-.38.51c-.2.13-.48.14-.73.2-.23.04-.35-.09-.59-.11-.22-.03-.44.03-.62-.06-.16-.08-.27-.24-.4-.33-.14-.1-.31-.13-.45-.23-.17-.13-.6-.54-.5-.8.05-.14.47-.35.6-.35.18,0,.42.13.61.15.44.03,1.05.09,1.45-.02.59-.17,1.18-.17,1.77-.24.41-.05.83-.12,1.24-.15.25-.03.48-.07.72-.12.44-.1.89-.12,1.33-.21.41-.07.81-.22,1.22-.22.15,0,.28.03.4-.05.12-.08.1-.24.26-.3.18-.06.58-.08.73-.05.24.04.51.16.76.23.25.07.47.13.61.33.15.23.31.45.43.7.09.17.25.28.33.45.08.17.02.51-.05.66-.06.13-.15.16-.18.3v.36c0,.38.04.77-.03,1.11-.13.61-.27,1.31-.51,1.88-.07.16-.12.3-.15.47-.05.19-.27.21-.41.36.05.11.83-.06,1.01-.06.4,0,.92,0,1.15-.05.45-.07.84-.23,1.3-.29.23-.02.46-.06.7-.09.5-.03.73-.1,1.01-.1.18,0,.4.1.6.18-.1-.15-.19-.28-.2-.31-.05-.12-.08-.19-.07-.32,0-.27-.08-.52-.08-.84,0-.29.14-.45.2-.72.06-.3,0-.61.05-.92.06-.28.14-.52.21-.8.05-.21.04-.41.12-.61.15-.45.09-.88,0-1.32l-.21-.95c-.02-.13.02.01-.07-.12l-.17-.15c-.07-.13-.09-.16-.14-.27l-.18-.26.17-.4c-.1-.1-.24-.03-.48-.03-.29.04-.52.09-.84.09-.25,0-.68.04-.92.04-.85.04-1.52.08-2.38.13-.59.03-1.18.13-1.76.27-.19.05-.41.14-.62.1-.24-.04-.28-.04-.52,0-.56.08-1.49.06-1.99.3-.19.08-.28.12-.54.08-.26-.05-.59-.13-.84-.16-.19-.02-.46.05-.63.01-.13-.04-.13-.1-.24-.2-.14-.15-.3-.23-.42-.38-.13-.14-.18-.33-.31-.46-.13-.12-.28-.15-.34-.34l-.1-.46.02-.04c.08-.14.31-.16.49-.19.18-.02.29.11.46.16.19.06.38-.07.56-.02.16.04.27.03.43.05.31.03.63.04.95.05.32,0,.91-.06,1.22-.1.36-.03,1.07.04,1.43.02q.51-.01,1-.02c.43,0,.86-.11,1.29-.11,1.3,0,2.55-.02,3.75-.42.21-.08.43-.03.64-.02l.32.03.27-.12h.31c.28,0,.47,0,.74,0,.22,0,.37-.09.55-.09.2,0,.41.19.6.15l.23-.18c.12-.05.24-.06.37-.12.19-.06.3-.1.53-.1.43-.03.87,0,1.31,0,.39,0,.76-.11,1.16-.07.33.04.51-.14.83-.18.27-.04.52-.25.78-.22.29.04.68.12.97.14.34.03.46.18.68.31.23.13.16.49.44.48.14-.01.21-.17.36-.14l.09.03c.21-.36.32-.77.59-1.1.2-.25.5-.33.72-.52.25-.21.53-.58.69-.86.22-.38.36-.64.67-.94.13-.12.25-.28.35-.42.17-.22.27-.48.42-.71.08-.12.22-.24.21-.41.06-.13.1-.23.16-.35l.25-.31c.66-.78.83-1.37,1.23-2.33.13-.34.08-.53.02-.88-.02-.2,0-.56.07-.77.06-.14.3-.2.41-.27l.7.59c.17.25.46.36.74.54.03.16.17.32.18.5.01.21-.11.26-.15.44-.03.18.15.33.25.46.13.18.15.29.23.51.15.43.52.84.78,1.23.25.38.5.78.85,1.09l.24.2.05.22c.09.16.29.24.41.37l.22.28c.12.15.09.12.19.24.32.38.62.56.92.83.15.15.46.38.58.71.07.21.36.23.44.26.26.14.4.3.42.75-.29.37-.85,1-1.22,1.21-.23.13-.45.13-.75.14-.23,0-.24-.25-.47-.25-.3.01-.4-.02-.65-.1-.13-.03-.2-.03-.3-.11l-.26-.33c-.13-.15-.24-.26-.38-.39-.18-.18-.25-.21-.22-.46.02-.15.05-.32,0-.47-.05-.16-.15-.31-.2-.5-.06-.21-.09-.47-.23-.64-.14-.18-.28-.14-.46-.26-.28-.19-.39-.64-.49-.95-.17-.46-.21-.95-.48-1.37-.12-.18-.22-.37-.45-.46-.22-.09-.29-.02-.47.2-.14.17-.25.43-.37.63-.15.26-.27.53-.44.77-.33.51-.53,1.21-1,1.63l-.27.32-.2.26c-.19.42-.31.9-.59,1.25-.23.3-.32.37-.44.58-.11.19-.26.54-.47.67l-.13.05.2.22.29.3.09.15-.08.31c-.29.13-.54.13-.78.39-.13.14-.24.23-.44.25-.15.01-.28-.03-.43-.04-.36-.04-.69.04-1.04.04-.24-.01-.43-.15-.67-.24-.54-.2-1.11-.23-1.68-.27-.58-.04-1.16-.14-1.74-.05l.09.14c.15.16.32.26.53.31,0,.13-.02.28.05.39-.18-.02-.29.05-.44.05-.21,0-.27-.12-.44-.17-.14-.05-.31.02-.45-.03-.24-.07-.2-.32-.42-.39.21-.13.54-.03.75-.15l-.02-.13-.15-.03c-.11-.03-.24-.08-.37-.12-.31-.07-.67.05-1,.01-.26-.04-1.32-.19-1.1.03.18.11.4.39.34.66-.08.39-.13.18-.07.6.04.28-.04.42-.14.63l-.53-.1-.08.16-.3.13.05.35.25.23.24-.19.11-.07.15.02v.32c0,.25-.02.49.07.72l.13.31c.08.33,0,.67,0,1.01,0,.16.04.27,0,.41-.02.14-.11.22-.11.38,0,.46.3,1.06-.05,1.48-.17.19-.26.4-.42.63-.13.16-.06.13-.2.27-.15.17-.38.4-.55.62.27.14.53.25.85.3.36.05.45.01.7.3.14.17.3.27.38.48v.29s-.2.28-.2.28c-.28.24-.24.49-.59.51-.28.02-.54.04-.78.15-.32.14-.4.14-.74.35-.11.08-.34.04-.47.03-.26,0-.47-.09-.7-.26-.27-.18-.51-.22-.78-.37-.22-.13-.42-.21-.69-.3-.49-.18-1.13-.1-1.65-.14-.63-.06-1.25-.18-1.87-.14l-.23.02c-.14.05-.23.11-.36.16-.17.07-.29.08-.48.07-.19,0-.37.04-.53.05-.16,0-.14-.18-.47-.18l-.71.03c-.04.16.4.27.43.3l.02.3c-.02.17-.01.28,0,.45,0,.12.02.23.04.46.01.28-.07.48-.02.72.04.21.07.41.05.65-.01.21,0,.6-.09.8-.09.22-.12.34-.33.5l-.12.09h.11c.36-.05.58-.07.92-.14.14-.03.32-.05.46-.07.14,0,.32-.23.73-.21.26.04.43.15.73.14.25-.02.32.02.57.12.74.3.5,0,.83.36.4.42.76.84.63,1.25-.07.21-.4.7-.4.92,0,.25-.04.29-.07.58-.04.28-.13.54-.05.89.05.21.07.39.05.6-.04.49.03.61,0,.89-.04.38-.05.59-.11.88-.06.34-.13.62-.09.87.02.18.15.57.02.73l-.33.21-.36.25c-.21.17-.36.38-.57.53-.2.14-.45.2-.67.35-.27.18-.19.22-.49.06-.15-.51-.39-.9-.29-1.45.03-.25.02-.28.14-.47.16-.26.12-.8.19-1.13l.02-.32h.17c.14.03.23-.03.35.07l.23.23.09-.1-.18-.3-.12-.37c-.07-.08-.34-.07-.53-.08-.02-.49.18-.65.2-1.24,0-.17.01-.24.01-.41-.01-.47-.17-.98-.14-1.44l-.24-.05c-.25-.37-.56-.63-1-.83-.15.39-.69.3-1.07.4-.24.06-.47,0-.74-.03-.25-.03-.51,0-.77,0-.18,0-.42.01-.59.05-.19.04-.34.17-.53.21-.15.05-.35,0-.5-.03-.99-.1-1.91.23-2.88.24-.39,0-.78,0-1.17.04-.14,0-.36.05-.49.11l-.25.14h-.26l-.23-.02-.32-.14c-.14-.07-.32-.12-.44-.22l-.41-.16-.05-.02-.23-.35-.12-.1.02-.3.04-.33c.14-.02.11,0,.23-.05l.31-.15c.26-.05.52.07.78.03.46-.07.97-.03,1.46-.05.49-.02.97.02,1.45.05.32.04.63.08.98.01.16-.02.25-.19.41-.21.18-.02.42-.02.61-.03.31,0,.57-.04.87-.08.33-.04.64-.03.98-.03.14,0,.23-.01.33-.03-.08-.13,0-.23-.04-.39-.06-.15-.03-.24-.13-.38-.11-.18-.27-.25-.26-.5.26-1.14.23-1.08.26-1.42.03-.27-.04-.57-.02-.83,0-.18,0-.4-.04-.58-.06-.22-.23-.3-.35-.34l-.31.04c-.31.04-.58.03-.88.03-.33,0-.76.21-1.09.15-.06-.17-.47-.23-.63-.24-.25-.01-.27.14-.46.28-.11.09-.18.07-.34.13-.13.05-.35-.03-.49-.01-.25.03-.47.08-.72.13-.83.15-1.71.16-2.53.12l-.27-.04-.15-.15c-.14-.01-.29.19-.43.22-.25.06-.5.11-.76.14C.13,26.3,0,27.55,0,28.83c-.02,3.07.44,6.03,1.31,8.81l.76-.48,1.53,1s-.36.3-.19,1.22l.12,1.11h-.78s-.34-.61-.79-1.04c1.8,4.65,4.76,8.72,8.53,11.85l.23-.02c.14,0,.33.02.47,0l.33-.14c.27-.05.86.04,1-.25l-.04-.25v-.43c-.2-.86-.42-.82-.37-1.02.07-.28.19-.42.29-.49-.14-.03-.33-.03-.47-.07-.25-.05-.48,0-.71-.06-.2-.06-.41-.19-.59-.22h-.34c-.15.03-.11.1-.3.03l-.28-.22c-.12-.08-.23-.15-.3-.29-.06-.12-.09-.15-.2-.33-.09-.12-.13-.19-.22-.32-.07-.12-.16-.24-.18-.37.02.15-.37-.97-.23-.77-.2-.29-.27-.36-.18-.71.11-.46.12-.79.37-1.22.23-.37.43-.83.86-1.01l.44-.12.03-.28.23-.13c.23-.08.41-.25.63-.34.44-.21.92-.23,1.39-.35.46-.13.75-.25,1.24-.24.32,0,.36.2.59.34.2.14.44.1.67.15.32.09.64.21.96.32.18.05.27.16.43.24.17.08.23.17.39.29.18.14.35.26.43.42.12.25.23.49.33.76v.37c.01.17.01.26,0,.55.04.27.07.33.05.56-.01.24-.13.19-.27.34-.2.21-.23.54-.38.8-.14.25-.39.74-.67.88-.16.08-.3.14-.46.24-.18.09-.35.2-.53.28-.21.11-.43.19-.61.34l-.21.13-.09.06-.3.14v.19s.27.27.27.27c.24.52-.01.97.13,1.14.14.17.05.66.14.66.15-.05-.1-.18.08-.26.26-.1,1.14-.14,1.4-.21.68-.2,1.31-.33,1.98-.45.21-.04.42-.12.65-.07.25.04.47.21.72.25.16.02.3,0,.44-.01l-.02-.07c-.23-.43-.44-.53-.54-.87-.1-.31.04-.58.11-.89.22-.09.43-.21.64-.31.02-.28.03-.62.03-.9h0c.21,0,.35.03.57.03-.05.26-.24.53-.28.8-.06.35-.03.74-.05,1.1-.02.3-.15.62-.11.9l.03.16c.19-.02.3-.02.48.12.12.09.14.13.27.25.16.15.29.31.46.47.21.2.12.07.34.05.14-.01.17,0,.3.05-.15-.4-.37-.34-.8-.52.02-.19-.12-.36-.12-.55s.06-.19.13-.34c.18-.42.15-1.03.08-1.47-.07-.56-.07-1.13.09-1.68.07-.26.12-.36.06-.64-.05-.23-.1-.45-.05-.67.09-.4.02-.82.03-1.23,0-.64,0-1.29.01-1.93,0-.46.04-.93.08-1.39.02-.26.02-.37-.08-.65-.14-.4-.03-.4.28-.64-.34-.21-.21-.47-.35-.79-.11-.26-.17-.54-.17-.82,0-.33-.11-.62-.11-.9,0-.15.02-.11-.06-.25-.04-.12-.5-.83-1-1.07-.13-.05-.09-.11-.1-.22v-.09h0s-.27.28-.27.28c-.19.12-.44.53-.57.7l-.3.36c-.17.13-.38.24-.55.35-.44.27-.75.6-1.27.71-.17.03-.35-.13-.5-.15-.17-.04-.34.15-.45.01l-.14-.44s.15-.19.27-.34c.05-.09.34-.41.49-.58.1-.18.22-.44.35-.61.2-.29.4-.48.52-.63.27-.37.52-.51.82-.81.15-.16.35-.26.42-.46.1-.27.17-.33.35-.55.6-.74,1.34-1.58,1.45-1.82.1-.19.24-.28.34-.37l.23-.3c.07-.13.17-.25.25-.37.14-.23.28-.44.47-.62.17-.17.32-.36.43-.57l.12-.31.03-.34c.04-.16.07-.34.1-.55.03-.14.04-.2-.02-.49-.03-.15-.03-.15-.11-.34-.04-.11.17-.14,0-.21-.16-.07-.23.12-.44.11-.2-.01-.4-.02-.6-.03-.16,0-.58-.12-.59-.12-.18,0-.53,0-.92.01-.33.01-.61-.04-.91.17l-.22-.11c-.11-.16-.26-.48-.41-.62l-.16-.15-.14-.07-.02-.07-.1-.63.14-.25c.17-.09.56.17.73.19.26.04.61.08.86.07.13-.01.28-.06.38-.06l.15.06.16.07c.18.01.25-.15.37-.22.13-.08.32-.04.49-.06.32-.08.64-.06.98-.07.16,0,.33.08.5.08.19,0,.15-.11.3-.15.18-.07.53,0,.74,0,.31.01.63.04.94-.04.32-.08.62-.28.94-.39.22-.07.39-.26.62-.24.25.02.46-.09.68-.13.3-.06.44.13.66.2.1.06.83.29.51.19.13.05.17.18.31.19.23.03.13-.02.37-.01l.41.15.05.27.03.21c0,.13-.02.09-.05.2-.08.16-.18.32-.21.5-.04.18-.22.39-.37.53l-.19.24c-.11.1-.36.05-.5.03-.35-.05-.84,0-1.19.02l-.31.06-.23.07c-.14-.04-.3-.03-.46-.05-.17-.04-.31-.09-.49-.1l-.41-.06c.01-.25-.35-.14-.48-.09-.19.07-.38.03-.58.08l-.09-.04.24.15c.18.12.22.36.34.52.12.18.32.3.35.53.02.16-.19.59-.18.69l.17.19c.13.12.12.18.19.36.08.2.08.21.14.38.05.15.07.25.14.36.11.17.19.26.26.43.13.35.32.6.57.86.33.35.44.71.76,1.08.11.11.23.44.13.62-.02.25.16-.12.35.07l.24.22.26.17.13.13c.13.09.25.2.36.33.1.13.19.27.29.4.09.12.08.07.2.12.17.05.22.15.35.25.15.1.26.13.3.34.02.16.08.16,0,.26l-.2.3c-.08.16-.36.22-.49.35-.25.21-.67.55-.98.57-.15,0-.22-.02-.43-.08-.18-.04-.28-.04-.41-.16-.17-.16-.29-.11-.49-.18-.38-.13-.47-.6-.68-.9-.09-.12-.24-.2-.26-.34-.03-.14.14-.26.09-.45-.06-.18-.17-.32-.26-.5l-.28-.21-.13-.08c-.15-.13-.26-.44-.31-.64-.03-.2-.22-.39-.28-.62-.06-.08-.07-.23-.13-.48-.07-.32-.19-.81-.15-1.12.02-.22-.21-.08-.23-.22l-.12-.25c-.24-.18-.75.88-.84,1.04-.16.27-.42.41-.57.69-.17.34-.37.59-.61.87-.13.15-.22.32-.34.47-.13.14-.16.15-.27.36-.11.23-.31.33-.45.54-.15.23-.12.31-.2.58l-.03.07c.1-.08.21-.14.37-.16.28-.02.29.02.53.12.14.07.32.14.5.18.42.11.77.38,1.2.31.29-.03.4-.01.62.15l.23.22c.32.3-.01.26.31.51.07.54-.05.83-.08,1.1-.01.18-.06.22-.07.4-.03.49,0,.97,0,1.46,0,.45.01.86.14,1.29.13.43-.08.89-.15,1.31-.04.21,0,.4-.02.6-.02.24-.09.47-.05.71.05.23.21.43.3.65.16.02.4.07.57.03l.32-.18c.31-.1.49-.38.8-.39.25-.03.53-.05.77-.05.29-.01.46.19.72.25.25.05.37-.1.64.04.29.14.69.2.96.36.19.12.16.34.17.6.03.24.22.54.15.72-.11.31-.54.75-.93.66-.15-.04-.17-.04-.32-.08-.21-.06-.46-.05-.67-.1-.23-.04-.47-.14-.71-.14l-.29.06c-.13.03-.3-.03-.43,0-.17.04-.34,0-.53,0-.43.03-.74-.13-1.14-.18l-.08.25-.27-.12-.38-.07.23-.47-.55-.03c-.07.17-.13.16-.3.2-.15.03-.16.18-.04.29l-.02.27c-.13.06-.3.09-.42.02,0,.17.1.43.26.55l.11-.11c.1-.09.12-.11.27-.15l-.13-.28c.32-.02.74-.14,1.02.02,0,.22.12.49.08.68-.05.25-.33.38-.38.63-.02.23-.06.27-.03.35.13.42.04.87.01,1.3-.03.26.07.85-.13,1.04.21.09.27.06.3.29.03.29-.03.6-.06.88-.05.46.1.93.09,1.38,0,.31,0,.62,0,.93,0,.21-.09.36-.11.58-.01.32.02.63.05.94.01.28.11.6.09.88-.02.21-.12.52-.21.72-.06.14-.19.2-.25.32-.11.2-.05.37-.12.55-.53-.11-1.06-.24-1.58-.37l-.02-.06c-.03-.24,0-.1-.07-.35l.03-.47c-.06-.12-.12-.03-.18-.16-.1-.19-.08-.46-.09-.67-.01-.35.04-.75-.02-1.1l.03-.23c.03-.18.05-.17.12-.33.08-.19-.04-.51-.02-.73,0-.12.07-.52-.09-.58-.17-.06-.31.34-.47.37-.11.02-.36-.1-.49-.13-.12-.01-.23-.03-.36-.05-.62-.13-1.16-.27-1.82-.25-.27.02-.5.1-.76.13-.2.03-.39,0-.59-.02-.18,0-.53.01-.69-.04-.17-.05-.15-.22-.27-.33-.15.09,0,.2-.14.3l-.57.13c-.4.16-1.05.05-1.47,0-.29-.05-.42-.03-.67.04-.21.07-.44.04-.66.09l-.12.03c4.72,3.42,10.51,5.45,16.78,5.49,4.11.02,8.01-.82,11.56-2.34-.03-.13,0-.3-.03-.57-.02-.33,0-.66.02-.97.03-.33-.08-.41-.07-.77.02-.59.02-.99.06-1.38.04-.3.07-.59.13-.85.08-.41-.03-.97-.06-1.37-.04-.41.01-.81-.02-1.21-.02-.37.02-1.03.05-1.4,0,0,.49-.12.34-.25-.08-.07-.81,0-1.14-.03l-.03.19c-.2,0-.31.03-.47.14l-.23.2c-.19.04-.36-.14-.54-.18-.17-.03-.43.04-.6.07-.13.05-.24.02-.34.03-.23,0-.37.17-.6.15-.19-.03-.31-.08-.52-.22l-.37-.26c-.17-.15-.16-.21-.24-.4-.06-.15-.04-.12-.12-.24-.1-.14.07-.39.09-.56.19-.02.25,0,.43-.06.19-.07.24-.21.46-.21.36-.02.71.04,1.06.06.3.01.54-.08.81-.12.17,0,.28-.06.42-.1.24-.06.48-.03.72-.02.11,0,.74.26.5-.11-.08-.13.25-.39.24-.54l-.09-.14.03-.15c.01-.44-.09-.98.04-1.4l.19-.04c-.18-.15-.05-.39-.2-.57-.13-.16-.21-.1-.23-.34,0-.16.03-.32,0-.47-.02-.15-.04-.26-.04-.44-.03-.37-.22-.53-.44-.75l-.29-.3-.2-.33-.16-.27-.13-.2-.21-.17c.04-.14.03-.18.07-.25l.12-.2.18-.23c.16.04.41.06.58.06.27-.01.42.32.66.45.26.14.42.16.55.41l.12-.17h.26c.27.03.59.15.84.26.35.15.15.2.27.47l.15.21c.1.24-.07.34-.09.58-.14,0-.17,0-.32.04l-.06.2-.48-.21-.38.21c-.07.2-.26.56-.23.64l.22.29.42.36c.19.18.14-.27.18-.39.06-.17.25-.37.38-.5.22-.19.18-.08.29.16.05.13.16.15.15.35-.02.25-.18.53-.21.85h-.44c-.15.02-.19.04-.34.06l-.17.33c-.02.18.2.38.08.53-.1.16-.15.04-.19-.07-.1-.22-.01-.19-.29-.28l-.26.48c.05.18.23.26.28.44.05.18.16.41.32.64.13.03.32.05.52-.19l.42-.15.24-.02c-.03.35-.13.66.1.94.22.27.09.71.08,1.05l-.22.15v.45c0,.45-.22.89-.18,1.34.03.31.02.66.02.96,0,.33,0,.61.02.94,0,.31.06.61.07.92,0,.14.05.35,0,.49-.06.25-.05.27-.07.5-.02.19-.02.48.04.79.06.25.02.23.06.49.03.25.07.4-.06.69-.06.15-.16.21-.23.41-.06.14-.05.22-.13.32.74-.37,1.46-.77,2.17-1.2,0-.23-.02-.45,0-.68.04-.54.07-.68.03-1.01l-.05-.48c.01-.17.06-2.08.05-2.26,0-.25.24-1.57.02-1.72-.16-.09-.12-.6-.1-.78.02-.2.02-.52-.08-.69-.06-.44-.1-1.52-.05-1.95.04-.34.13-.59.01-.88-.01-.21-.07-.67-.09-.88-.02-.18.01-.35.02-.54l-.03-.35v-.13s0-.21,0-.21l-.02-.16-.11-.35-.09-.21.13-.32.03-.27c.05-.18.11-.32.34-.23v-.24s-.15-.09-.15-.09l-.24-.2c-.09-.12.14-.35.01-.4-.13-.04-.31.06-.44.02-.16-.05-.19-.23-.31-.32l-.19-.18s-.23-.26-.71-.59c-.01-.2-.19-.43-.14-.61l.09-.07.08-.07.15-.12.11-.07.24-.04.2.07.29.12.17.11.24.1c.16.03.32.05.48.07.15.02.3,0,.46,0,.12-.01.26.01.39.02.23.02.51.18.71.36-.08-.17-.16-.33-.19-.45v-.27s.1-.2.1-.2l.13-.53-.12-.2v-.13c-.08,0-.16-.04-.23-.18l.15-.24-.32.18s.02-.16-.1-.36l.16-.39s.23.28.45.32l.02-.14c.04-.54.34-.89.59-1.34.13-.24.24-.49.47-.64.23-.17.54-.21.76-.39.14-.1.2-.34.34-.47.18-.17.34-.17.57-.2.45-.04.88-.05,1.34-.07.46-.02.89,0,1.34.04.47.04,1.12.28,2.1.54.16.05.28.2.37.32.1.13.11.27.18.42.06.12.3.28.32.42l.13-.1c-.1-.16-.15-.31-.23-.49v-.3c.05-.15.07-.29.07-.44.02-.29-.02-.59.04-.88.04-.26.18-.36.13-.59-.03-.2-.05-.42-.06-.65-.02-.39-.08-.76-.06-1.15.01-.26-.09-.36-.17-.6-.08-.22-.02-.32-.25-.36-.13,0-.4,0-.54.03-.17.04-.33.16-.51.21-.47.12-.94.31-1.42.36-.25.02-.27-.06-.48-.15-.23-.1-.39-.17-.64-.13-.23.03-.45.07-.67.15-.22.08-.3.12-.54.04-.14-.07-.42-.12-.54-.21l-.13-.25c-.07-.12-.1-.49-.28-.49l.02-.31c.32-.02.35-.04.66-.07.24-.02.48-.07.72-.1.28-.02.32-.04.51-.17.13-.1.12-.1.31-.11.18-.01.31-.02.47-.07.45-.12.8-.25,1.25-.2.38.04.79.06,1.18.05.33-.02.52.21.82.35l.22-.15c.04-.19-.09-.16-.14-.27-.07-.11-.05-.19-.02-.33.05-.2.1-.43.14-.65.03-.15.06-.16,0-.35l-.12-.31c-.05-.22,0-.42-.06-.63-.05-.21-.02-.34-.03-.56-.19-.03-.28.14-.43.22-.16.08-.05.21-.34.29-.48.15-1.26.47-1.76.4-.21-.03-.42-.02-.63-.02-.24,0-.33-.02-.51-.11l-.18-.09h-.38c-.27,0-.49.04-.75-.03-.28-.07-.99-.55-.94.08.12.11.17.15.22.3v.23s-.06.21-.06.21c0,.16.06.29.01.44-.11.43-.46.73-.51,1.17-.02.18-.06.42-.06.56.01.17.08.17-.04.37-.07.12-.15.23-.22.34-.12.23-.16.29-.39.4-.25.13-.54.13-.78.28-.23.14-.47.36-.69.5-.12.08-.11.05-.24.11-.38.17-.84.23-1.2.43-.38.22-.67.57-1.18.47-.33-.07-.62,0-.95-.05-.26-.05-.49-.15-.71-.29-.16-.12-.41-.16-.54-.31-.13-.15-.19-.32-.33-.47-.29-.28-.54-.58-.83-.86l-.27-.41c-.17-.18-.2-.35-.35-.54-.11-.13-.2-.2-.31-.39l-.15-.37c-.12-.26-.25-.16-.18-.53.07-.33.18-.7.34-1,.13-.26.06-.45.32-.69.15-.16.26-.36.34-.57.04-.14.05-.29.12-.43.06-.12.13-.12.2-.2.14-.18.53-.34.82-.24h.02c.22-.1-.2-.09-.13-.26l.13-.13.14-.18c.3-.03.78-.12,1.05-.15.42-.04.73-.19,1.12-.34l.4-.16c.17-.01.26.14.42.18.17.08.39.03.58.04.43,0,.89.14,1.27.36.17.09.36.2.52.28l.31.2c.19.11.42.21.6.32.22.13.35.36.56.5.19.14.24.22.32.44.18.07.12-.8.27-.8.17,0,.27.03.43-.03.26-.11.43-.04.69-.01.23.02.5-.09.72-.15l.31-.07c.14-.06.31-.07.47-.12.23-.07.35-.05.6-.09.2-.04.39-.04.59-.08l.33-.14c.28-.08.47,0,.75.01.28,0,.09-.06.87-.05.28,0,.24,0,.55-.07.21.15.29.32.47.18.11-.06.2-.18.33-.18.23,0,.51-.02.51-.02,0-.17-.09-.33-.09-.42-.15-.32-.36-.18-.9-.09-.16.07-.2.12-.37.25-.17-.1-.14-.05-.15-.17v-.23c0-.16,0-.33-.04-.48l-.04-.26.08-.27.31-.06c-.06-.24-.51-.55-.69-.71-.16-.16-.4-.64-.46-.87-.02-.11,0-.12-.14-.24-.2-.07-.26-.09-.35-.17-.19-.19-.28-.28-.5-.44-.12-.23-.01-.34.08-.47.3-.28.23-.14.46-.21.26-.07.32-.11.54.02.16.1.36.17.55.21.26.06.39.13.63.24.29.14.45.17.67.33.17.11.32.04.52.05.27.01.33.1.5.38M42.18,43.86v.11l.02.15c-.12.03-.38.12-.38.06l-.08-.28-.17-.12c.15-.17.1-.16.22-.17h.06s.28.03.28.03c.15-.03.06.14.05.22M39.52,32.33c-.1-.22.4-.44.51-.63l.16-.45.3-.16s.25.43.24.74c-.02.24,1.2.35,1.35.61.15.27-.27.48-.44.55-.39.14-.47-.08-.82-.12-.27-.04-.61-.03-.91,0-.16-.2-.3-.34-.4-.54M16.24,39.33c.33-.02.7-.08,1.01.01l.43.18c.17.11.24.17.45.23.19.05.4.1.6.18.18.06.13.11.22.24.07.15.1.28.01.41l-.15.2-.21.16-.35.23c-.58.08-1.22,0-1.79,0-.37,0-.77-.07-1.13-.03-.41.04-.8.1-1.22.12-.38.01-.75,0-1.13,0-.41,0-.8,0-1.21.13-.26.08-.38.14-.68.14-.31,0-.62.04-.93.12-.21.05-.46-.04-.68-.01-.27.02-.54.16-.82.16v-.02l-.25.21c-.49.02-.97.06-1.45.11-.36.04-.39-.04-.61-.23-.19-.17-.31-.11-.62-.33-.2-.05-.4-.11-.56-.21l-.18-.13-.07-.19c-.1-.17-.4-.31-.47-.47l.1-.44c.18-.02.23-.03.4.01.14.05.24.08.4.09.36.02.88-.08,1.21.07.21.08.2.19.46.2.21.01.44,0,.66.01.26,0,.4-.08.66-.11.51-.06,1.03.06,1.53,0,.2-.03.41-.05.61-.08.38-.05.75-.09,1.13-.12.15-.02.32-.07.42-.17l.06-.33c-.09-.23-.25-.4-.35-.62-.12-.26-.1-.41-.32-.64-.69-.72-.47-.15-.78-.97-.16-.38-.48-.29-.57-.67.1-.17.56-.24.8-.45.13.01.21.08.33.13.13.06.29.03.41.13.16.1.26.26.38.39.13.15.28.2.43.31.19.12.41.24.63.33l.31.11c.22.15.39.37.55.59l.16.24.05.33c.02.21.05.38-.03.59-.04.07-.27.32.02.33.27,0,.46,0,.73-.04.15-.02.32-.02.49-.05.28-.04.65-.11.9-.36M14.75,10.3s-.11.08-.06.37l.04.33h-.24s-.29-.52-.54-.42l.05-.39.29-.18.46.3ZM36.9,13.7c0-.21,0-.43,0-.64.31-.05.53-.13.53-.13l.28.04c-.07.33.04.37.37.43.32.05.37.41.43.61,0,.04-.43-.07-.61-.11-.35-.05-.75-.16-1.02-.2M35.66,54.06l.09-.31s.36-.08.36-.26c0,0,.44.04.54.3,0,0-.11.53.31.29l.23-.06.08.28s-.32.22-.22.41c0,0-.82-.09-.97-.48,0,0-.16-.46-.42-.16M30.6,20.32c0,.37-.03.72-.05,1.09-.36.07-.92-.26-1.08-.55.15-.34.54-.26.74-.56h0s0,0,0,0c.38.02.12,0,.38.02M32.58,23.11c.33.23.16.29.28.56l.15.22c.1.25-.02,1.54-.03,1.72-.02.26.23.61.05.8-.01.01-.07,1.24-.05,1.68l-.06.16c-.02.34-.04.65.2.92.22.28.08.72.08,1.06l-.23.14-.1.45c0,.44-.14.88-.09,1.33.02.22,0,.43,0,.66v.34s.02.5.02.5c-.18.52.06.79.06,1.31,0,.14.04.35,0,.48-.17.59-.06,1.19,0,1.78.03.26.17.51-.02.74-.11.13-.21.15-.29.33-.07.17-.05.21-.15.34-.05.05-.02.05-.2.23-.06.06-.23.33-.36.48-.18.2-.31.41-.6.47-.2.04-.2-.09-.37-.16-.31-.13-.12-.62-.15-.88-.03-.33.02-.66.04-.98.02-.33-.16-.39-.15-.75.02-.49.01-.96.07-1.43.04-.29.16-.53.22-.81.1-.4-.01-.96-.06-1.35-.04-.41.03-.81,0-1.2l-.04-.31c-.02-.24-.04-.66.02-.9h.25l.2-.4v-.1c.1-.14.26-.2.27-.23l.02-.11c.02-.07-.38-.23-.52-.24-.1,0-.35-.11-.53,0l.13.15.07.38-.07.11c-.18.03-.28.06-.61.12-.2.08-.32.02-.49.15l-.23.2c-.21.04-.38-.15-.56-.19-.18-.02-.45.04-.63.06-.14.04-.26.02-.36.02-.26.02-.44.19-.71.13-.45-.11-.93-.47-1.09-.89-.06-.15-.09-.12-.17-.24-.11-.15-.03-.39,0-.55.2,0,.42.02.6-.06.2-.06.26-.2.49-.2.38,0,.74.06,1.11.08.31.01.56-.07.86-.1.17-.02.3-.06.44-.09.24-.05.5-.02.75-.01.11,0,.76.29.51-.09-.08-.13.27-.39.26-.53l-.09-.14.03-.15c.02-.43-.09-.98.05-1.4l.21-.03c-.19-.14-.05-.38-.2-.56-.13-.16-.21-.11-.24-.36,0-.15.06-.32.04-.48-.02-.15-.06-.25-.08-.42-.02-.37-.03-.63-.24-.86l-.36-.22c-.16-.14-.23-.4-.37-.57-.19-.23-.2-.35-.51-.49.04-.13.11-.19.16-.26l.1-.22c.07-.1.12-.12.25-.19.14.1.43.06.6.05.29,0,.31.29.56.42.27.14.46.1.6.35l.03-.18.37.02c.29.03.64.2.88.36M37.8,41.15l.41.15.06.32.02.16-.05.18c-.08.16-.21.33-.31.49-.11.15-.13.33-.27.53l-.19.24c-.12.07-.36.05-.5.03-.22-.03-.39-.03-.63-.02-.2,0-.38.02-.58.03l-.3.05-.24.08c-.15-.04-.31-.03-.45-.05-.18-.04-.33-.09-.5-.1l-.42-.07c0-.23-.35-.13-.49-.08-.19.06-.38.01-.59.07l-.21.19.28-.06.37.49c.08.11.17.18.23.34l.18.24v.23c0,.13-.19.3-.18.41l.17.18c.13.13.14.15.16.33.02.17.09.23.16.39.06.13.07.25.15.37.1.15.18.24.25.42.14.33.33.58.57.85.34.33.58.74.91,1.1.11.12.11.21,0,.43.02.17.07-.21.48.25l.24.23.13.11.21.16.11.02c.09.12.16.2.24.33l.19.21.09.21c.12.16.38.24.51.33.15.11.21.12.29.29.08.17-.11.27-.22.42-.16.2-.24.34-.41.5-.24.21-.72.5-1.03.5-.15.01-.22.02-.44-.06-.18-.06-.2-.08-.34-.2-.16-.14-.61-.12-.78-.24l-.21-.34c-.11-.15-.27-.41-.37-.62-.07-.17-.05-.29-.14-.61-.06-.17-.1-.3-.18-.49l-.3-.23-.13-.09c-.15-.12-.24-.4-.29-.59-.04-.19-.14-.32-.29-.61-.06-.26-.1-.33-.13-.48-.05-.2-.1-.4-.13-.61-.02-.12-.06-.28-.04-.51,0-.17-.24-.27-.31-.47-.1-.22-.73.71-.79.81-.39.57-.86,1.11-1.32,1.6-.14.13-.22.32-.34.46-.22.28-.25.25-.22.39.01.06-.33.4-.46.61-.15.23-.17.48-.25.74l-.12.4c-.07.11-.15.05-.3.24-.07.08-.57.77-.73.99l-.28.21-.18.16-.22.11c-.08.04-.1-.2-.17.05l-.49.31c-.09.1-.41.3-.54.33-.18.04-.35-.1-.51-.13-.18-.03-.27.04-.35-.02l-.23-.31.19-.28c.02-.11.12-.21.19-.36l.24-.42c.11-.13.39-.3.51-.52.13-.22.27-.47.42-.68.22-.31.67-.96.81-1.07.41-.33.7-.75,1.04-1.15.3-.36.61-.7.9-1.07.1-.1.2-.22.26-.35.06-.13.05-.3.14-.41l.25-.28c.09-.14.17-.24.24-.38.21-.35.36-.55.59-.91.27-.4.46-.84.66-1.28.06-.15.03-.3.05-.45l-.05-.25.02-.25-.15-.11c-.19,0-.17.06-.37.05-.19-.02-.4-.05-.6-.04-.2.02-.42,0-.61,0l-.31-.05-.31-.26.03.2-.3.09c-.33.02-.6-.12-.91.08l-.23-.1c-.1-.16-.22-.47-.42-.64l-.16-.14c-.09-.04-.07.05-.15-.08l-.02-.07-.09-.59.14-.26c.29-.01.53.17.81.2.28.03.52.09.8.07.13,0,.25-.02.36-.02l.16.06.18.03c.19-.05.25-.15.38-.22.13-.07.32-.06.49-.11.32-.06.65.06.99.06h.49c.19,0,.46,0,.63-.05.24-.05.2-.08.41-.09.32-.01.64.04.94-.04.18-.04.36-.13.54-.23,0-.15,0-.3.02-.44.04-.38-.01-.71-.05-.91-.04-.97-.02-1.15-.02-1.28-.01-.85,0-.23,0-.62,0-.13-.03-.29.09-.61.02-.36,0-.75.02-1.12.04-.49.09-.62.04-.93l-.04-.45c0-.14.1-1.91.1-2.08,0-.23.26-1.45.05-1.57-.15-.08-.1-.55-.08-.72.02-.2.03-.48-.07-.64-.04-.4-.07-1.39-.01-1.8.05-.31.15-.53.03-.81,0-.18-.04-.62-.07-.81-.02-.17.02-.33.03-.51l-.03-.32v-.12s0-.2,0-.2v-.14c-.13-.07-.1-.22-.11-.33l-.02-.28c0-.22.09-.39.15-.6.05-.21-.05-.27-.15-.46l-.17-.27c-.13-.05-.16-.14-.27-.17-.16-.06-.19-.22-.31-.31l-.19-.17c.05.02-.24-.26-.7-.57-.01-.16-.18-.39-.12-.56l.09-.05.08-.06.15-.11.11-.07.25-.03.19.05.3.12.18.12.23.08c.15.04.31.07.47.09.15.02.3,0,.46,0,.12,0,.27.02.39.03.29.02.61.3.84.45l.29.29c.05.07.04.05.1.18.08.18.21.25.36.36.14.09.1.2.13.34l.04.3c.02.25-.31.32-.35.53-.03.18.23.32.2.55-.02.18-.02.32-.08.47-.07.2-.04.43-.06.63-.01.24-.09.5-.04.73.06.27.11.42.03.72-.05.28,0,.49.03.76.07.4.03.83.02,1.22-.01.49.01.98,0,1.45,0,.2.04.48-.03.66-.05.15-.02.13-.08.25-.1.19-.08.47-.07.66.05.43-.07.86-.01,1.3.08.57-.04,1.16-.03,1.74,0,.3,0,.66.08.94.14.59-.21,1.32.19,1.86,0,.22,0,.44,0,.67.02.26-.02.27-.16.48-.11.16-.15.22-.25.39l.24.24c.05.18.06.33.02.47-.06.15-.26.21-.37.32l-.13.23c.15,0,.23.07.41.13.32.1.49.12.58.19.13.1.17.18.31.2.24,0,.14-.03.37-.03M35.81,27.75l.36-.1c-.09-.14-.36-.51-.44-.52l-.44.34-.18-.1-.16.25.05.3c-.02.5.46-.1.49-.15h.32ZM13.35,22.26c-.22.01-.16-.02-.14.16.03.13.27.13.38.11.16-.01.23-.11.42-.1l.05-.25c-.02-.15-.12-.04-.24-.1l-.28-.04-.18.22ZM13.53,22.04h0,0ZM28.23,12.26l-.15.22h0l.12.23.52-.07.41.15.03-.05v-.16l-.33-.21-.6-.11ZM.3,25.06c.09-.64.18-1.27.31-1.89h0c-.13.62-.24,1.26-.32,1.9,0,0,.01,0,.02,0M44,4.2c.53.32,1.04.68,1.55,1.04,0-.01,0-.02,0-.04-.5-.35-1.02-.68-1.55-1M56.09,18.81c.12.33.27.65.38.99-.1-.31-.2-.61-.32-.91l-.06-.08ZM20.74,10.11h0s0,.02,0,.02h0s0-.02,0-.02ZM18.3,9.17l-.03-.14.15-.08c.34.1.67.02.94-.01.26-.04.62.03.85-.11.29-.15.76-.05,1.09-.08l.06.18c.14-.11.24-.11.41-.19.27-.14.34-.1.68-.06.19-.03.5.19.62.14.14-.08.19-.14.33-.1l.24.16c.25-.08-.04-.35-.08-.49l-.02-.2c-.02-.19-.1-.31-.05-.5l.08-.34v-.18s-.03-.29-.03-.29c-.01-.2-.04-.34,0-.51.04-.18.14-.6.15-.77v-.04s-.06.02-.06.02l-.16-.08c-.16-.05-.16.44-.28.46-.2.04-.32.11-.53.06l-.13.02-.26.05c-.19,0-.36.06-.56.08-.16.03-.34.03-.51.07-.14.03-.63.16-.78.16-.13,0-.34.03-.52.03-.12,0-.29-.14-.41-.13-.65.05-.2.15-.6.1-.15-.03-.28-.15-.43-.11-.18.05-.36.06-.55.08.02.15-.07.24-.08.35-.01.13.05.29.04.42,0,.16-.08.35-.07.5.02.18.05.1.06.48l.12.37c.07.12.12.05.2.26v.23s.04.2.04.2h.08ZM16.07,5.63l-.02.45c.03.09.16.1.32.12l.12-.25.41-.06-.19-.54-.4.12c-.09,0-.19,0-.24.16M23.85,4.97l.03-.25-.12-.18c-.14-.19-.11-.51-.16-.72l-.04-.26c0-.18.09-.35.02-.53-.05-.2-.11-.69-.15-.89-.03-.18-.01-.31-.08-.48-.08-.19-.07-.4-.14-.61l-.25-.26-.1-.12c-1.86.4-3.65.99-5.35,1.73l.08.1c.09.15.23.33.27.5.04.16-.03.38-.04.55-.04.33,0,.73.05,1.05l.02.43c.16.16.28.43.46.54l.38-.23c.22-.09.32-.11.49-.11.15-.02.3-.03.44-.04.13,0,.16.1.31.07.15-.03.25-.14.4-.19.16-.04.33-.1.5-.12.35-.05.5-.23.79-.31.16-.06.42-.16.56-.2.13-.03.13-.01.24-.05.15-.04.21-.07.38-.04.12.02.2.07.34.14l.21.11.15.06c.18.04.18.23.32.31M15.96,3.12c.5-.25,1.01-.49,1.53-.71h0c-.52.21-1.02.46-1.52.71M41.42,55.2h0s.1-.05.1-.05l-.09.05ZM44.58,43.65c-.11.29-.13.29-.05.38.24.29.43.18.39.26.15-.27.31-.48.45-.51l.24.14c.02-.35.08-.55.13-.75.06-.21.12-.44.07-.66l-.16-.35c-.07-.13-.09-.16-.19-.32-.21.01-.21.22-.28.38-.06.14-.12.27-.14.44.13.14.12.3.12.46l-.02.32c-.01.15-.2.08-.32.11l-.24.09Z"/><path class="cls-2" d="M76.54,11.78c0,.53.08.97.25,1.31.32.64.89.96,1.72.96.51,0,.95-.18,1.33-.53.38-.35.57-.85.57-1.51,0-.87-.35-1.45-1.06-1.74-.4-.16-1.03-.25-1.89-.25v-1.86c.84-.01,1.43-.09,1.76-.25.58-.26.86-.77.86-1.55,0-.5-.15-.92-.44-1.23-.29-.32-.71-.47-1.24-.47-.61,0-1.06.19-1.35.58-.29.39-.43.91-.41,1.56h-2.43c.02-.66.14-1.28.34-1.87.21-.52.55-.99,1-1.43.34-.31.74-.55,1.21-.71s1.04-.25,1.72-.25c1.26,0,2.28.33,3.06.98s1.16,1.53,1.16,2.63c0,.78-.23,1.44-.69,1.97-.29.33-.6.56-.91.68.24,0,.58.2,1.02.61.66.62.99,1.45.99,2.52,0,1.12-.39,2.1-1.16,2.95-.78.85-1.92,1.27-3.44,1.27-1.87,0-3.17-.61-3.9-1.83-.38-.65-.59-1.5-.64-2.56h2.56Z"/><path class="cls-2" d="M92.48,4.29c.68,1.19,1.02,2.87,1.02,5.06s-.34,3.87-1.02,5.05-1.86,1.77-3.55,1.77-2.87-.59-3.55-1.77-1.02-2.86-1.02-5.05.34-3.87,1.02-5.06c.68-1.19,1.86-1.78,3.55-1.78s2.87.59,3.55,1.78ZM87.4,12.84c.25.81.76,1.21,1.53,1.21s1.28-.4,1.52-1.21.36-1.97.36-3.49-.12-2.77-.36-3.54-.75-1.15-1.52-1.15-1.28.38-1.53,1.15-.37,1.95-.37,3.54.12,2.69.37,3.49Z"/><path class="cls-2" d="M94.28,7.83v-1.85h1.39v-2.77h2.57v2.77h1.61v1.85h-1.61v5.26c0,.41.05.66.15.76.1.1.42.15.95.15.08,0,.16,0,.25,0s.18,0,.26-.01v1.94l-1.23.05c-1.23.04-2.07-.17-2.52-.64-.29-.3-.44-.76-.44-1.38v-6.12h-1.39Z"/><path class="cls-2" d="M108.59,5.94c.5.21.91.54,1.23.98.27.37.44.75.5,1.15.06.39.09,1.03.09,1.92v5.85h-2.66v-6.06c0-.54-.09-.97-.27-1.3-.24-.46-.68-.69-1.34-.69s-1.2.23-1.55.69c-.35.46-.53,1.12-.53,1.97v5.39h-2.6V2.43h2.6v4.75c.38-.58.81-.98,1.3-1.21.49-.23,1.01-.34,1.56-.34.61,0,1.17.11,1.67.32Z"/><path class="cls-2" d="M128.11,3.82c.41.57.62,1.26.62,2.05s-.21,1.48-.62,1.98c-.23.28-.57.54-1.03.77.69.25,1.2.65,1.55,1.19.35.54.52,1.2.52,1.97s-.2,1.51-.6,2.14c-.25.42-.57.77-.95,1.06-.43.33-.94.55-1.52.68s-1.22.18-1.9.18h-6.06V2.38h6.5c1.64.02,2.8.5,3.49,1.43ZM120.8,4.72v2.97h3.27c.58,0,1.06-.11,1.42-.33.36-.22.55-.62.55-1.18,0-.63-.24-1.04-.72-1.24-.42-.14-.95-.21-1.59-.21h-2.93ZM120.8,9.91v3.59h3.27c.58,0,1.04-.08,1.36-.24.59-.29.88-.85.88-1.68,0-.7-.29-1.18-.86-1.44-.32-.15-.77-.22-1.34-.23h-3.31Z"/><path class="cls-2" d="M131.48,2.38h2.86v8.26c0,.92.11,1.6.33,2.02.34.75,1.08,1.13,2.22,1.13s1.87-.38,2.21-1.13c.22-.43.33-1.1.33-2.02V2.38h2.86v8.27c0,1.43-.22,2.54-.67,3.34-.83,1.46-2.4,2.19-4.73,2.19s-3.91-.73-4.74-2.19c-.44-.8-.66-1.91-.66-3.34V2.38Z"/><path class="cls-2" d="M146.91,11.68c.09.62.26,1.07.51,1.38.47.55,1.26.83,2.4.83.68,0,1.23-.07,1.65-.22.8-.28,1.2-.8,1.2-1.56,0-.44-.2-.79-.59-1.03-.39-.24-1.02-.45-1.87-.63l-1.46-.32c-1.43-.32-2.41-.66-2.95-1.03-.91-.62-1.36-1.59-1.36-2.91,0-1.2.44-2.21,1.33-3s2.19-1.2,3.91-1.2c1.43,0,2.66.37,3.67,1.13s1.55,1.84,1.59,3.27h-2.7c-.05-.81-.41-1.38-1.09-1.72-.45-.23-1.01-.34-1.68-.34-.74,0-1.33.15-1.78.44-.44.29-.66.7-.66,1.22,0,.48.22.84.66,1.08.28.16.88.34,1.79.56l2.36.56c1.03.24,1.81.57,2.33.98.8.63,1.2,1.55,1.2,2.75s-.48,2.25-1.42,3.06c-.95.81-2.29,1.22-4.03,1.22s-3.16-.4-4.18-1.2c-1.02-.8-1.52-1.9-1.52-3.3h2.68Z"/><path class="cls-2" d="M161.1,2.38h3.18l4.76,13.45h-3.05l-.89-2.77h-4.95l-.91,2.77h-2.94l4.8-13.45ZM160.92,10.75h3.45l-1.7-5.29-1.75,5.29Z"/><path class="cls-2" d="M170.62,2.38h2.95l5.34,9.38V2.38h2.62v13.45h-2.81l-5.48-9.55v9.55h-2.62V2.38Z"/><path class="cls-2" d="M77.48,34.53h-2.79v-13.45h2.79v13.45Z"/><path class="cls-2" d="M87.82,25.15c.65.54.98,1.43.98,2.68v6.7h-2.67v-6.05c0-.52-.07-.92-.21-1.2-.25-.51-.74-.77-1.45-.77-.88,0-1.48.37-1.8,1.12-.17.4-.25.9-.25,1.52v5.38h-2.6v-9.93h2.52v1.45c.33-.51.65-.88.94-1.1.53-.4,1.21-.6,2.03-.6,1.02,0,1.86.27,2.51.81Z"/><path class="cls-2" d="M90.1,26.52v-1.85h1.39v-2.77h2.57v2.77h1.61v1.85h-1.61v5.26c0,.41.05.66.15.76.1.1.42.15.95.15.08,0,.16,0,.25,0s.18,0,.26-.01v1.94l-1.23.05c-1.23.04-2.07-.17-2.52-.64-.29-.3-.44-.76-.44-1.38v-6.12h-1.39Z"/><path class="cls-2" d="M103.74,24.78c.69.31,1.27.8,1.72,1.47.41.59.67,1.28.79,2.06.07.46.1,1.11.09,1.97h-7.25c.04,1,.39,1.7,1.04,2.1.4.25.88.37,1.43.37.59,0,1.07-.15,1.44-.46.2-.16.38-.39.53-.69h2.66c-.07.59-.39,1.19-.96,1.8-.89.97-2.14,1.45-3.74,1.45-1.32,0-2.49-.41-3.5-1.22-1.01-.82-1.52-2.14-1.52-3.98,0-1.72.46-3.04,1.37-3.96.91-.92,2.1-1.38,3.56-1.38.87,0,1.65.16,2.34.47ZM99.85,27.03c-.37.38-.6.89-.69,1.54h4.48c-.05-.69-.28-1.22-.69-1.57-.42-.36-.93-.54-1.54-.54-.67,0-1.19.19-1.55.57Z"/><path class="cls-2" d="M113.09,24.35s.11,0,.22.01v2.67c-.17-.02-.31-.03-.44-.04-.13,0-.23,0-.31,0-1.05,0-1.75.34-2.11,1.02-.2.38-.3.97-.3,1.77v4.75h-2.62v-9.95h2.48v1.73c.4-.66.75-1.12,1.05-1.36.49-.41,1.12-.61,1.9-.61.05,0,.09,0,.12,0Z"/><path class="cls-2" d="M122.76,25.15c.65.54.98,1.43.98,2.68v6.7h-2.67v-6.05c0-.52-.07-.92-.21-1.2-.25-.51-.74-.77-1.45-.77-.88,0-1.48.37-1.8,1.12-.17.4-.25.9-.25,1.52v5.38h-2.6v-9.93h2.52v1.45c.33-.51.65-.88.94-1.1.53-.4,1.21-.6,2.03-.6,1.02,0,1.86.27,2.51.81Z"/><path class="cls-2" d="M130.01,28.48c.48-.06.83-.14,1.04-.23.37-.16.56-.4.56-.74,0-.41-.14-.69-.43-.85-.29-.15-.71-.23-1.26-.23-.62,0-1.06.15-1.32.46-.18.22-.31.53-.37.91h-2.51c.05-.87.3-1.59.73-2.15.69-.88,1.88-1.31,3.56-1.31,1.09,0,2.07.22,2.92.65.85.43,1.27,1.25,1.27,2.45v4.56c0,.32,0,.7.02,1.15.02.34.07.57.16.69.08.12.21.22.38.3v.38h-2.83c-.08-.2-.13-.39-.16-.57s-.05-.38-.07-.6c-.36.39-.78.72-1.25.99-.56.32-1.2.48-1.91.48-.91,0-1.65-.26-2.24-.77-.59-.51-.89-1.24-.89-2.19,0-1.22.47-2.11,1.42-2.66.52-.3,1.29-.51,2.3-.64l.89-.11ZM131.6,29.69c-.17.1-.33.19-.5.25-.17.06-.4.12-.7.18l-.59.11c-.56.1-.95.22-1.2.36-.41.24-.61.61-.61,1.1,0,.44.12.77.38.96.25.2.55.3.91.3.57,0,1.09-.17,1.57-.49s.73-.93.75-1.8v-.97Z"/><path class="cls-2" d="M135.35,26.52v-1.85h1.39v-2.77h2.57v2.77h1.61v1.85h-1.61v5.26c0,.41.05.66.15.76.1.1.42.15.95.15.08,0,.16,0,.25,0s.18,0,.26-.01v1.94l-1.23.05c-1.23.04-2.07-.17-2.52-.64-.29-.3-.44-.76-.44-1.38v-6.12h-1.39Z"/><path class="cls-2" d="M145.17,23.39h-2.64v-2.4h2.64v2.4ZM142.53,24.58h2.64v9.95h-2.64v-9.95Z"/><path class="cls-2" d="M155.89,33.31c-.84,1.04-2.11,1.55-3.82,1.55s-2.99-.52-3.82-1.55c-.84-1.04-1.26-2.28-1.26-3.74s.42-2.68,1.26-3.73c.84-1.05,2.11-1.58,3.82-1.58s2.98.53,3.82,1.58c.84,1.05,1.26,2.29,1.26,3.73s-.42,2.71-1.26,3.74ZM153.81,31.87c.41-.54.61-1.31.61-2.31s-.2-1.76-.61-2.3-.99-.81-1.75-.81-1.35.27-1.76.81c-.41.54-.62,1.3-.62,2.3s.21,1.77.62,2.31c.41.54,1,.81,1.76.81s1.34-.27,1.75-.81Z"/><path class="cls-2" d="M166.95,25.15c.65.54.98,1.43.98,2.68v6.7h-2.67v-6.05c0-.52-.07-.92-.21-1.2-.25-.51-.74-.77-1.45-.77-.88,0-1.48.37-1.8,1.12-.17.4-.25.9-.25,1.52v5.38h-2.6v-9.93h2.52v1.45c.33-.51.65-.88.94-1.1.53-.4,1.21-.6,2.03-.6,1.02,0,1.86.27,2.51.81Z"/><path class="cls-2" d="M174.19,28.48c.48-.06.83-.14,1.04-.23.37-.16.56-.4.56-.74,0-.41-.14-.69-.43-.85-.29-.15-.71-.23-1.26-.23-.62,0-1.06.15-1.32.46-.18.22-.31.53-.37.91h-2.51c.05-.87.3-1.59.73-2.15.69-.88,1.88-1.31,3.56-1.31,1.09,0,2.07.22,2.92.65.85.43,1.27,1.25,1.27,2.45v4.56c0,.32,0,.7.02,1.15.02.34.07.57.16.69.08.12.21.22.38.3v.38h-2.83c-.08-.2-.13-.39-.16-.57s-.05-.38-.07-.6c-.36.39-.78.72-1.25.99-.56.32-1.2.48-1.91.48-.91,0-1.65-.26-2.24-.77-.59-.51-.89-1.24-.89-2.19,0-1.22.47-2.11,1.42-2.66.52-.3,1.29-.51,2.3-.64l.89-.11ZM175.78,29.69c-.17.1-.33.19-.5.25-.17.06-.4.12-.7.18l-.59.11c-.56.1-.95.22-1.2.36-.41.24-.61.61-.61,1.1,0,.44.12.77.38.96.25.2.55.3.91.3.57,0,1.09-.17,1.57-.49s.73-.93.75-1.8v-.97Z"/><path class="cls-2" d="M183.21,34.53h-2.6v-13.45h2.6v13.45Z"/><path class="cls-2" d="M190.96,21.09h9.59v2.36h-6.8v3.09h5.96v2.34h-5.96v5.64h-2.79v-13.43Z"/><path class="cls-2" d="M204.75,23.39h-2.64v-2.4h2.64v2.4ZM202.11,24.58h2.64v9.95h-2.64v-9.95Z"/><path class="cls-2" d="M209.83,34.53h-2.6v-13.45h2.6v13.45Z"/><path class="cls-2" d="M224.68,24.62c.43.17.81.47,1.16.89.28.35.47.77.57,1.28.06.34.09.82.09,1.47l-.02,6.27h-2.67v-6.33c0-.38-.06-.69-.18-.93-.23-.46-.66-.69-1.28-.69-.72,0-1.21.3-1.49.89-.14.32-.21.7-.21,1.14v5.92h-2.62v-5.92c0-.59-.06-1.02-.18-1.29-.22-.48-.65-.72-1.29-.72-.74,0-1.24.24-1.5.72-.14.27-.21.68-.21,1.22v5.99h-2.64v-9.93h2.53v1.45c.32-.52.63-.89.91-1.1.51-.39,1.16-.58,1.96-.58.76,0,1.38.17,1.84.5.38.31.66.71.86,1.2.34-.58.76-1.01,1.27-1.29.53-.27,1.13-.41,1.79-.41.44,0,.87.08,1.29.26Z"/><path class="cls-2" d="M234.11,21.09h9.59v2.36h-6.8v3.09h5.96v2.34h-5.96v5.64h-2.79v-13.43Z"/><path class="cls-2" d="M251.71,24.78c.69.31,1.27.8,1.72,1.47.41.59.67,1.28.79,2.06.07.46.1,1.11.09,1.97h-7.25c.04,1,.39,1.7,1.04,2.1.4.25.88.37,1.43.37.59,0,1.07-.15,1.44-.46.2-.16.38-.39.53-.69h2.66c-.07.59-.39,1.19-.96,1.8-.89.97-2.14,1.45-3.74,1.45-1.32,0-2.49-.41-3.5-1.22-1.01-.82-1.52-2.14-1.52-3.98,0-1.72.46-3.04,1.37-3.96.91-.92,2.1-1.38,3.56-1.38.87,0,1.65.16,2.34.47ZM247.81,27.03c-.37.38-.6.89-.69,1.54h4.48c-.05-.69-.28-1.22-.69-1.57-.42-.36-.93-.54-1.54-.54-.67,0-1.19.19-1.55.57Z"/><path class="cls-2" d="M257.54,31.35c.05.46.17.79.36.99.32.35.92.52,1.8.52.51,0,.92-.08,1.22-.23s.45-.38.45-.69-.12-.51-.37-.67-1.15-.41-2.72-.78c-1.13-.28-1.93-.63-2.39-1.05-.46-.41-.69-1.01-.69-1.79,0-.92.36-1.71,1.08-2.37s1.74-.99,3.05-.99,2.26.25,3.04.74c.78.5,1.23,1.35,1.35,2.57h-2.6c-.04-.34-.13-.6-.28-.79-.29-.35-.77-.53-1.46-.53-.57,0-.97.09-1.21.27-.24.18-.36.38-.36.62,0,.3.13.51.38.65.26.14,1.16.38,2.72.72,1.04.24,1.81.61,2.33,1.1.51.5.77,1.12.77,1.87,0,.99-.37,1.79-1.1,2.41-.74.62-1.87.94-3.41.94s-2.72-.33-3.47-.99c-.75-.66-1.12-1.5-1.12-2.52h2.64Z"/><path class="cls-2" d="M264.8,26.52v-1.85h1.39v-2.77h2.57v2.77h1.61v1.85h-1.61v5.26c0,.41.05.66.15.76.1.1.42.15.95.15.08,0,.16,0,.25,0s.18,0,.26-.01v1.94l-1.23.05c-1.23.04-2.07-.17-2.52-.64-.29-.3-.44-.76-.44-1.38v-6.12h-1.39Z"/><path class="cls-2" d="M274.63,23.39h-2.64v-2.4h2.64v2.4ZM271.99,24.58h2.64v9.95h-2.64v-9.95Z"/><path class="cls-2" d="M283.19,24.58h2.79l-3.59,9.95h-2.74l-3.57-9.95h2.92l2.07,7.34,2.12-7.34Z"/><path class="cls-2" d="M291.3,28.48c.48-.06.83-.14,1.04-.23.37-.16.56-.4.56-.74,0-.41-.14-.69-.43-.85-.29-.15-.71-.23-1.26-.23-.62,0-1.06.15-1.32.46-.18.22-.31.53-.37.91h-2.51c.05-.87.3-1.59.73-2.15.69-.88,1.88-1.31,3.56-1.31,1.09,0,2.07.22,2.92.65.85.43,1.27,1.25,1.27,2.45v4.56c0,.32,0,.7.02,1.15.02.34.07.57.16.69.08.12.21.22.38.3v.38h-2.83c-.08-.2-.13-.39-.16-.57s-.05-.38-.07-.6c-.36.39-.78.72-1.25.99-.56.32-1.2.48-1.91.48-.91,0-1.65-.26-2.24-.77-.59-.51-.89-1.24-.89-2.19,0-1.22.47-2.11,1.42-2.66.52-.3,1.29-.51,2.3-.64l.89-.11ZM292.89,29.69c-.17.1-.33.19-.5.25-.17.06-.4.12-.7.18l-.59.11c-.56.1-.95.22-1.2.36-.41.24-.61.61-.61,1.1,0,.44.12.77.38.96.25.2.55.3.91.3.57,0,1.09-.17,1.57-.49s.73-.93.75-1.8v-.97Z"/><path class="cls-2" d="M300.32,34.53h-2.6v-13.45h2.6v13.45Z"/><path class="cls-2" d="M74.79,44.09v-1.77c.82-.04,1.39-.09,1.72-.16.52-.12.95-.35,1.27-.69.23-.24.4-.55.51-.95.07-.24.1-.41.1-.53h2.17v13.23h-2.67v-9.13h-3.11Z"/><path class="cls-2" d="M93.65,42.2c-.39.38-.93,1.07-1.63,2.05s-1.28,2-1.75,3.04c-.37.82-.71,1.83-1.01,3.01s-.45,2.16-.45,2.92h-2.7c.08-2.37.86-4.84,2.34-7.4.96-1.59,1.76-2.7,2.4-3.32h-6.59l.04-2.34h9.35v2.04Z"/><path class="cls-2" d="M95.17,47h9.45v1.99h-9.45v-1.99Z"/><path class="cls-2" d="M107.7,50.62c.37-.88,1.25-1.82,2.63-2.8,1.2-.86,1.97-1.47,2.33-1.84.54-.58.81-1.21.81-1.9,0-.56-.16-1.03-.47-1.4-.31-.37-.75-.56-1.33-.56-.79,0-1.33.3-1.62.88-.16.34-.26.88-.29,1.63h-2.53c.04-1.13.25-2.04.61-2.73.69-1.32,1.93-1.98,3.7-1.98,1.4,0,2.52.39,3.34,1.16.83.78,1.24,1.8,1.24,3.08,0,.98-.29,1.85-.88,2.61-.38.5-1.01,1.07-1.89,1.69l-1.04.74c-.65.46-1.1.8-1.34,1s-.44.45-.61.72h5.78v2.29h-9.06c.02-.95.23-1.82.61-2.6Z"/><path class="cls-2" d="M123.66,43.32c0-.21-.08-.45-.25-.7-.28-.41-.7-.62-1.27-.62-.85,0-1.45.47-1.81,1.42-.2.52-.33,1.3-.4,2.32.32-.38.7-.66,1.12-.84s.91-.26,1.46-.26c1.17,0,2.14.4,2.89,1.2s1.13,1.82,1.13,3.06-.37,2.32-1.1,3.27c-.74.94-1.88,1.41-3.43,1.41-1.67,0-2.9-.7-3.69-2.09-.61-1.09-.92-2.49-.92-4.22,0-1.01.04-1.83.13-2.47.15-1.13.45-2.06.89-2.81.38-.64.87-1.15,1.48-1.54.61-.39,1.34-.58,2.19-.58,1.23,0,2.21.31,2.94.94.73.63,1.14,1.47,1.23,2.51h-2.59ZM120.58,50.77c.38.45.87.68,1.46.68s1.03-.22,1.36-.65.5-1,.5-1.69c0-.77-.19-1.36-.56-1.77-.38-.41-.84-.62-1.39-.62-.44,0-.84.13-1.18.4-.51.4-.77,1.03-.77,1.92,0,.71.19,1.29.57,1.74Z"/><path class="cls-2" d="M135.66,49.07c.09.62.26,1.07.51,1.38.47.55,1.26.83,2.4.83.68,0,1.23-.07,1.65-.22.8-.28,1.2-.8,1.2-1.56,0-.44-.2-.79-.59-1.03-.39-.24-1.02-.45-1.87-.63l-1.46-.32c-1.43-.32-2.41-.66-2.95-1.03-.91-.62-1.36-1.59-1.36-2.91,0-1.2.44-2.21,1.33-3s2.19-1.2,3.91-1.2c1.43,0,2.66.37,3.67,1.13s1.55,1.84,1.59,3.27h-2.7c-.05-.81-.41-1.38-1.09-1.72-.45-.23-1.01-.34-1.68-.34-.74,0-1.33.15-1.78.44-.44.29-.66.7-.66,1.22,0,.48.22.84.66,1.08.28.16.88.34,1.79.56l2.36.56c1.03.24,1.81.57,2.33.98.8.63,1.2,1.55,1.2,2.75s-.48,2.25-1.42,3.06c-.95.81-2.29,1.22-4.03,1.22s-3.16-.4-4.18-1.2c-1.02-.8-1.52-1.9-1.52-3.3h2.68Z"/><path class="cls-2" d="M152.28,43.47c.69.31,1.27.8,1.72,1.47.41.59.67,1.28.79,2.06.07.46.1,1.11.09,1.97h-7.25c.04,1,.39,1.7,1.04,2.1.4.25.88.37,1.43.37.59,0,1.07-.15,1.44-.46.2-.16.38-.39.53-.69h2.66c-.07.59-.39,1.19-.96,1.8-.89.97-2.14,1.45-3.74,1.45-1.32,0-2.49-.41-3.5-1.22-1.01-.82-1.52-2.14-1.52-3.98,0-1.72.46-3.04,1.37-3.96.91-.92,2.1-1.38,3.56-1.38.87,0,1.65.16,2.34.47ZM148.39,45.72c-.37.38-.6.89-.69,1.54h4.48c-.05-.69-.28-1.22-.69-1.57-.42-.36-.93-.54-1.54-.54-.67,0-1.19.19-1.55.57Z"/><path class="cls-2" d="M164.47,44.34c.81.86,1.22,2.12,1.22,3.78,0,1.75-.4,3.09-1.19,4.01-.79.92-1.81,1.38-3.06,1.38-.8,0-1.46-.2-1.98-.59-.29-.22-.57-.54-.85-.96v5.18h-2.57v-13.86h2.49v1.47c.28-.43.58-.77.9-1.02.58-.44,1.27-.67,2.08-.67,1.17,0,2.16.43,2.97,1.29ZM162.47,46.21c-.35-.59-.93-.88-1.72-.88-.95,0-1.61.45-1.96,1.34-.18.47-.28,1.08-.28,1.81,0,1.16.31,1.97.93,2.44.37.27.81.41,1.31.41.73,0,1.29-.28,1.67-.84.38-.56.58-1.31.58-2.24,0-.77-.18-1.45-.53-2.04Z"/><path class="cls-2" d="M166.4,45.22v-1.85h1.39v-2.77h2.57v2.77h1.61v1.85h-1.61v5.26c0,.41.05.66.15.76.1.1.42.15.95.15.08,0,.16,0,.25,0s.18,0,.26-.01v1.94l-1.23.05c-1.23.04-2.07-.17-2.52-.64-.29-.3-.44-.76-.44-1.38v-6.12h-1.39Z"/><path class="cls-2" d="M180.04,43.47c.69.31,1.27.8,1.72,1.47.41.59.67,1.28.79,2.06.07.46.1,1.11.09,1.97h-7.25c.04,1,.39,1.7,1.04,2.1.4.25.88.37,1.43.37.59,0,1.07-.15,1.44-.46.2-.16.38-.39.53-.69h2.66c-.07.59-.39,1.19-.96,1.8-.89.97-2.14,1.45-3.74,1.45-1.32,0-2.49-.41-3.5-1.22-1.01-.82-1.52-2.14-1.52-3.98,0-1.72.46-3.04,1.37-3.96.91-.92,2.1-1.38,3.56-1.38.87,0,1.65.16,2.34.47ZM176.15,45.72c-.37.38-.6.89-.69,1.54h4.48c-.05-.69-.28-1.22-.69-1.57-.42-.36-.93-.54-1.54-.54-.67,0-1.19.19-1.55.57Z"/><path class="cls-2" d="M196.27,43.31c.43.17.81.47,1.16.89.28.35.47.77.57,1.28.06.34.09.82.09,1.47l-.02,6.27h-2.67v-6.33c0-.38-.06-.69-.18-.93-.23-.46-.66-.69-1.28-.69-.72,0-1.21.3-1.49.89-.14.32-.21.7-.21,1.14v5.92h-2.62v-5.92c0-.59-.06-1.02-.18-1.29-.22-.48-.65-.72-1.29-.72-.74,0-1.24.24-1.5.72-.14.27-.21.68-.21,1.22v5.99h-2.64v-9.93h2.53v1.45c.32-.52.63-.89.91-1.1.51-.39,1.16-.58,1.96-.58.76,0,1.38.17,1.84.5.38.31.66.71.86,1.2.34-.58.76-1.01,1.27-1.29.53-.27,1.13-.41,1.79-.41.44,0,.87.08,1.29.26Z"/><path class="cls-2" d="M208.88,44.47c.74.94,1.12,2.16,1.12,3.65s-.37,2.83-1.1,3.84c-.73,1.02-1.76,1.52-3.07,1.52-.83,0-1.49-.16-1.99-.49-.3-.2-.62-.54-.97-1.02v1.25h-2.56v-13.43h2.6v4.78c.33-.46.69-.81,1.09-1.06.47-.3,1.07-.46,1.8-.46,1.32,0,2.35.47,3.09,1.41ZM206.7,50.53c.37-.54.56-1.25.56-2.13,0-.71-.09-1.29-.28-1.75-.35-.88-.99-1.31-1.93-1.31s-1.61.43-1.96,1.29c-.18.46-.28,1.05-.28,1.77,0,.85.19,1.56.57,2.12.38.56.96.84,1.74.84.68,0,1.2-.27,1.57-.81Z"/><path class="cls-2" d="M218.19,43.47c.69.31,1.27.8,1.72,1.47.41.59.67,1.28.79,2.06.07.46.1,1.11.09,1.97h-7.25c.04,1,.39,1.7,1.04,2.1.4.25.88.37,1.43.37.59,0,1.07-.15,1.44-.46.2-.16.38-.39.53-.69h2.66c-.07.59-.39,1.19-.96,1.8-.89.97-2.14,1.45-3.74,1.45-1.32,0-2.49-.41-3.5-1.22-1.01-.82-1.52-2.14-1.52-3.98,0-1.72.46-3.04,1.37-3.96.91-.92,2.1-1.38,3.56-1.38.87,0,1.65.16,2.34.47ZM214.3,45.72c-.37.38-.6.89-.69,1.54h4.48c-.05-.69-.28-1.22-.69-1.57-.42-.36-.93-.54-1.54-.54-.67,0-1.19.19-1.55.57Z"/><path class="cls-2" d="M227.54,43.04s.11,0,.22.01v2.67c-.17-.02-.31-.03-.44-.04-.13,0-.23,0-.31,0-1.05,0-1.75.34-2.11,1.02-.2.38-.3.97-.3,1.77v4.75h-2.62v-9.95h2.48v1.73c.4-.66.75-1.12,1.05-1.36.49-.41,1.12-.61,1.9-.61.05,0,.09,0,.12,0Z"/><path class="cls-2" d="M234.27,50.62c.37-.88,1.25-1.82,2.63-2.8,1.2-.86,1.97-1.47,2.33-1.84.54-.58.81-1.21.81-1.9,0-.56-.16-1.03-.47-1.4-.31-.37-.75-.56-1.33-.56-.79,0-1.33.3-1.62.88-.16.34-.26.88-.29,1.63h-2.53c.04-1.13.25-2.04.61-2.73.69-1.32,1.93-1.98,3.7-1.98,1.4,0,2.52.39,3.34,1.16.83.78,1.24,1.8,1.24,3.08,0,.98-.29,1.85-.88,2.61-.38.5-1.01,1.07-1.89,1.69l-1.04.74c-.65.46-1.1.8-1.34,1s-.44.45-.61.72h5.78v2.29h-9.06c.02-.95.23-1.82.61-2.6Z"/><path class="cls-2" d="M252.07,41.68c.68,1.19,1.02,2.87,1.02,5.06s-.34,3.87-1.02,5.05-1.86,1.77-3.55,1.77-2.87-.59-3.55-1.77-1.02-2.86-1.02-5.05.34-3.87,1.02-5.06c.68-1.19,1.86-1.78,3.55-1.78s2.87.59,3.55,1.78ZM246.99,50.22c.25.81.76,1.21,1.53,1.21s1.28-.4,1.52-1.21.36-1.97.36-3.49-.12-2.77-.36-3.54-.75-1.15-1.52-1.15-1.28.38-1.53,1.15-.37,1.95-.37,3.54.12,2.69.37,3.49Z"/><path class="cls-2" d="M254.88,50.62c.37-.88,1.25-1.82,2.63-2.8,1.2-.86,1.97-1.47,2.33-1.84.54-.58.81-1.21.81-1.9,0-.56-.16-1.03-.47-1.4-.31-.37-.75-.56-1.33-.56-.79,0-1.33.3-1.62.88-.16.34-.26.88-.29,1.63h-2.53c.04-1.13.25-2.04.61-2.73.69-1.32,1.93-1.98,3.7-1.98,1.4,0,2.52.39,3.34,1.16.83.78,1.24,1.8,1.24,3.08,0,.98-.29,1.85-.88,2.61-.38.5-1.01,1.07-1.89,1.69l-1.04.74c-.65.46-1.1.8-1.34,1s-.44.45-.61.72h5.78v2.29h-9.06c.02-.95.23-1.82.61-2.6Z"/><path class="cls-2" d="M267.07,49.68c.1.57.3,1,.59,1.31.29.31.72.46,1.27.46.64,0,1.13-.23,1.47-.68s.51-1.02.51-1.71-.16-1.25-.47-1.71c-.32-.46-.81-.7-1.48-.7-.32,0-.59.04-.82.12-.41.15-.71.42-.92.81l-2.33-.11.93-7.31h7.28v2.21h-5.41l-.47,2.89c.4-.26.71-.43.94-.52.38-.14.84-.21,1.38-.21,1.09,0,2.05.37,2.86,1.1.81.74,1.22,1.81,1.22,3.21,0,1.22-.39,2.32-1.18,3.28-.78.96-1.96,1.44-3.52,1.44-1.26,0-2.29-.34-3.1-1.01-.81-.68-1.26-1.63-1.35-2.88h2.59Z"/></g></svg>