<svg width="110" height="22" viewBox="0 0 110 22" fill="none" xmlns="http://www.w3.org/2000/svg">
<g clip-path="url(#clip0_308_90)">
<path d="M62.459 19.4026C66.4947 18.7404 69.5344 18.1039 75.2828 16.7302C75.4872 16.6785 75.4872 16.6293 75.2569 16.6035C72.7268 16.4508 70.5822 16.2982 69.074 16.1714C68.7169 16.1456 68.6911 16.0188 68.8437 15.8144C69.2525 15.3048 69.6871 15.2039 70.7607 15.2039C71.7567 15.2039 74.2609 15.2298 76.7884 15.2556C81.7943 15.2815 86.7252 14.0087 92.8823 11.9701C92.9599 11.9443 92.934 11.8925 92.8564 11.8925C84.2468 12.0969 73.8004 12.1978 72.1137 12.1978C71.8576 12.1978 71.8835 12.0193 72.062 11.8149C72.4448 11.357 72.8795 11.1268 74.3101 11.0259C76.3021 10.8732 93.291 10.0583 96.0747 9.95743C99.3705 9.83067 101.388 9.32102 104.097 7.25917C104.889 6.67451 105.936 5.78198 106.881 4.84031C107.033 4.68768 107.033 4.58678 106.754 4.61007C101.593 5.06797 75.3087 7.5127 74.0824 7.66533C71.8343 7.94473 70.8124 8.55527 69.9691 9.87982C67.1854 14.2079 65.9592 16.3215 62.3322 19.1983C62.1796 19.325 62.1796 19.4518 62.459 19.4026ZM55.0006 20.396C54.9488 20.396 54.8738 20.396 54.7445 20.3184C49.7127 17.3149 44.5775 12.679 43.5297 7.28245C43.1727 5.24647 43.9385 4.86359 45.2165 4.40569C47.5163 3.56491 52.8042 1.93509 55.0006 1.93509C57.197 1.93509 62.4848 3.56491 64.7847 4.40569C66.0627 4.86359 66.8284 5.24647 66.4714 7.28245C65.4237 12.6816 60.2884 17.3149 55.2567 20.3184C55.1299 20.396 55.0523 20.396 55.0006 20.396ZM47.5422 19.4026C47.8242 19.4544 47.8242 19.325 47.669 19.1983C44.042 16.3215 42.8157 14.2079 40.0321 9.87982C39.1887 8.55527 38.1669 7.94473 35.9187 7.66533C34.6925 7.5127 8.40581 5.06797 3.24729 4.61007C2.96531 4.5842 2.96531 4.68768 3.12053 4.84031C4.06479 5.78198 5.11253 6.67451 5.90416 7.25917C8.61277 9.32102 10.6306 9.83067 13.9265 9.95743C16.7101 10.0583 33.6991 10.8732 35.6911 11.0259C37.1217 11.1268 37.5563 11.357 37.9392 11.8149C38.1177 12.0193 38.1436 12.1978 37.8875 12.1978C36.2007 12.1978 25.7543 12.0969 17.1447 11.8925C17.0671 11.8925 17.0439 11.9443 17.1189 11.9701C23.276 14.0061 28.2068 15.2815 33.2127 15.2556C35.7428 15.2298 38.2445 15.2039 39.2405 15.2039C40.3141 15.2039 40.7487 15.3048 41.1574 15.8144C41.3101 16.0188 41.2842 16.1456 40.9272 16.1714C39.419 16.2982 37.2743 16.4508 34.7442 16.6035C34.514 16.6293 34.514 16.6811 34.7184 16.7302C40.4667 18.1039 43.5065 18.7429 47.5422 19.4026ZM55.0006 22C55.0782 22 55.205 21.9741 55.3058 21.9224C61.4888 18.8412 64.3733 16.0162 68.0029 10.1592C69.3559 7.91886 70.1243 6.77281 73.4176 6.28904C78.5787 5.55174 101.875 3.92192 106.474 3.28551C108.441 3.00611 108.979 2.70085 109.897 1.7333C110.05 1.58067 110.05 1.4539 109.77 1.47977C109.183 1.53151 85.9361 2.52493 71.9895 3.03198C68.5669 3.21049 67.545 3.13288 64.6838 2.1912C60.4411 0.889934 56.6097 0 55.0006 0C53.3915 0 49.5601 0.889934 45.32 2.18862C42.4587 3.13029 41.4368 3.2079 38.0142 3.0294C24.065 2.51976 0.818083 1.52893 0.23083 1.47719C-0.0511552 1.45132 -0.0511552 1.57808 0.104066 1.73071C1.02246 2.69826 1.56056 3.00353 3.52669 3.28293C8.12382 3.91933 31.4225 5.54915 36.5836 6.28645C39.8795 6.77023 40.6452 7.91627 41.9982 10.1566C45.6252 16.0136 48.5123 18.8387 54.6953 21.9198C54.7962 21.9715 54.9256 21.9974 55.0006 21.9974V22Z" fill="white"/>
<path d="M63.1879 7.79991C62.8309 7.61106 62.4532 7.50758 62.4532 7.18162C62.4532 7.02122 62.6084 6.88928 62.9111 6.88928C63.2138 6.88928 63.519 7.00053 63.7752 7.11177L63.8554 6.67974C63.6122 6.59695 63.3017 6.5271 62.9577 6.5271C62.21 6.5271 61.7961 6.86083 61.7961 7.31873C61.7961 7.77663 62.1195 8.00688 62.5644 8.21643C62.9551 8.39752 63.2836 8.51652 63.2836 8.80109C63.2836 9.01581 63.1155 9.15551 62.7843 9.15551C62.4739 9.15551 62.1427 9.04427 61.8866 8.93303L61.8401 9.43232C61.9617 9.46595 62.4403 9.55133 62.805 9.55133C63.4052 9.55133 63.9459 9.25899 63.9459 8.73124C63.9459 8.20349 63.5656 8.0017 63.1879 7.79991ZM51.2566 6.95913L51.1557 6.59178H49.0912L49.024 6.76511L49.1533 6.8272C49.2413 6.86859 49.262 6.9255 49.262 7.02122V9.48924H51.2592V9.11412H49.9036V8.16986H51.0781V7.80768H49.9036V6.95913H51.2592H51.2566ZM59.0306 7.79991C58.6736 7.61106 58.2958 7.50758 58.2958 7.18162C58.2958 7.02122 58.4511 6.88928 58.7538 6.88928C59.0564 6.88928 59.3617 7.00053 59.6178 7.11177L59.698 6.67974C59.4548 6.59695 59.1444 6.5271 58.8003 6.5271C58.0527 6.5271 57.6646 6.86083 57.6646 7.31873C57.6646 7.77663 57.9647 8.00688 58.4097 8.21643C58.8003 8.39752 59.1289 8.51652 59.1289 8.80109C59.1289 9.01581 58.9607 9.15551 58.6296 9.15551C58.3191 9.15551 57.988 9.04427 57.7319 8.93303L57.6853 9.43232C57.8069 9.46595 58.2855 9.55133 58.6503 9.55133C59.2505 9.55133 59.7911 9.25899 59.7911 8.73124C59.7911 8.20349 59.4109 8.0017 59.0331 7.79991H59.0306ZM60.2284 6.76511L60.3577 6.8272C60.4534 6.87635 60.4715 6.9255 60.4715 7.02122V9.48924H61.1131V6.59178H60.3034L60.2284 6.76511ZM57.2119 6.95913L57.111 6.59178H55.0466L54.9793 6.76511L55.1086 6.8272C55.1966 6.86859 55.2173 6.9255 55.2173 7.02122V9.48924H57.2145V9.11412H55.8589V8.16986H57.0334V7.80768H55.8589V6.95913H57.2145H57.2119ZM53.9445 8.55791L52.3871 6.59178H51.774L51.699 6.76511L51.8283 6.8272C51.924 6.87635 51.9421 6.9255 51.9421 7.01605V9.48924H52.4V7.61365L53.8902 9.48924H54.4024V6.59178H53.9445V8.55791ZM47.5442 8.11294L47.8288 8.23195C47.909 8.26558 47.9426 8.30956 47.9426 8.40528V9.05203C47.821 9.11412 47.658 9.17103 47.4769 9.16327C46.9233 9.14258 46.5197 8.69761 46.5197 8.05086C46.5197 7.4041 46.8845 6.89705 47.5106 6.89705C47.6658 6.89705 48.0099 6.93068 48.3669 7.22301L48.4962 6.74959C48.072 6.56849 47.821 6.5271 47.4976 6.51417C46.5999 6.49347 45.8523 6.99277 45.8523 8.05603C45.8523 9.00805 46.5197 9.55133 47.3967 9.55133C48.0435 9.55133 48.4367 9.3366 48.5299 9.25899V7.94479H47.6115L47.5442 8.11036V8.11294Z" fill="white"/>
</g>
<defs>
<clipPath id="clip0_308_90">
<rect width="110" height="22" fill="white"/>
</clipPath>
</defs>
</svg>
