<svg width="101" height="16" viewBox="0 0 101 16" fill="none" xmlns="http://www.w3.org/2000/svg">
<g clip-path="url(#clip0_308_66)">
<path fill-rule="evenodd" clip-rule="evenodd" d="M29.1598 6.36366H21.4436V0.399536H18.4468V15.6958H21.4436V9.14168H29.1598V15.6958H32.1791V0.399536H29.1598V6.36366Z" fill="white"/>
<path fill-rule="evenodd" clip-rule="evenodd" d="M92.6152 12.8393V0.399536H89.5784V15.6958H100.594V12.8393H92.6152Z" fill="white"/>
<path fill-rule="evenodd" clip-rule="evenodd" d="M65.7067 9.99054L58.805 0.399536H54.9614V15.6958H57.8744V3.92011L66.1541 15.6958H68.6679V0.399536H65.7067V9.99054Z" fill="white"/>
<path fill-rule="evenodd" clip-rule="evenodd" d="M76.9718 9.12931H83.8853V6.54265H76.9718V2.98937H84.7796V0.40271H73.9644V15.6957H85.4534V13.0334H76.9718V9.12931Z" fill="white"/>
<path fill-rule="evenodd" clip-rule="evenodd" d="M41.5328 0.399536L34.6462 15.6954H37.9926L39.6106 12.1147H47.3461L48.9641 15.6954H52.31L45.3764 0.399536H41.5328ZM40.769 9.43158L43.4628 3.13053L46.2797 9.43158H40.769Z" fill="white"/>
<path fill-rule="evenodd" clip-rule="evenodd" d="M8.13821 13.1075C5.39371 13.1075 3.16892 10.821 3.16892 8C3.16892 5.17904 5.39371 2.89251 8.13821 2.89251C9.99254 2.89251 11.6073 3.93846 12.4606 5.48531L14.8416 3.86936C13.4407 1.55339 10.9048 0 8.00082 0C3.5815 0 0 3.58191 0 8C0 12.4181 3.5815 16 8.00082 16C10.9939 16 13.6002 14.3526 14.972 11.9176L12.5759 10.291C11.7577 11.9597 10.0809 13.1071 8.13861 13.1071L8.13821 13.1075Z" fill="white"/>
</g>
<defs>
<clipPath id="clip0_308_66">
<rect width="100.594" height="16" fill="white"/>
</clipPath>
</defs>
</svg>
