<svg width="181" height="22" viewBox="0 0 181 22" fill="none" xmlns="http://www.w3.org/2000/svg">
<g clip-path="url(#clip0_308_73)">
<path d="M77.8071 8.6145H83.9343C85.4411 8.6145 86.6293 9.02966 87.3809 9.78483C87.9858 10.3861 88.2864 11.1234 88.2864 12.0289V12.0682C88.2864 13.5571 87.4919 14.3838 86.5506 14.9135C88.0752 15.4969 89.0201 16.3845 89.0201 18.1596V18.1954C89.0201 20.6077 87.0588 21.8138 84.0811 21.8138H77.8071V8.6145ZM83.3116 13.9472C84.5929 13.9472 85.4017 13.532 85.4017 12.5514V12.512C85.4017 11.6423 84.7253 11.1556 83.4977 11.1556H80.6309V13.9472H83.308H83.3116ZM84.0847 19.2656C85.3659 19.2656 86.139 18.811 86.139 17.834V17.7946C86.139 16.907 85.4805 16.3594 83.9916 16.3594H80.6381V19.2656H84.0847Z" fill="white"/>
<path d="M90.5732 18.2492V11.7068H93.44V17.3437C93.44 18.7037 94.0806 19.398 95.1722 19.398C96.2638 19.398 96.9653 18.7001 96.9653 17.3437V11.7068H99.8321V21.8103H96.9653V20.3787C96.3032 21.2269 95.455 21.9999 94.0055 21.9999C91.8366 21.9999 90.5732 20.5683 90.5732 18.2492Z" fill="white"/>
<path d="M101.131 20.4717L102.359 18.5892C103.451 19.3801 104.603 19.7953 105.544 19.7953C106.375 19.7953 106.75 19.4946 106.75 19.0401V19.0043C106.75 18.3816 105.77 18.174 104.657 17.834C103.243 17.4188 101.643 16.7567 101.643 14.799V14.7632C101.643 12.7089 103.3 11.5565 105.337 11.5565C106.618 11.5565 108.014 11.9895 109.105 12.7268L108.014 14.706C107.015 14.1226 106.017 13.7647 105.279 13.7647C104.581 13.7647 104.224 14.0653 104.224 14.4626V14.4984C104.224 15.0639 105.186 15.3287 106.278 15.7045C107.692 16.1769 109.331 16.8533 109.331 18.7037V18.7431C109.331 20.9871 107.652 22.0035 105.469 22.0035C104.055 22.0035 102.473 21.5311 101.131 20.4753V20.4717Z" fill="white"/>
<path d="M110.311 18.9077V18.8719C110.311 16.6637 111.99 15.6472 114.381 15.6472C115.397 15.6472 116.134 15.819 116.85 16.0624V15.8942C116.85 14.706 116.117 14.0474 114.681 14.0474C113.59 14.0474 112.817 14.255 111.893 14.595L111.178 12.4083C112.291 11.9179 113.382 11.5958 115.097 11.5958C116.661 11.5958 117.792 12.011 118.507 12.7268C119.262 13.4819 119.599 14.5914 119.599 15.9479V21.8102H116.829V20.7186C116.131 21.4917 115.172 21.9999 113.776 21.9999C111.872 21.9999 110.308 20.9048 110.308 18.9077H110.311ZM116.89 18.2492V17.7409C116.399 17.5119 115.759 17.3616 115.061 17.3616C113.837 17.3616 113.082 17.8519 113.082 18.7574V18.7967C113.082 19.5698 113.722 20.0207 114.646 20.0207C115.984 20.0207 116.89 19.2871 116.89 18.2492Z" fill="white"/>
<path d="M121.607 11.7068H124.473V13.1384C125.132 12.2901 125.98 11.5171 127.433 11.5171C129.602 11.5171 130.866 12.9523 130.866 15.2714V21.8138H127.999V16.1769C127.999 14.8205 127.358 14.1226 126.263 14.1226C125.168 14.1226 124.473 14.8205 124.473 16.1769V21.8138H121.607V11.7104V11.7068Z" fill="white"/>
<path d="M136.105 8.6145H142.232C143.739 8.6145 144.927 9.02966 145.679 9.78483C146.284 10.3861 146.584 11.1234 146.584 12.0289V12.0682C146.584 13.5571 145.793 14.3838 144.849 14.9135C146.377 15.4969 147.318 16.3845 147.318 18.1596V18.1954C147.318 20.6077 145.357 21.8138 142.379 21.8138H136.102V8.6145H136.105ZM141.61 13.9472C142.891 13.9472 143.7 13.532 143.7 12.5514V12.512C143.7 11.6423 143.023 11.1556 141.796 11.1556H138.929V13.9472H141.606H141.61ZM142.383 19.2656C143.664 19.2656 144.437 18.811 144.437 17.834V17.7946C144.437 16.907 143.778 16.3594 142.29 16.3594H138.936V19.2656H142.386H142.383Z" fill="white"/>
<path d="M148.342 18.9077V18.8719C148.342 16.6637 150.02 15.6472 152.411 15.6472C153.427 15.6472 154.165 15.819 154.881 16.0624V15.8942C154.881 14.706 154.147 14.0474 152.712 14.0474C151.62 14.0474 150.847 14.255 149.924 14.595L149.208 12.4083C150.321 11.9179 151.412 11.5958 153.127 11.5958C154.691 11.5958 155.822 12.011 156.538 12.7268C157.293 13.4819 157.629 14.5914 157.629 15.9479V21.8102H154.859V20.7186C154.161 21.4917 153.202 21.9999 151.806 21.9999C149.902 21.9999 148.338 20.9048 148.338 18.9077H148.342ZM154.92 18.2492V17.7409C154.43 17.5119 153.789 17.3616 153.091 17.3616C151.867 17.3616 151.112 17.8519 151.112 18.7574V18.7967C151.112 19.5698 151.752 20.0207 152.676 20.0207C154.014 20.0207 154.92 19.2871 154.92 18.2492Z" fill="white"/>
<path d="M159.637 11.7068H162.504V13.1384C163.162 12.2901 164.01 11.5171 165.464 11.5171C167.632 11.5171 168.896 12.9523 168.896 15.2714V21.8138H166.029V16.1769C166.029 14.8205 165.388 14.1226 164.293 14.1226C163.198 14.1226 162.504 14.8205 162.504 16.1769V21.8138H159.637V11.7104V11.7068Z" fill="white"/>
<path d="M170.911 8.04907H173.777V15.3824L177.134 11.7068H180.563L176.719 15.683L180.696 21.8103H177.417L174.776 17.6837L173.777 18.7395V21.8103H170.911V8.04907Z" fill="white"/>
<path d="M66.8517 3.89393H68.6806C68.8023 3.89393 68.8989 3.79014 68.8989 3.67204V0.218318C68.8989 0.0966325 68.7987 0 68.6806 0H66.1073C63.1332 0 61.5513 0.952009 60.6494 2.97771L55.0483 16.6924C54.7083 17.5084 54.2215 17.9021 53.2552 17.9021V0.218318C53.2552 0.0966325 53.1586 0 53.0404 0H48.9246C48.8029 0 48.7063 0.0966325 48.7063 0.218318V21.4095C48.7063 21.6206 48.8745 21.7924 49.0893 21.7924H53.7061C56.6874 21.7924 58.0439 20.8404 58.9458 18.8183L64.4753 5.27184C64.9155 4.30909 65.5526 3.89393 66.8553 3.89393H66.8517Z" fill="white"/>
<path d="M16.5635 10.8944C18.2134 10.2073 19.5806 8.67187 19.5806 6.10932C19.5806 2.31202 16.3166 0 12.3797 0H0.218318C0.0966325 0 0 0.0966325 0 0.218318V3.67204C0 3.79014 0.0966325 3.89393 0.218318 3.89393H11.5351C13.3639 3.89393 14.5987 5.007 14.5987 6.3849C14.5987 7.76281 13.3639 8.8723 11.5351 8.8723H4.81373V6.30617C4.81373 6.18448 4.71352 6.09143 4.59899 6.09143H0.218318C0.0966325 6.09143 0 6.18448 0 6.30617V21.5777C0 21.6994 0.0966325 21.7924 0.218318 21.7924H12.2043C16.6852 21.7924 19.8956 19.7023 19.8956 15.4433C19.8956 13.346 18.6608 11.6174 16.5671 10.898L16.5635 10.8944ZM11.7713 17.9915H4.81373V12.8843H11.7713C13.6467 12.8843 14.9136 14.026 14.9136 15.4397C14.9136 16.8534 13.6467 17.9915 11.7713 17.9915Z" fill="white"/>
<path d="M71.1108 21.5419L64.0567 12.5157C64.0352 12.4907 64.0065 12.4978 63.9922 12.5265L62.0882 17.172C62.0811 17.2006 62.0811 17.2328 62.0989 17.2579L65.184 21.388C65.3988 21.6815 65.6493 21.7925 66.0179 21.7925H70.9891C71.1323 21.7925 71.1931 21.6565 71.1072 21.5455L71.1108 21.5419Z" fill="white"/>
<path d="M27.6191 6.08789H23.4997C23.3815 6.08789 23.2849 6.18094 23.2849 6.30263V21.5741C23.2849 21.6958 23.3815 21.7889 23.4997 21.7889H27.6191C27.7407 21.7889 27.8374 21.6922 27.8374 21.5741V6.30263C27.8374 6.18094 27.7372 6.08789 27.6191 6.08789Z" fill="white"/>
<path d="M44.562 3.89423e-05H40.4461C40.328 3.89423e-05 40.2314 0.0966714 40.2314 0.218357V17.8985C39.2615 17.8985 38.7783 17.5084 38.4383 16.6888L32.8372 2.97417C31.9353 0.948469 30.357 -0.00354004 27.3828 -0.00354004H23.4997C23.3815 -0.00354004 23.2849 0.0930925 23.2849 0.214778V3.6685C23.2849 3.7866 23.3815 3.89039 23.4997 3.89039H26.6348C27.934 3.89039 28.5711 4.30555 29.0184 5.2683L34.5444 18.8147C35.4463 20.8369 36.8099 21.7889 39.7876 21.7889H44.3973C44.6085 21.7889 44.7803 21.6171 44.7803 21.4059V0.218357C44.7803 0.0966714 44.6836 3.89423e-05 44.562 3.89423e-05Z" fill="white"/>
</g>
<defs>
<clipPath id="clip0_308_73">
<rect width="180.692" height="22" fill="white"/>
</clipPath>
</defs>
</svg>
