<svg width="101" height="22" viewBox="0 0 101 22" fill="none" xmlns="http://www.w3.org/2000/svg">
<g clip-path="url(#clip0_308_96)">
<path d="M49.2679 6.97387H54.2156V3.51636H48.9608C46.7647 3.51636 44.83 4.62093 43.6797 6.30721V3.51636H39.7385V16.2876H43.6797V13.4902C44.83 15.1765 46.7647 16.2876 48.9608 16.2876H54.1503V12.8301H49.2679C47.647 12.8301 46.3398 11.5164 46.3398 9.90198C46.3398 8.2876 47.6536 6.97387 49.2679 6.97387Z" fill="white"/>
<path d="M65.8365 3.51636V8.02616H59.379V3.51636H55.4443V16.2941H59.379V11.4837H65.8365V16.2941H69.7711V3.51636H65.8365Z" fill="white"/>
<path d="M95.928 6.97387C96.5881 6.97387 97.1306 7.50982 97.1306 8.17649C97.1306 8.84316 96.5946 9.3791 95.928 9.3791H86.6012V16.2941H90.5424V12.8366H95.928C98.5031 12.8366 100.588 10.7517 100.588 8.17649C100.588 5.60132 98.5031 3.51636 95.928 3.51636H86.5554V6.97387H95.928Z" fill="white"/>
<path d="M71.1567 16.2941H75.0979V8.26146C77.7646 10.5164 79.66 13.2353 81.3986 16.2876H85.3332V3.51636H81.392V9.71897C79.5031 7.32681 77.6273 5.22878 75.0914 3.51636H71.1567V16.2941Z" fill="white"/>
<path d="M17.3921 20.098C19.1503 21.2941 21.281 21.9935 23.5686 21.9935C29.6405 21.9935 34.5686 17.0654 34.5686 10.9935C34.5686 9.69934 34.3463 8.46405 33.9346 7.31372L17.3921 20.098Z" fill="white"/>
<path d="M11.0065 0C4.9281 0 0 4.92157 0 11C0 12.2941 0.228758 13.5294 0.633987 14.6863L17.1765 1.89542C15.4183 0.699346 13.2941 0 11.0065 0Z" fill="white"/>
<path d="M17.2876 8.89538L28.7844 1.31368C28.3334 1.06532 27.8563 0.849633 27.3595 0.666626L17.2811 8.57512L2.77783 18.3006C3.09156 18.6536 3.42489 18.9804 3.7713 19.2875L17.2811 8.89538H17.2876Z" fill="white"/>
<path d="M17.2876 11.1569L30.4314 2.40526C30.0588 2.10461 29.6536 1.8301 29.2418 1.5752L17.2876 10.8366L4.1438 19.5948C4.51635 19.8955 4.92158 20.1765 5.32681 20.4249L17.2876 11.1569Z" fill="white"/>
<path d="M17.2877 13.4053L31.791 3.69286C31.4772 3.33992 31.1439 3.01312 30.7975 2.70593L17.2877 13.0916L5.78442 20.6798C6.24194 20.9282 6.71906 21.1438 7.2158 21.3203L17.2877 13.4053Z" fill="white"/>
<path d="M17.2875 6.64051L26.7777 0.477107C26.2221 0.307173 25.6339 0.176454 25.0391 0.0980225L17.2875 6.32678L1.6731 16.8366C1.92146 17.2287 2.19597 17.6013 2.48355 17.9608L17.2875 6.64051Z" fill="white"/>
<path d="M17.2876 4.38562L24.2026 0.0196078C23.9935 0.00653595 23.7778 0 23.5686 0C22.8889 0 22.2288 0.0588235 21.5882 0.176471L17.2811 4.0719L0.830078 15.1895C1.01308 15.6209 1.2157 16.0392 1.44446 16.451L17.2876 4.38562Z" fill="white"/>
<path d="M17.2877 15.6667L32.889 5.16343C32.6406 4.77128 32.3792 4.39219 32.0785 4.03271L17.2812 15.353L7.78442 21.5164C8.34652 21.6863 8.92821 21.817 9.52952 21.8955L17.2812 15.6667H17.2877Z" fill="white"/>
<path d="M17.2875 17.9216L33.7385 6.81051C33.562 6.3726 33.3594 5.9543 33.1241 5.54907L17.2875 17.6079L10.366 21.9804C10.5751 21.9935 10.7843 22.0001 11.0065 22.0001C11.6862 22.0001 12.3464 21.9347 12.9934 21.817L17.2875 17.9216Z" fill="white"/>
<path d="M39.7385 17.7974H40.2548V18.5882L40.8365 17.7974H41.464L40.745 18.6993L41.5162 19.7385H40.8561L40.2483 18.8562V19.7385H39.7319V17.7908L39.7385 17.7974Z" fill="white"/>
<path d="M41.9215 18.7712C41.9215 18.4379 42.0457 18.1503 42.3659 18.1503C42.6862 18.1503 42.7973 18.4379 42.7973 18.7712C42.7973 19.1046 42.6797 19.3922 42.3659 19.3922C42.0522 19.3922 41.9215 19.0915 41.9215 18.7712ZM41.3921 18.7712C41.3921 19.3922 41.732 19.7778 42.3725 19.7778C43.013 19.7778 43.3398 19.3922 43.3398 18.7712C43.3398 18.1503 43.0065 17.7647 42.3725 17.7647C41.7385 17.7647 41.3921 18.1438 41.3921 18.7712Z" fill="white"/>
<path d="M44.1305 18.1699H44.2678C44.4639 18.1699 44.6469 18.1961 44.6469 18.3856C44.6469 18.6013 44.4377 18.6144 44.2678 18.6144H44.1305V18.1699ZM43.6142 19.7451H44.1305V18.9738H44.2417C44.4312 18.9738 44.5031 19.0588 44.6077 19.3921L44.7188 19.7451H45.2613L45.0652 19.2157C44.9671 18.9738 44.9606 18.83 44.7907 18.7843C45.039 18.7189 45.1632 18.549 45.1632 18.2876C45.1632 17.9542 44.8822 17.7974 44.5358 17.7974H43.6077V19.7451H43.6142Z" fill="white"/>
<path d="M45.4705 17.7974H46.843V18.1634H45.9868V18.5621H46.7907V18.9281H45.9868V19.3725H46.8692V19.7385H45.4705V17.7908V17.7974Z" fill="white"/>
<path d="M48.3136 18.9608H47.8235L48.0784 18.1961L48.3136 18.9608ZM47.0261 19.7451H47.5555L47.7058 19.3268H48.4313L48.5751 19.7451H49.1437L48.3921 17.7974H47.7581L47.0195 19.7451H47.0261Z" fill="white"/>
<path d="M50.2026 17.7974H50.719V18.5359H51.3334V17.7974H51.8497V19.7451H51.3334V18.9085H50.719V19.7451H50.2026V17.7974Z" fill="white"/>
<path d="M52.719 19.0065L52 17.7974H52.5948L52.9804 18.5751L53.3529 17.7974H53.9543L53.2418 19.0065V19.7385H52.7255V19.0065H52.719Z" fill="white"/>
<path d="M54.6274 18.183H54.83C55.2091 18.183 55.4313 18.3791 55.4313 18.7713C55.4313 19.1634 55.2157 19.3595 54.83 19.3595H54.6274V18.1896V18.183ZM54.1111 19.7451H54.817C55.4771 19.7451 55.9673 19.4902 55.9673 18.7647C55.9673 18.0392 55.4967 17.804 54.817 17.804H54.1111V19.7517V19.7451Z" fill="white"/>
<path d="M56.7712 18.1699H56.9085C57.1046 18.1699 57.2876 18.1961 57.2876 18.3856C57.2876 18.6013 57.0784 18.6144 56.9085 18.6144H56.7712V18.1699ZM56.2549 19.7451H56.7712V18.9738H56.8823C57.0784 18.9738 57.1438 19.0588 57.2483 19.3921L57.3595 19.7451H57.9019L57.7124 19.2157C57.6144 18.9738 57.6013 18.83 57.4379 18.7843C57.6863 18.7189 57.8104 18.549 57.8104 18.2876C57.8104 17.9542 57.5294 17.7974 57.183 17.7974H56.2614V19.7451H56.2549Z" fill="white"/>
<path d="M58.5294 18.7712C58.5294 18.4379 58.6601 18.1503 58.9738 18.1503C59.2875 18.1503 59.4117 18.4379 59.4117 18.7712C59.4117 19.1046 59.2875 19.3922 58.9738 19.3922C58.6601 19.3922 58.5294 19.0915 58.5294 18.7712ZM57.9934 18.7712C57.9934 19.3922 58.3333 19.7778 58.9738 19.7778C59.6143 19.7778 59.9411 19.3922 59.9411 18.7712C59.9411 18.1503 59.6143 17.7647 58.9738 17.7647C58.3333 17.7647 57.9934 18.1438 57.9934 18.7712Z" fill="white"/>
<path d="M61.5032 19.1765C61.5032 19.0392 61.5686 18.9673 61.6732 18.9085C61.8235 19.0457 61.9738 19.183 62.1046 19.3399C62.0065 19.4118 61.9281 19.4444 61.8104 19.4444C61.6536 19.4444 61.4967 19.3464 61.4967 19.1765H61.5032ZM62.5425 18.6993C62.5359 18.8235 62.5032 18.9477 62.4183 19.0523C62.3072 18.9412 62.1961 18.8431 62.0849 18.7451C62.2876 18.6274 62.4967 18.5033 62.4967 18.2549C62.4967 17.8954 62.1634 17.7778 61.8235 17.7778C61.5163 17.7778 61.1764 17.902 61.1764 18.2418C61.1764 18.4118 61.2549 18.549 61.4117 18.6732C61.1699 18.7843 61.0261 18.9281 61.0261 19.1961C61.0261 19.5948 61.3921 19.7843 61.7647 19.7843C61.9804 19.7843 62.2026 19.7451 62.366 19.6013C62.4117 19.6471 62.4444 19.6928 62.4836 19.7516H63.0392L62.6928 19.366C62.8758 19.1895 62.9804 18.9477 62.9934 18.6993H62.5425ZM61.6209 18.2614C61.6209 18.1569 61.7059 18.0915 61.83 18.0915C61.9542 18.0915 62.0457 18.1438 62.0457 18.2614C62.0457 18.3856 61.9019 18.464 61.8104 18.5229C61.732 18.464 61.6209 18.3725 61.6209 18.2614Z" fill="white"/>
<path d="M64.1111 17.7974H64.7778L65.4313 19.1111H65.4379V17.7974H65.9019V19.7451H65.2614L64.5882 18.4183H64.5817L64.5947 19.7451H64.1176V17.7974H64.1111Z" fill="white"/>
<path d="M67.9476 19.0066C67.9476 19.5425 67.6012 19.7778 67.098 19.7778C66.5947 19.7778 66.2483 19.536 66.2483 19.0066V17.804H66.7646V18.9216C66.7646 19.1765 66.8365 19.3987 67.098 19.3987C67.3594 19.3987 67.4313 19.1765 67.4313 18.9216V17.804H67.9476V19.0066Z" fill="white"/>
<path d="M69.843 19.6993C69.6992 19.732 69.5358 19.7778 69.2678 19.7778C68.7515 19.7778 68.1501 19.5163 68.1501 18.7778C68.1501 18.1046 68.6273 17.7647 69.2678 17.7647C69.4704 17.7647 69.66 17.8105 69.843 17.8693L69.8037 18.2876C69.6338 18.1961 69.4769 18.1503 69.3005 18.1503C68.9345 18.1503 68.6926 18.4248 68.6926 18.7778C68.6926 19.1569 68.9606 19.3922 69.3462 19.3922C69.5162 19.3922 69.6861 19.3464 69.8234 19.2876L69.8495 19.6928L69.843 19.6993Z" fill="white"/>
<path d="M70.085 17.7974H70.6013V19.3529H71.3987V19.7385H70.085V17.7908V17.7974Z" fill="white"/>
<path d="M71.6143 17.7974H72.9803V18.1634H72.1306V18.5621H72.9345V18.9281H72.1306V19.3725H73.013V19.7385H71.6143V17.7908V17.7974Z" fill="white"/>
<path d="M74.4575 18.9608H73.9738L74.2287 18.1961H74.2353L74.464 18.9608H74.4575ZM73.1699 19.7451H73.6993L73.8497 19.3268H74.5817L74.7255 19.7451H75.2941L74.549 17.7974H73.915L73.1765 19.7451H73.1699Z" fill="white"/>
<path d="M75.9999 18.1699H76.1372C76.3333 18.1699 76.5163 18.1961 76.5163 18.3856C76.5163 18.6013 76.3071 18.6144 76.1372 18.6144H75.9999V18.1699ZM75.4771 19.7451H75.9999V18.9738H76.1045C76.294 18.9738 76.3594 19.0588 76.4705 19.3921L76.5816 19.7451H77.1176L76.928 19.2157C76.83 18.9738 76.8169 18.83 76.6535 18.7843C76.9019 18.7189 77.0261 18.549 77.0261 18.2876C77.0261 17.9542 76.745 17.7974 76.3986 17.7974H75.4771V19.7451Z" fill="white"/>
<path d="M78.6928 18.1699H78.8235C79 18.1699 79.1438 18.2287 79.1438 18.4314C79.1438 18.634 79 18.6993 78.8235 18.6993H78.6928V18.1699ZM78.1699 19.7451H78.6928V19.0653H78.8889C79.3725 19.0653 79.6601 18.83 79.6601 18.4379C79.6601 18 79.3856 17.7974 78.7908 17.7974H78.1699V19.7451Z" fill="white"/>
<path d="M80.366 18.7712C80.366 18.4379 80.4902 18.1503 80.8105 18.1503C81.1307 18.1503 81.2418 18.4379 81.2418 18.7712C81.2418 19.1046 81.1242 19.3922 80.8105 19.3922C80.4967 19.3922 80.366 19.0915 80.366 18.7712ZM79.8301 18.7712C79.8301 19.3922 80.1699 19.7778 80.8105 19.7778C81.451 19.7778 81.7843 19.3922 81.7843 18.7712C81.7843 18.1503 81.451 17.7647 80.8105 17.7647C80.1699 17.7647 79.8301 18.1438 79.8301 18.7712Z" fill="white"/>
<path d="M81.8496 17.7974H82.379L82.6273 19.2876L82.8822 17.7974H83.5424L83.8169 19.2876L84.0718 17.7974H84.575L84.1437 19.7451H83.477L83.2025 18.2549L82.9476 19.7451H82.2744L81.843 17.7974H81.8496Z" fill="white"/>
<path d="M84.7778 17.7974H86.1438V18.1634H85.2876V18.5621H86.0915V18.9281H85.2876V19.3725H86.1699V19.7385H84.7712V17.7908L84.7778 17.7974Z" fill="white"/>
<path d="M87 18.1699H87.1372C87.3333 18.1699 87.5163 18.1961 87.5163 18.3856C87.5163 18.6013 87.3072 18.6144 87.1372 18.6144H87V18.1699ZM86.4836 19.7451H87V18.9738H87.1046C87.3006 18.9738 87.366 19.0588 87.4771 19.3921L87.5882 19.7451H88.1307L87.9412 19.2157C87.8431 18.9738 87.83 18.83 87.6666 18.7843C87.915 18.7189 88.0392 18.549 88.0392 18.2876C88.0392 17.9542 87.7582 17.7974 87.4117 17.7974H86.4902V19.7451H86.4836Z" fill="white"/>
<path d="M90.8234 19.6993C90.6796 19.732 90.5097 19.7778 90.2483 19.7778C89.7319 19.7778 89.1306 19.5163 89.1306 18.7778C89.1306 18.1046 89.6012 17.7647 90.2417 17.7647C90.4378 17.7647 90.6273 17.8105 90.8169 17.8693L90.7777 18.2876C90.6077 18.1961 90.4509 18.1503 90.2744 18.1503C89.9084 18.1503 89.6666 18.4248 89.6666 18.7778C89.6666 19.1569 89.9345 19.3922 90.3136 19.3922C90.4836 19.3922 90.66 19.3464 90.7973 19.2876L90.8234 19.6928V19.6993Z" fill="white"/>
<path d="M91.5228 18.7712C91.5228 18.4379 91.6469 18.1503 91.9607 18.1503C92.2744 18.1503 92.3986 18.4379 92.3986 18.7712C92.3986 19.1046 92.2744 19.3922 91.9607 19.3922C91.6469 19.3922 91.5228 19.0915 91.5228 18.7712ZM90.9868 18.7712C90.9868 19.3922 91.3267 19.7778 91.9607 19.7778C92.5947 19.7778 92.9345 19.3922 92.9345 18.7712C92.9345 18.1503 92.6012 17.7647 91.9607 17.7647C91.3201 17.7647 90.9868 18.1438 90.9868 18.7712Z" fill="white"/>
<path d="M93.124 19.2876H93.5881V19.7451H93.124V19.2876Z" fill="white"/>
<path d="M93.9737 19.2876H94.4378L94.1633 20.0458H93.7842L93.9737 19.2876Z" fill="white"/>
<path d="M95.3137 17.7974H95.8366V19.3529H96.6405V19.7385H95.3203V17.7908L95.3137 17.7974Z" fill="white"/>
<path d="M96.8888 18.183H96.4116V17.7974H97.8888V18.183H97.4051V19.7451H96.8888V18.183Z" fill="white"/>
<path d="M98.6208 18.183H98.8234C99.2025 18.183 99.4247 18.3791 99.4247 18.7713C99.4247 19.1634 99.2025 19.3595 98.8234 19.3595H98.6208V18.1896V18.183ZM98.1045 19.7451H98.8104C99.4705 19.7451 99.9607 19.4902 99.9607 18.7647C99.9607 18.0392 99.4901 17.804 98.8104 17.804H98.1045V19.7517V19.7451Z" fill="white"/>
</g>
<defs>
<clipPath id="clip0_308_96">
<rect width="100.588" height="22" fill="white"/>
</clipPath>
</defs>
</svg>
