<svg width="334" height="40" viewBox="0 0 334 40" fill="none" xmlns="http://www.w3.org/2000/svg">
<g clip-path="url(#clip0_899_101)">
<path d="M0 1.86279H17.3745C19.5584 1.86279 21.3729 2.16789 22.8021 2.77809C24.2312 3.38828 25.3553 4.15906 26.1582 5.07435C26.9771 5.98965 27.5391 6.96918 27.8764 8.02899C28.2136 9.08881 28.3741 10.0844 28.3741 11.0157C28.3741 12.3164 28.2136 13.3762 27.9085 14.2273C27.5873 15.0784 27.218 15.7689 26.7684 16.3148C26.3187 16.8608 25.837 17.2783 25.3232 17.5834C24.8093 17.8885 24.3758 18.1294 24.0064 18.322C25.0984 18.7235 26.0136 19.2373 26.7202 19.8636C27.4267 20.4898 28.0048 21.1964 28.4063 21.9511C28.8238 22.7219 29.1128 23.5248 29.2734 24.3598C29.434 25.1948 29.5303 26.078 29.5303 26.9772C29.5303 28.4063 29.2573 29.7552 28.7114 31.0398C28.1654 32.3245 27.4107 33.4164 26.4472 34.3477C25.9494 34.8455 25.4195 35.2951 24.8575 35.6966C24.2955 36.098 23.5889 36.4353 22.77 36.7082C21.935 36.9973 20.9233 37.206 19.7029 37.3505C18.4986 37.4951 16.9731 37.5754 15.1425 37.5754H0V1.86279ZM7.16178 15.8491H15.9293C17.4227 15.8491 18.6752 15.544 19.6869 14.9338C20.6985 14.3237 21.2124 13.296 21.2124 11.8668C21.2124 10.4377 20.7306 9.36179 19.7511 8.83188C18.7716 8.30197 17.4388 8.02899 15.7367 8.02899H7.17784V15.8491H7.16178ZM7.16178 31.4252H16.3147C18.1453 31.4252 19.5424 31.0077 20.5379 30.1727C21.5335 29.3377 22.0313 28.021 22.0313 26.1904C22.0313 25.3875 21.8707 24.7131 21.5656 24.1671C21.2445 23.6211 20.843 23.1715 20.3452 22.8182C19.8475 22.465 19.2694 22.2241 18.6271 22.0796C17.9847 21.9351 17.3264 21.8548 16.668 21.8548H7.16178V31.4092V31.4252Z" fill="white" fill-opacity="0.5"/>
<path d="M55.4958 37.5914H48.0289V1.86279H55.4958V37.6075V37.5914Z" fill="white" fill-opacity="0.5"/>
<path d="M82.6335 37.5914H75.1666V1.86279H100.602V8.18957H82.6335V16.2506H98.3702V22.5774H82.6335V37.6075V37.5914Z" fill="white" fill-opacity="0.5"/>
<path d="M125.733 37.5914H118.266V1.86279H143.701V8.18957H125.733V16.2506H141.469V22.5774H125.733V37.6075V37.5914Z" fill="white" fill-opacity="0.5"/>
<path d="M183.605 14.7571C183.605 12.8301 183.814 11.1922 184.247 9.82733C184.681 8.46242 185.227 7.32231 185.917 6.39096C186.592 5.45961 187.363 4.72095 188.214 4.17498C189.065 3.62902 189.916 3.21152 190.783 2.92247C191.65 2.64949 192.453 2.4568 193.224 2.37651C193.978 2.29622 194.637 2.24805 195.167 2.24805C196.853 2.24805 198.442 2.48891 199.92 2.98671C201.397 3.4845 202.682 4.2071 203.774 5.15451C204.866 6.10192 205.733 7.25808 206.359 8.63905C206.985 10.02 207.306 11.5937 207.306 13.3922C207.306 14.9177 207.081 16.2665 206.632 17.4227C206.182 18.5788 205.604 19.6226 204.914 20.5379C204.223 21.4532 203.42 22.2561 202.553 22.9466C201.67 23.637 200.803 24.2954 199.936 24.8896C198.78 25.7246 197.752 26.4472 196.853 27.0734C195.953 27.6997 195.183 28.2617 194.54 28.7595C193.898 29.2573 193.368 29.723 192.951 30.1565C192.533 30.5901 192.228 31.0076 192.035 31.409H207.371V37.5752H183.22C183.284 36.5475 183.396 35.4877 183.541 34.4118C183.685 33.336 184.022 32.228 184.552 31.0718C185.082 29.9317 185.885 28.7274 186.945 27.4909C188.005 26.2384 189.498 24.9217 191.425 23.5407C193.015 22.3845 194.38 21.3729 195.504 20.5218C196.628 19.6708 197.559 18.8679 198.266 18.1132C198.972 17.3584 199.502 16.5716 199.839 15.8008C200.177 15.014 200.337 14.1308 200.337 13.1352C200.337 12.5411 200.241 11.947 200.032 11.3368C199.823 10.7266 199.534 10.1967 199.133 9.71493C198.731 9.23319 198.234 8.84781 197.607 8.54271C196.997 8.23761 196.275 8.09309 195.44 8.09309C194.219 8.09309 193.256 8.3179 192.581 8.76752C191.907 9.21714 191.409 9.7631 191.088 10.4375C190.767 11.0959 190.574 11.8185 190.494 12.6053C190.414 13.3922 190.365 14.0987 190.365 14.725H183.589L183.605 14.7571Z" fill="white" fill-opacity="0.5"/>
<path d="M275.391 30.6061C276.387 28.2616 278.715 25.7727 282.393 23.1392C285.588 20.859 287.644 19.2211 288.591 18.2255C290.036 16.6839 290.759 14.9979 290.759 13.1673C290.759 11.6739 290.341 10.4375 289.522 9.44188C288.687 8.44629 287.515 7.96456 285.974 7.96456C283.87 7.96456 282.425 8.75139 281.67 10.3251C281.236 11.2243 280.98 12.6695 280.899 14.6446H274.171C274.283 11.6418 274.829 9.21707 275.793 7.37042C277.64 3.85376 280.931 2.0874 285.652 2.0874C289.378 2.0874 292.348 3.1151 294.564 5.18656C296.764 7.25802 297.872 9.98784 297.872 13.3921C297.872 15.9935 297.086 18.3218 295.528 20.3451C294.5 21.694 292.83 23.1874 290.486 24.8413L287.708 26.8164C285.974 28.0529 284.785 28.9361 284.143 29.4981C283.501 30.0601 282.971 30.6864 282.521 31.425H297.904V37.527H273.77C273.834 35.0059 274.38 32.6936 275.391 30.6061Z" fill="white" fill-opacity="0.5"/>
<path d="M315.584 28.1014C315.857 29.6108 316.387 30.767 317.158 31.5859C317.928 32.4049 319.069 32.8063 320.546 32.8063C322.264 32.8063 323.565 32.1961 324.464 30.9918C325.363 29.7874 325.813 28.2619 325.813 26.4314C325.813 24.6008 325.395 23.1074 324.544 21.8709C323.709 20.6345 322.393 20.0082 320.61 20.0082C319.775 20.0082 319.036 20.1206 318.426 20.3294C317.35 20.7148 316.531 21.4374 315.986 22.4972L309.771 22.2082L312.244 2.74609H331.642V8.62325H317.254L315.986 16.331C317.045 15.6405 317.88 15.1748 318.491 14.95C319.486 14.5807 320.706 14.388 322.152 14.388C325.058 14.388 327.611 15.3675 329.779 17.3266C331.947 19.2856 333.039 22.1439 333.039 25.8854C333.039 29.1451 331.995 32.0516 329.908 34.6048C327.82 37.158 324.689 38.4426 320.53 38.4426C317.174 38.4426 314.428 37.5434 312.276 35.7449C310.124 33.9464 308.92 31.3932 308.679 28.0853H315.584V28.1014Z" fill="white" fill-opacity="0.5"/>
<path d="M252.124 30.1086C252.043 30.3012 252.043 30.3012 252.092 30.3655C252.252 30.5582 252.381 30.4939 252.365 30.5421C252.461 30.3655 252.573 30.221 252.686 30.1888L252.846 30.2852C252.846 30.0443 252.894 29.9159 252.943 29.7713C252.991 29.6268 253.023 29.4662 252.991 29.3217L252.878 29.0809L252.75 28.856C252.605 28.856 252.605 29.0166 252.557 29.113L252.461 29.4181L252.541 29.7392V29.964L252.3 30.0443L252.14 30.1086H252.124ZM237.238 39.5184C236.869 39.4381 236.499 39.3418 236.146 39.2454C236.499 39.3579 236.869 39.4381 237.238 39.5184ZM229.771 36.1945H229.691C231.618 37.6076 233.818 38.6192 236.162 39.2454V39.2133C236.13 39.0528 236.162 39.1491 236.114 38.9725V38.6513L236.018 38.5389C235.953 38.4104 235.97 38.2177 235.953 38.0732C235.953 37.8324 235.986 37.5594 235.953 37.3185L235.986 37.1579L236.066 36.9331C236.13 36.8047 236.034 36.5799 236.05 36.4353L235.986 36.0339L235.664 36.2908L235.327 36.2105L235.086 36.1784C234.685 36.0981 234.332 36.0018 233.898 36.0018H233.834C233.641 36.0018 233.481 36.066 233.304 36.0981C233.256 36.0981 233.224 36.0981 233.175 36.0981C233.079 36.0981 232.999 36.0981 232.902 36.0821C232.87 36.0821 232.822 36.0821 232.79 36.0821C232.662 36.0821 232.517 36.0821 232.437 36.066L232.244 35.8412L232.148 36.0499L231.762 36.1463C231.65 36.1945 231.522 36.2105 231.393 36.2105C231.168 36.2105 230.927 36.1784 230.751 36.1463C230.67 36.1463 230.622 36.1302 230.558 36.1302C230.462 36.1302 230.397 36.1463 230.285 36.1784C230.141 36.2266 229.98 36.2105 229.835 36.2426M230.333 29.4984L230.462 29.7713L230.205 29.8516L230.06 30.0122L229.884 30.0604C229.755 30.0925 229.611 30.1246 229.466 30.1246C229.434 30.1246 229.418 30.1246 229.386 30.1246C229.306 30.1246 229.241 30.0925 229.193 30.0925C229.145 30.0925 229.097 30.1086 229.049 30.1567L228.968 30.2852L228.808 30.3334L228.583 30.6224C228.519 30.7348 228.454 30.8633 228.438 31.0078C228.406 31.1523 228.39 31.1844 228.39 31.3289L228.471 31.5859L228.663 31.7946C228.776 31.9231 228.711 32.1318 228.872 32.2442C229.225 32.4691 229.482 32.6457 229.9 32.7581C229.948 32.7581 229.996 32.7742 230.044 32.7742C230.173 32.7742 230.285 32.742 230.414 32.726L230.703 32.6939L230.847 32.6296C231.008 32.5333 231.136 32.4209 231.265 32.2924C231.377 32.18 231.505 32.1158 231.602 31.9713L231.746 31.6662L231.811 31.4574C231.859 31.3611 231.955 31.3932 231.939 31.2647V31.0881C231.778 30.799 231.843 30.4458 231.65 30.1728L231.393 30.0443L231.184 29.964L230.959 29.8998L230.67 29.8356L230.606 29.7232L230.526 29.5626L230.349 29.4984H230.333ZM232.437 2.13586C232.774 1.97528 233.095 1.8147 233.448 1.67018C233.111 1.8147 232.774 1.97528 232.453 2.13586M237.816 3.43654V3.2599L237.752 3.13144C237.656 3.00298 237.672 2.77817 237.64 2.63365L237.607 2.45701C237.607 2.32855 237.672 2.21614 237.607 2.08768C237.575 1.95922 237.527 1.60595 237.511 1.47748L237.447 1.15633C237.383 1.02787 237.399 0.883346 237.35 0.738826L237.174 0.56219L237.11 0.481901C235.825 0.754883 234.589 1.15633 233.416 1.67018L233.481 1.73441L233.657 2.07162L233.625 2.44095C233.593 2.66576 233.625 2.93875 233.657 3.16355V3.4526L233.994 3.82193L234.251 3.66135C234.396 3.59712 234.476 3.58106 234.589 3.58106H234.894L235.102 3.61317L235.375 3.48471L235.713 3.40442C235.953 3.37231 236.05 3.24384 236.259 3.19567L236.644 3.05115L236.805 3.01903L237.061 2.98692L237.302 3.08327L237.447 3.16355L237.543 3.21173L237.768 3.43654H237.816ZM232.629 3.77375L232.453 3.88616V4.19125L232.662 4.27154L232.742 4.09491L233.015 4.04673L232.886 3.6774L232.613 3.75769L232.629 3.77375ZM233.994 6.32694V6.2306L234.075 6.16636C234.155 6.19848 234.251 6.19848 234.332 6.19848C234.476 6.19848 234.605 6.16636 234.717 6.15031C234.894 6.11819 235.134 6.16636 235.295 6.07002C235.391 6.02184 235.504 6.00579 235.632 6.00579C235.68 6.00579 235.729 6.00579 235.793 6.00579C235.841 6.00579 235.889 6.00579 235.937 6.00579C235.969 6.00579 236.018 6.00579 236.05 6.00579L236.098 6.13425L236.387 6.00579C236.483 5.95761 236.548 5.94156 236.612 5.94156C236.676 5.94156 236.74 5.94156 236.853 5.97367C236.853 5.97367 236.869 5.97367 236.885 5.97367C236.949 5.97367 237.013 6.00579 237.077 6.02184C237.142 6.05396 237.206 6.07002 237.254 6.07002C237.254 6.07002 237.27 6.07002 237.286 6.07002L237.511 6.00579L237.672 6.11819C237.848 6.07002 237.656 5.87732 237.623 5.78098V5.65251C237.591 5.52405 237.543 5.44376 237.575 5.3153L237.623 5.09049V4.96203L237.607 4.76934C237.607 4.64087 237.575 4.54453 237.607 4.41606C237.64 4.2876 237.704 3.99856 237.72 3.88616V3.85404H237.672L237.559 3.78981L237.367 4.11097C237.27 4.12702 237.19 4.15914 237.11 4.15914C237.078 4.15914 237.045 4.15914 237.013 4.15914H236.917L236.74 4.20731C236.612 4.20731 236.499 4.25549 236.355 4.25549L236.002 4.30366L235.456 4.41606C235.359 4.41606 235.231 4.43212 235.102 4.43212L234.813 4.35183C234.46 4.38395 234.589 4.43212 234.508 4.43212C234.492 4.43212 234.46 4.43212 234.396 4.43212L234.091 4.35183C233.962 4.38395 233.834 4.38395 233.705 4.40001L233.657 4.64087L233.689 4.92991L233.641 5.26713C233.657 5.39559 233.673 5.33136 233.689 5.60434L233.77 5.86127C233.818 5.94156 233.85 5.89338 233.914 6.0379V6.19848L233.946 6.32694H234.01H233.994ZM235.664 6.98531L235.52 7.01743H235.568L235.664 6.98531ZM221.582 17.2784C221.646 16.8448 221.71 16.4112 221.79 15.9777C221.694 16.4112 221.63 16.8448 221.566 17.2784C221.566 17.2784 221.566 17.2784 221.582 17.2784ZM240.851 8.46263L240.739 8.62321L240.819 8.78379L241.172 8.73561L241.461 8.83196V8.79985L241.477 8.68744L241.253 8.54292L240.835 8.46263H240.851ZM230.59 15.3514C230.446 15.3514 230.478 15.3514 230.494 15.4638L230.751 15.5441C230.847 15.5441 230.895 15.4799 231.024 15.4799H231.04L231.072 15.3033L230.911 15.239L230.719 15.2069L230.59 15.3675V15.3514ZM246.07 19.1411L246.311 19.0608L246.006 18.7075L245.701 18.9484L245.572 18.8681L245.46 19.0447L245.492 19.2535C245.492 19.3498 245.508 19.3819 245.556 19.3819C245.652 19.3819 245.829 19.1732 245.829 19.1411H246.054H246.07ZM247.451 28.3743L247.74 28.4867L247.788 28.7115V28.8239L247.772 28.9524L247.563 29.2896C247.483 29.402 247.467 29.5144 247.371 29.6589L247.242 29.8195H246.889C246.776 29.8195 246.696 29.8195 246.6 29.8195H246.471C246.327 29.8195 246.214 29.8195 246.07 29.8356L245.861 29.8837L245.701 29.9319L245.379 29.8998L245.026 29.8356L244.737 29.7874C244.737 29.7874 244.689 29.6911 244.625 29.6911C244.544 29.6911 244.464 29.7232 244.416 29.7392C244.287 29.7874 244.159 29.7392 244.014 29.7874L243.87 29.9159L244.063 29.8677L244.32 30.2049L244.48 30.4297L244.609 30.5903V30.7509L244.48 31.0239L244.593 31.1523C244.673 31.2487 244.689 31.2487 244.705 31.3771L244.817 31.6501L244.93 31.907C244.994 32.0194 245.058 32.0676 245.106 32.1961C245.203 32.4209 245.331 32.5975 245.508 32.7742C245.749 32.999 245.909 33.288 246.134 33.5289C246.214 33.6092 246.198 33.6734 246.134 33.8179C246.134 33.85 246.134 33.85 246.134 33.85C246.134 33.85 246.134 33.85 246.166 33.85C246.166 33.85 246.198 33.85 246.214 33.85C246.263 33.85 246.343 33.8821 246.455 34.0106L246.616 34.1712L246.696 34.2515L246.841 34.3639H246.921L247.082 34.6047L247.21 34.7493L247.274 34.8938L247.627 35.1186L247.82 35.3113L247.676 35.6003C247.563 35.7448 247.515 35.8412 247.387 35.9536C247.226 36.0981 246.889 36.3069 246.68 36.3069C246.648 36.3069 246.616 36.3069 246.6 36.3069C246.536 36.3069 246.487 36.3069 246.375 36.2587L246.134 36.1142L245.588 35.9536L245.444 35.7288C245.363 35.6164 245.251 35.4558 245.187 35.3113C245.139 35.1989 245.155 35.1025 245.09 34.8938C245.042 34.7814 245.026 34.685 244.962 34.5566L244.753 34.396L244.673 34.3318C244.56 34.2515 244.512 34.0588 244.464 33.9303C244.432 33.8019 244.368 33.7055 244.271 33.5128C244.223 33.3362 244.207 33.288 244.175 33.1756C244.143 33.0471 244.111 32.9026 244.095 32.7581C244.079 32.6778 244.063 32.5654 244.063 32.4048C244.063 32.2924 243.902 32.2282 243.838 32.0837C243.838 32.0837 243.822 32.0676 243.806 32.0676C243.677 32.0676 243.324 32.5815 243.292 32.6457C243.019 33.0311 242.698 33.4165 242.377 33.7537L242.152 34.0748C241.991 34.2675 241.975 34.2515 241.991 34.3478C241.991 34.396 241.766 34.6208 241.67 34.7653C241.574 34.9259 241.558 35.1025 241.493 35.2792L241.413 35.5522C241.413 35.5522 241.301 35.5843 241.204 35.7127C241.156 35.7609 240.803 36.2426 240.707 36.4032L240.514 36.5477L240.385 36.6601L240.241 36.7404C240.241 36.7404 240.209 36.7404 240.209 36.7244C240.209 36.7244 240.193 36.7083 240.177 36.7083C240.177 36.7083 240.145 36.7244 240.128 36.7886L239.791 36.9974L239.422 37.2222L239.069 37.1258H238.828L238.667 36.901L238.796 36.7083L238.924 36.4674L239.085 36.1784C239.149 36.0821 239.358 35.9697 239.438 35.8251C239.534 35.6806 239.631 35.504 239.727 35.3595C239.872 35.1507 240.193 34.7011 240.289 34.6208C240.562 34.396 240.771 34.1069 241.012 33.834C241.22 33.5931 241.429 33.3522 241.638 33.0953L241.815 32.8544L241.911 32.5815L242.088 32.3888L242.248 32.1318C242.393 31.891 242.489 31.7465 242.666 31.5056C242.858 31.2326 242.987 30.9275 243.115 30.6224L243.147 30.3173L243.115 30.1407V29.964L243.019 29.8837C242.906 29.8837 242.906 29.9159 242.794 29.9159H242.762C242.65 29.9159 242.537 29.8837 242.441 29.8837C242.409 29.8837 242.393 29.8837 242.361 29.8837C242.312 29.8837 242.28 29.8837 242.232 29.8837C242.136 29.8837 242.039 29.8837 241.943 29.8837L241.734 29.8516L241.509 29.675V29.8195L241.317 29.8837C241.301 29.8837 241.285 29.8837 241.269 29.8837C241.22 29.8837 241.156 29.8837 241.108 29.8837C241.06 29.8837 241.012 29.8837 240.947 29.8837C240.867 29.8837 240.771 29.8837 240.691 29.948L240.53 29.8837C240.466 29.7713 240.385 29.5626 240.241 29.4502L240.128 29.3538L240.032 29.3057V29.2575L239.952 28.856L240.048 28.6794C240.048 28.6794 240.064 28.6794 240.08 28.6794C240.273 28.6794 240.434 28.7918 240.61 28.8079C240.787 28.8239 240.931 28.856 241.092 28.856C241.108 28.856 241.14 28.856 241.156 28.856H241.413L241.526 28.8882H241.654C241.782 28.8882 241.831 28.8079 241.911 28.7597L242.248 28.6794C242.248 28.6794 242.344 28.6794 242.377 28.6794C242.553 28.6794 242.746 28.7436 242.923 28.7436H243.26C243.388 28.7436 243.581 28.7436 243.693 28.7115C243.854 28.6794 243.838 28.6634 243.982 28.6473H244.063C244.063 28.6473 244.159 28.6473 244.207 28.6473C244.255 28.6473 244.304 28.6473 244.352 28.6473C244.448 28.6473 244.544 28.6473 244.641 28.6152L245.01 28.4546V28.1495C245.042 27.8926 245.01 27.6517 244.994 27.5232C244.978 26.8488 244.994 26.7364 244.994 26.6401C244.994 26.351 244.994 26.3029 244.994 26.3029C244.994 26.3029 244.994 26.3029 244.994 26.2065C244.994 26.1102 244.978 26.0138 245.058 25.789C245.074 25.5321 245.058 25.2752 245.074 25.0182C245.106 24.681 245.139 24.5847 245.106 24.3759V24.0708L245.155 22.6256C245.155 22.465 245.331 21.63 245.187 21.5337L245.139 21.0359C245.139 20.9074 245.155 20.6987 245.09 20.5863C245.058 20.3133 245.042 19.6228 245.09 19.3498C245.122 19.125 245.187 18.9805 245.106 18.7878C245.106 18.6593 245.074 18.3542 245.058 18.2258V17.8725V17.6477V17.5674V17.4389V17.3426L244.978 17.1178V16.9251C244.962 16.7806 245.026 16.6521 245.058 16.5076C245.09 16.3631 245.026 16.3149 244.946 16.1864L244.833 16.0098L244.657 15.8974L244.448 15.6886L244.32 15.5762C244.32 15.5762 244.143 15.3996 243.838 15.1909L243.758 14.8055L243.822 14.7734L243.886 14.7252L243.982 14.6609L244.063 14.6128H244.239L244.368 14.6288L244.576 14.7091L244.705 14.7894L244.866 14.8376L245.187 14.9018H245.508L245.781 14.9339C245.974 14.95 246.198 15.1427 246.359 15.239L246.552 15.4317L246.616 15.5602C246.664 15.6886 246.76 15.7208 246.857 15.8011L246.953 16.0419L246.985 16.2507C246.985 16.4273 246.776 16.4755 246.744 16.62C246.728 16.7485 246.905 16.8448 246.889 17.0054L246.841 17.3265C246.792 17.455 246.809 17.6316 246.792 17.7601C246.792 17.9207 246.728 18.0973 246.76 18.2579C246.792 18.4506 246.841 18.5469 246.776 18.7557C246.728 18.9484 246.776 19.0929 246.792 19.2856C246.841 19.5586 246.809 19.8637 246.792 20.1367C246.792 20.4739 246.792 20.8111 246.792 21.1322C246.792 21.2607 246.825 21.4695 246.776 21.5819L246.712 21.7585C246.648 21.887 246.664 22.0797 246.664 22.2081C246.696 22.4972 246.616 22.8023 246.664 23.1074C246.712 23.5088 246.632 23.9102 246.648 24.3117C246.648 24.5204 246.648 24.7613 246.696 24.954C246.792 25.3554 246.552 25.8693 246.825 26.2386C246.825 26.3992 246.825 26.5437 246.825 26.7043C246.825 26.8809 246.809 26.897 246.712 27.0415L246.536 27.3145L246.696 27.4911C246.728 27.6196 246.744 27.7159 246.696 27.8123L246.439 28.0371L246.343 28.1977L246.632 28.278C246.857 28.3422 246.969 28.3583 247.033 28.4064L247.242 28.5509H247.29C247.29 28.5509 247.354 28.5509 247.371 28.5509C247.387 28.5509 247.403 28.5509 247.467 28.5509H247.499L247.451 28.3743ZM243.854 15.9456C244.079 16.1061 243.966 16.1543 244.047 16.331L244.143 16.4755C244.207 16.6521 244.143 17.5353 244.127 17.6638C244.127 17.8404 244.287 18.0813 244.159 18.2097C244.159 18.2097 244.111 19.0608 244.127 19.3659L244.095 19.4783C244.095 19.7031 244.063 19.9279 244.223 20.1206C244.384 20.3133 244.271 20.6184 244.271 20.8593L244.111 20.9556L244.047 21.2768C244.047 21.5819 243.95 21.887 243.982 22.1921C243.998 22.3366 243.982 22.4972 243.982 22.6417V22.8665V23.2198C243.854 23.573 244.014 23.7657 244.014 24.119V24.4562C243.902 24.8577 243.982 25.2752 244.014 25.6927C244.031 25.8693 244.127 26.0459 244.014 26.2065C243.934 26.2868 243.87 26.3029 243.806 26.4313L243.709 26.6561L243.565 26.8167L243.308 27.1539C243.179 27.2824 243.099 27.443 242.89 27.4751C242.874 27.4751 242.858 27.4751 242.842 27.4751C242.746 27.4751 242.73 27.4108 242.634 27.3627C242.425 27.2663 242.553 26.9452 242.537 26.7525C242.521 26.5277 242.537 26.2868 242.569 26.078C242.569 25.8532 242.457 25.8051 242.473 25.5642C242.473 25.227 242.473 24.9058 242.521 24.5847C242.553 24.392 242.633 24.2153 242.666 24.0226C242.73 23.7497 242.666 23.3643 242.634 23.0913C242.601 22.8023 242.65 22.5293 242.634 22.2563L242.601 22.0475C242.601 21.887 242.569 21.5979 242.617 21.4373H242.794L242.939 21.1644V21.0841L243.115 20.9235V20.8432L242.778 20.6826H242.409L242.489 20.795L242.537 21.068L242.489 21.1483C242.361 21.1644 242.296 21.1804 242.071 21.2286C241.927 21.2768 241.847 21.2286 241.734 21.3249L241.574 21.4695H241.542C241.413 21.4695 241.301 21.3571 241.188 21.341C241.172 21.341 241.14 21.341 241.124 21.341C241.012 21.341 240.867 21.3731 240.755 21.3892H240.498C240.353 21.4052 240.241 21.5016 240.096 21.5016C240.064 21.5016 240.048 21.5016 240.016 21.5016C239.711 21.4213 239.374 21.1804 239.261 20.8914L239.133 20.7308V20.3615C239.261 20.3615 239.422 20.3615 239.55 20.3133C239.695 20.2812 239.727 20.1688 239.888 20.1688C239.904 20.1688 239.92 20.1688 239.936 20.1688C240.177 20.1688 240.418 20.2169 240.642 20.233C240.658 20.233 240.674 20.233 240.691 20.233C240.883 20.233 241.044 20.1848 241.236 20.1527L241.542 20.0885C241.542 20.0885 241.702 20.0724 241.766 20.0724C241.863 20.0724 241.959 20.0724 242.055 20.0724C242.104 20.0724 242.28 20.1367 242.377 20.1367C242.441 20.1367 242.473 20.1045 242.409 20.0082L242.585 19.6389L242.521 19.5425V19.4462C242.553 19.1411 242.473 18.7717 242.569 18.4827H242.714C242.585 18.3542 242.682 18.1937 242.569 18.0652C242.473 17.9528 242.425 17.9849 242.409 17.8243L242.441 17.4871L242.393 17.1981C242.393 16.9412 242.377 16.7645 242.232 16.6039L241.975 16.4434L241.718 16.058C241.59 15.8974 241.574 15.8171 241.365 15.7208L241.477 15.5441L241.542 15.3996L241.718 15.2711L242.136 15.3033C242.328 15.3033 242.344 15.512 242.521 15.5923C242.714 15.6886 242.842 15.6565 242.939 15.8332V15.7047L243.212 15.7208C243.42 15.7368 243.645 15.8492 243.822 15.9777M242.489 14.0186C242.489 14.2756 242.473 14.5164 242.457 14.7734C242.441 14.7734 242.409 14.7734 242.393 14.7734C242.152 14.7734 241.815 14.5646 241.718 14.388C241.815 14.1471 242.088 14.2113 242.232 14.0026C242.328 14.0026 242.361 14.0026 242.377 14.0026C242.377 14.0026 242.409 14.0026 242.473 14.0026M245.974 37.2864L246.038 37.0776L246.295 36.901C246.295 36.901 246.6 36.9331 246.664 37.1098C246.664 37.1098 246.616 37.3506 246.76 37.3506C246.792 37.3506 246.825 37.3506 246.889 37.3025L247.049 37.2543L247.098 37.447C247.098 37.447 246.873 37.5915 246.953 37.72C246.953 37.72 246.391 37.6557 246.279 37.3827C246.279 37.3827 246.214 37.2061 246.102 37.2061C246.07 37.2061 246.022 37.2222 245.99 37.2703M246.825 9.44216C246.825 9.29764 246.825 9.15312 246.825 9.0086C247.033 8.97648 247.194 8.92831 247.194 8.92831L247.387 8.96042C247.338 9.18523 247.419 9.21735 247.644 9.24946C247.868 9.28158 247.9 9.5385 247.949 9.66697L247.531 9.58668C247.29 9.55456 247.001 9.47427 246.825 9.44216ZM231.554 7.09772C231.554 7.09772 231.473 7.14589 231.505 7.35464L231.538 7.57945H231.377C231.377 7.57945 231.216 7.29041 231.056 7.29041C231.056 7.29041 231.024 7.29041 231.008 7.29041L231.04 7.01743L231.232 6.88897L231.554 7.09772ZM232.581 27.1218C232.726 27.1218 232.87 27.0897 233.015 27.0897C233.111 27.0897 233.208 27.0897 233.288 27.1218L233.577 27.2503C233.689 27.3306 233.737 27.3787 233.882 27.4108C234.01 27.443 234.155 27.4751 234.3 27.5393L234.444 27.6999V27.9889L234.348 28.1174L234.203 28.2298L233.962 28.3904C233.834 28.4064 233.689 28.4225 233.545 28.4225C233.272 28.4225 232.983 28.3904 232.726 28.3904C232.517 28.3904 232.308 28.3583 232.1 28.3583C232.051 28.3583 232.003 28.3583 231.955 28.3583C231.666 28.3904 231.409 28.4225 231.104 28.4385C231.008 28.4385 230.911 28.4385 230.799 28.4385H230.654C230.654 28.4385 230.542 28.4385 230.494 28.4385C230.43 28.4385 230.381 28.4385 230.317 28.4385C230.044 28.4385 229.755 28.4385 229.482 28.5188C229.306 28.5831 229.225 28.6152 229.016 28.6152C228.808 28.6152 228.583 28.6473 228.374 28.6955C228.342 28.6955 228.31 28.6955 228.262 28.6955C228.214 28.6955 228.165 28.6955 228.101 28.6955C228.053 28.6955 228.005 28.6955 227.941 28.6955C227.925 28.6955 227.908 28.6955 227.892 28.6955C227.7 28.6955 227.523 28.8079 227.33 28.8079L227.154 28.9363C226.817 28.9363 226.479 28.9845 226.158 29.0166C226.11 29.0166 226.078 29.0166 226.046 29.0166C225.885 29.0166 225.853 28.9524 225.725 28.856C225.596 28.7436 225.5 28.7758 225.291 28.6312C225.147 28.5991 225.018 28.5509 224.906 28.4867L224.777 28.3904L224.729 28.2619L224.408 27.9408L224.472 27.6357H224.745L225.018 27.6999C225.05 27.6999 225.066 27.6999 225.098 27.6999C225.163 27.6999 225.227 27.6999 225.275 27.6999C225.339 27.6999 225.403 27.6999 225.468 27.6999C225.596 27.6999 225.725 27.6999 225.837 27.7641C225.982 27.8283 225.982 27.8926 226.158 27.9086C226.303 27.9086 226.463 27.9086 226.608 27.9086H226.624C226.784 27.9086 226.897 27.8444 227.057 27.8283C227.138 27.8283 227.218 27.8283 227.298 27.8283C227.395 27.8283 227.491 27.8283 227.603 27.8283C227.7 27.8283 227.796 27.8283 227.892 27.8283C227.973 27.8283 228.053 27.8283 228.133 27.8283C228.278 27.8123 228.406 27.7962 228.551 27.7802C228.808 27.7481 229.065 27.7159 229.338 27.6999L229.627 27.5875L229.675 27.3627C229.611 27.2021 229.498 27.0897 229.434 26.9452C229.354 26.7685 229.37 26.6561 229.209 26.4955C228.727 25.9978 228.888 26.3992 228.679 25.8211C228.567 25.5642 228.342 25.6284 228.294 25.3554C228.358 25.243 228.679 25.1949 228.856 25.0343L229.081 25.1306L229.37 25.2109L229.627 25.4839L229.932 25.6927C230.06 25.7729 230.221 25.8532 230.365 25.9175L230.574 25.9978C230.719 26.1102 230.847 26.2547 230.959 26.3992L231.072 26.5598L231.104 26.7846C231.104 26.9291 231.136 27.0415 231.088 27.186C231.056 27.2342 230.895 27.4108 231.104 27.4108C231.281 27.4108 231.425 27.4108 231.618 27.3948L231.955 27.3627C232.148 27.3306 232.405 27.2824 232.565 27.1218M248.639 22.3045C248.575 22.1599 248.912 21.9994 248.992 21.8709L249.105 21.5497L249.314 21.4373C249.314 21.4373 249.474 21.7424 249.474 21.9512C249.474 22.1118 250.309 22.1921 250.405 22.3687C250.502 22.5614 250.213 22.7059 250.1 22.7541C250.036 22.7701 249.988 22.7862 249.94 22.7862C249.795 22.7862 249.715 22.6898 249.538 22.6738C249.442 22.6738 249.346 22.6577 249.249 22.6577C249.137 22.6577 249.024 22.6577 248.912 22.6738C248.8 22.5453 248.703 22.4329 248.639 22.3045ZM250.486 30.4297L250.229 30.4779L250.165 30.2852L250.036 30.2049L250.181 30.0925H250.229L250.422 30.1086L250.454 30.2691V30.4458L250.486 30.4297ZM260.024 12.9267L260.104 13.023C258.675 9.18523 256.106 5.90944 252.798 3.59712C252.445 3.35625 252.092 3.11538 251.722 2.90663C252.092 3.13144 252.445 3.35625 252.798 3.59712C252.798 3.88616 252.798 4.15914 252.83 4.41606L252.878 4.67299C252.878 4.81751 252.766 4.84962 252.718 4.99414C252.878 5.07443 252.927 5.10655 252.91 5.29924C252.91 5.47588 252.878 5.57223 252.91 5.7328C252.927 5.87732 252.927 6.00579 252.927 6.15031C252.862 6.18242 252.798 6.21454 252.638 6.26271C252.605 6.26271 252.573 6.26271 252.557 6.26271C252.477 6.26271 252.493 6.21454 252.397 6.15031L252.027 6.26271L252.156 6.59993L252.734 6.53569H252.894L252.927 6.66416C252.991 6.79262 253.167 6.84079 253.328 6.84079C253.44 6.84079 253.537 6.82473 253.617 6.79262L253.874 6.59993H254.131L254.259 6.58387H254.356L254.42 6.61598L254.564 6.68021L254.918 6.77656H255.078C255.191 6.71233 255.191 6.63204 255.271 6.63204C255.303 6.63204 255.335 6.63204 255.383 6.6481L255.608 6.79262L256.026 7.12983C256.154 7.27435 256.09 7.38676 256.122 7.56339L255.849 7.7882C255.705 7.90061 255.56 8.01301 255.383 8.07724C255.239 8.14148 255.143 8.10936 254.998 8.14148C254.902 8.14148 254.837 8.17359 254.789 8.17359C254.741 8.17359 254.693 8.17359 254.597 8.14148C254.42 8.07724 254.243 8.07724 254.051 8.07724H253.922C253.922 8.07724 253.842 8.07724 253.81 8.07724H253.746C253.585 8.07724 253.44 8.07724 253.296 8.04513L253.023 7.90061L252.943 7.86849L252.782 7.91667V7.99695V8.20571C252.782 8.38234 252.782 8.54292 252.75 8.7035L252.605 9.04071L252.718 9.24946C252.75 9.44216 252.654 9.55456 252.798 9.61879V9.97207C252.798 10.1487 252.798 10.2932 252.798 10.4699C252.83 10.6947 252.782 10.8874 252.734 11.0801C252.686 11.2406 252.702 11.353 252.67 11.5297C252.638 11.7224 252.445 11.7866 252.348 11.9472L252.204 12.3486C252.3 12.3004 252.397 12.2683 252.493 12.2683C252.509 12.2683 252.525 12.2683 252.557 12.2683C252.686 12.2683 252.814 12.3165 252.927 12.3486C253.119 12.3968 253.344 12.3486 253.537 12.4289C253.713 12.5092 253.89 12.6698 254.051 12.7661C254.211 12.8464 254.34 12.9588 254.58 13.1676C254.709 13.28 254.982 13.3763 255.03 13.5208L254.998 13.7135L254.934 14.0507C254.886 14.1792 254.773 14.1792 254.645 14.1792C254.597 14.1792 254.532 14.1792 254.484 14.1792C254.243 14.2113 254.083 14.404 253.826 14.404C253.81 14.404 253.794 14.404 253.778 14.404C253.312 14.3719 252.846 14.1792 252.381 14.1471C252.156 14.1471 252.043 14.115 251.931 14.115C251.835 14.115 251.738 14.131 251.546 14.1792C251.305 14.2434 251.096 14.1792 250.839 14.2595L250.63 14.1471H250.614C250.727 14.0507 250.743 14.0026 250.871 13.9865L251.016 13.9544L250.967 13.8259L250.711 13.6975L250.438 13.7938L250.357 14.0347L250.261 14.115H250.068L249.779 14.2113C249.747 14.2113 249.699 14.2113 249.667 14.2113C249.49 14.2113 249.265 14.1632 249.105 14.1632C249.041 14.1632 248.976 14.1632 248.912 14.1632C248.527 14.1632 248.27 14.2113 247.836 14.2434C247.354 14.2595 246.776 14.3719 246.295 14.4201C246.006 14.4522 245.749 14.5164 245.412 14.677C245.203 14.6288 244.962 14.5646 244.769 14.5325C244.625 14.5004 244.48 14.4843 244.352 14.404L244.079 14.1632C243.998 14.0347 244.031 13.8902 244.079 13.7135L244.416 13.6172L244.689 13.3924V13.1676L244.223 13.28L244.159 13.1355V12.9909C244.159 12.8304 244.111 12.7019 244.111 12.5253C244.127 12.3165 244.127 12.0596 244.159 11.9472L244.191 11.5939C244.255 11.337 244.303 11.1122 244.368 10.8231C244.416 10.6144 244.175 10.2772 244.175 10.0845C244.175 9.98812 244.079 9.95601 244.095 9.77937C244.127 9.60274 244.32 9.57062 244.496 9.57062C244.576 9.57062 244.657 9.57062 244.689 9.57062C244.849 9.57062 244.946 9.57062 245.01 9.66697C245.122 9.82754 245.09 9.79543 245.299 9.8436L245.492 9.90783L245.781 10.0845L245.845 10.2932L246.006 10.5341C246.086 10.6786 246.086 10.7268 246.086 10.9034C246.086 11.064 246.086 11.2085 246.118 11.3691L246.054 11.7866L245.909 11.9151V12.172C245.909 12.4289 245.925 12.8464 245.861 13.1355L246.054 13.1836C246.214 13.2157 246.375 13.2157 246.536 13.2157H246.76C246.873 13.2157 247.001 13.2157 247.114 13.2157C247.13 13.2157 247.146 13.2157 247.146 13.2157C247.178 13.2157 247.178 13.1997 247.322 13.1515L247.435 13.1033H247.708L248.061 13.0712H248.286L248.382 13.1355C248.495 13.1355 248.527 13.1355 248.655 13.1355C248.976 13.1033 249.105 13.007 249.426 12.9749C249.683 12.9588 249.924 12.9428 250.149 12.8625C250.229 12.8304 250.325 12.8304 250.405 12.8304C250.486 12.8304 250.566 12.8304 250.662 12.8464C250.743 12.8464 250.823 12.8625 250.903 12.8625C250.919 12.8625 250.951 12.8625 250.967 12.8625C251.273 12.8625 250.968 12.8143 251.257 12.7661L251.513 12.6858L251.433 12.5734C251.385 12.4289 251.337 12.3807 251.321 12.2362C251.305 12.0756 251.257 11.9151 251.24 11.7384L251.176 11.3691C251.16 11.2246 251.096 11.1764 251.048 11.0479L251.176 10.4538C251.257 10.2129 251.24 10.0524 251.176 9.81149C251.144 9.58668 251.16 9.58668 251.176 9.34581C251.176 9.20129 251.176 8.89619 251.176 8.76773C251.192 8.63927 251.176 8.55898 251.24 8.44657L251.305 8.23782L251.257 7.93272C251.257 7.33858 251.289 6.71233 251.24 6.11819C251.24 5.97367 251.208 5.81309 251.24 5.66857L251.144 5.71675L251.064 5.63646L251.24 5.34742C251.305 5.23501 251.353 5.23501 251.337 5.07443C251.321 4.81751 251.305 4.56058 251.289 4.2876C251.289 4.11097 251.224 3.88616 251.257 3.70952L251.449 3.61317L251.192 3.4526C251.128 3.19567 251.096 2.98692 250.903 2.77817C250.759 2.61759 250.534 2.48913 250.438 2.29643L250.405 2.21614C248.639 1.31691 246.728 0.674594 244.721 0.321323V0.449785C244.769 0.770941 244.898 0.995751 244.866 1.33296C244.866 1.52566 244.785 1.73441 244.785 1.95922C244.785 2.21614 244.785 2.48913 244.785 2.74605C244.753 2.74605 244.737 2.76211 244.705 2.76211C244.544 2.76211 244.56 2.45701 244.48 2.24826C244.352 1.87893 244.223 1.91105 244.304 1.5096C244.352 1.26873 244.432 1.14027 244.464 0.85123V0.722768C244.48 0.578247 244.48 0.417669 244.512 0.289207C243.533 0.128629 242.537 0.0483398 241.526 0.0483398H241.429C240.434 0.0483398 239.454 0.128629 238.491 0.273149C238.651 0.321323 238.812 0.385554 238.892 0.433727L239.004 0.594305L239.229 0.819115L239.486 0.931519C239.599 1.04392 239.566 1.47748 239.566 1.60595C239.566 1.79864 239.647 2.00739 239.631 2.20009L239.534 2.47307L239.47 2.61759L239.39 2.74605V3.03509C239.342 3.29202 239.31 3.64529 239.277 3.88616C239.261 4.1752 239.326 4.4803 239.277 4.75328C239.261 4.88174 239.229 4.94597 239.213 5.05838C239.197 5.21895 239.165 5.26713 239.181 5.42771C239.181 5.58828 239.229 5.86127 239.181 6.07002H239.229L239.277 6.56781C239.31 6.88897 239.037 7.08166 238.828 7.27435C238.715 7.38676 238.715 7.46705 238.571 7.46705C238.571 7.46705 238.539 7.46705 238.523 7.46705C238.394 7.46705 238.266 7.41887 238.137 7.40282C237.896 7.3707 237.623 7.40282 237.463 7.22618C237.318 7.0656 237.094 7.03349 236.869 7.03349C236.66 7.03349 236.451 7.0656 236.291 7.0656C236.13 7.0656 236.066 7.00137 235.937 7.00137C235.921 7.00137 235.905 7.00137 235.889 7.00137C235.713 7.03349 235.761 7.08166 235.664 7.08166C235.664 7.08166 235.648 7.08166 235.632 7.08166C235.488 7.11377 235.263 7.12983 235.279 7.12983H234.813L234.621 7.17801C234.396 7.19406 234.364 7.30647 234.187 7.41887L233.834 7.51522L233.705 7.46705H233.4C233.32 7.49916 233.256 7.51522 233.175 7.51522C233.111 7.51522 233.047 7.51522 232.983 7.46705C232.822 7.38676 232.694 7.29041 232.533 7.22618C232.405 7.17801 232.26 7.17801 232.228 7.03349V6.88897L232.18 6.69627L232.244 6.56781L232.308 6.45541C232.389 6.27877 232.34 6.2306 232.324 6.07002C232.324 5.97367 232.324 5.94156 232.324 5.78098C232.324 5.58828 232.324 5.54011 232.324 5.34742L232.292 5.23501V4.91386C232.276 4.75328 232.405 4.57664 232.405 4.43212L232.228 4.1752L232.196 3.82193C232.18 3.69346 232.164 3.59712 232.148 3.46865C232.148 3.21173 232.148 3.21173 232.132 2.9548L232.164 2.72999V2.5373C232.164 2.5373 232.228 2.56942 232.244 2.44095V2.36066C231.168 2.92269 230.141 3.565 229.193 4.30366L228.727 4.84962L229.177 5.23501L229.049 5.65251C229.049 5.65251 229 5.6204 228.968 5.6204C228.679 5.6204 228.278 6.50358 228.278 6.50358L227.796 6.39117L227.603 6.00579C227.571 5.86127 227.603 5.71675 227.652 5.60434C224.761 8.36628 222.69 11.9953 221.855 16.058C221.887 16.058 221.935 16.058 221.967 16.058C222.096 16.058 222.224 16.058 222.352 16.058C222.481 16.058 222.609 16.058 222.754 16.058C222.85 16.058 222.947 16.058 223.059 16.058C223.139 16.058 223.236 16.058 223.316 16.058C223.605 16.058 223.91 16.0098 224.215 16.0098H224.247C224.585 16.0098 224.858 15.9456 225.163 15.8974C225.163 15.8974 225.195 15.8974 225.211 15.8974C225.291 15.8974 225.468 15.8974 225.676 15.9135C225.885 15.9135 226.126 15.9295 226.351 15.9295C226.704 15.9295 227.025 15.9135 227.073 15.8171L227.346 15.7047H227.635C227.844 15.6726 228.069 15.6886 228.278 15.6565C228.487 15.6565 228.695 15.5762 228.904 15.5762C229.225 15.5602 229.338 15.5602 229.643 15.496L229.819 15.6084C229.964 15.4317 230.044 15.3033 230.076 15.0463C230.108 14.8536 230.189 14.6449 230.205 14.4522C230.221 14.2434 230.237 14.0829 230.221 13.8902C230.221 13.6975 230.221 13.8099 230.189 13.553C230.157 13.4084 230.189 13.3281 230.189 13.2318C230.189 13.1033 230.173 12.8304 230.173 12.7019C230.173 12.6537 229.996 12.6216 229.835 12.5574C229.723 12.5253 229.595 12.5092 229.45 12.4931C229.418 12.4931 229.386 12.4931 229.37 12.4931C229.161 12.4931 228.952 12.5413 228.76 12.5734C228.567 12.6216 228.358 12.6537 228.149 12.6537C228.069 12.6537 227.989 12.6537 227.925 12.6377C227.78 12.6055 227.587 12.5574 227.427 12.5574L227.138 12.5895L226.865 12.6858C226.865 12.6858 226.865 12.6858 226.849 12.6858C226.704 12.6858 226.672 12.5734 226.56 12.4771C226.447 12.3968 226.383 12.3807 226.271 12.3807C226.238 12.3807 226.206 12.3807 226.174 12.3807L225.917 12.734C225.773 12.8304 225.58 12.8304 225.403 12.8785C225.387 12.8785 225.371 12.8785 225.355 12.8785C225.227 12.8785 225.147 12.8143 225.002 12.7982C224.97 12.7982 224.938 12.7982 224.906 12.7982H224.841C224.841 12.7982 224.809 12.7982 224.793 12.7982C224.713 12.7982 224.649 12.7982 224.585 12.7661L224.312 12.5413L223.99 12.3807C223.878 12.2844 223.573 12.0114 223.637 11.8187L224.055 11.5778C224.183 11.5778 224.344 11.6742 224.472 11.6742C224.649 11.6742 224.858 11.7063 225.066 11.7063C225.211 11.7063 225.355 11.7063 225.484 11.6581C225.885 11.5457 226.303 11.5457 226.704 11.4976C226.993 11.4654 227.282 11.4173 227.555 11.4012C227.732 11.3852 227.876 11.353 228.053 11.3209C228.358 11.2567 228.663 11.2406 228.968 11.1764C229.241 11.1282 229.514 11.0319 229.803 11.0319L230.076 10.9837L230.253 10.775L230.751 10.7428C230.911 10.775 231.104 10.8552 231.281 10.9034C231.457 10.9516 231.602 10.9998 231.698 11.1282C231.811 11.2888 231.907 11.4333 231.987 11.61L232.212 11.9151L232.18 12.3647L232.051 12.5734V12.8143C232.051 13.0712 232.084 13.3442 232.035 13.5851C231.955 14.0026 231.859 14.4843 231.682 14.8858L231.586 15.2069C231.554 15.3354 231.393 15.3514 231.297 15.4478L231.987 15.4157C232.26 15.4157 232.613 15.4157 232.774 15.3835C233.079 15.3354 233.352 15.223 233.673 15.1909C233.834 15.1748 233.994 15.1427 234.155 15.1266C234.508 15.1106 234.653 15.0463 234.845 15.0463C234.974 15.0463 235.118 15.1106 235.263 15.1748L235.118 14.966L235.07 14.7412C235.07 14.5485 235.006 14.388 235.006 14.1632C235.006 13.9705 235.102 13.8581 235.151 13.6654C235.199 13.4566 235.151 13.2479 235.183 13.023C235.215 12.8304 235.279 12.6698 235.327 12.4771C235.359 12.3326 235.359 12.2041 235.407 12.0596C235.52 11.7545 235.472 11.4494 235.407 11.1443L235.263 10.4859L235.215 10.4056L235.086 10.2932L234.99 10.1166L234.862 9.92389L234.99 9.65091C234.99 9.65091 234.926 9.61879 234.878 9.61879C234.845 9.61879 234.813 9.61879 234.781 9.61879C234.749 9.61879 234.701 9.61879 234.669 9.61879C234.669 9.61879 234.669 9.61879 234.653 9.61879C234.46 9.65091 234.3 9.68302 234.075 9.68302C233.898 9.68302 233.609 9.71514 233.432 9.71514C232.838 9.74726 232.389 9.77937 231.794 9.81149C231.393 9.82755 230.976 9.90783 230.59 9.98812C230.478 10.0202 230.349 10.0684 230.221 10.0684C230.205 10.0684 230.173 10.0684 230.157 10.0684C230.076 10.0684 230.028 10.0524 229.98 10.0524C229.932 10.0524 229.884 10.0524 229.803 10.0684C229.418 10.1166 228.776 10.1166 228.422 10.2772C228.326 10.3093 228.262 10.3414 228.181 10.3414C228.149 10.3414 228.101 10.3414 228.053 10.3414C227.876 10.3093 227.652 10.2611 227.475 10.229C227.475 10.229 227.443 10.229 227.427 10.229C227.379 10.229 227.33 10.229 227.266 10.229C227.218 10.229 227.17 10.229 227.122 10.229C227.09 10.229 227.057 10.229 227.041 10.229L226.881 10.0845L226.592 9.82754L226.383 9.50639C226.287 9.4261 226.19 9.39398 226.158 9.26552L226.094 8.94437V8.91225L226.447 8.78379H226.463C226.576 8.78379 226.656 8.86408 226.752 8.89619C226.784 8.89619 226.8 8.89619 226.817 8.89619C226.865 8.89619 226.897 8.89619 226.945 8.88013C226.993 8.88013 227.025 8.86408 227.073 8.86408C227.09 8.86408 227.122 8.86408 227.138 8.86408L227.443 8.89619C227.668 8.91225 227.876 8.92831 228.101 8.92831C228.326 8.92831 228.727 8.88013 228.952 8.86408C229 8.86408 229.049 8.86408 229.113 8.86408C229.225 8.86408 229.354 8.86408 229.498 8.86408C229.627 8.86408 229.755 8.86408 229.868 8.86408C229.9 8.86408 229.932 8.86408 229.948 8.86408C230.183 8.86408 230.414 8.86408 230.638 8.86408C230.943 8.86408 231.232 8.78379 231.521 8.78379C232.421 8.78379 233.272 8.76773 234.107 8.49475C234.171 8.47869 234.235 8.46263 234.283 8.46263C234.364 8.46263 234.46 8.46263 234.54 8.47869H234.765L234.958 8.41446H235.167C235.359 8.41446 235.488 8.41446 235.68 8.41446C235.825 8.41446 235.937 8.35023 236.05 8.35023C236.162 8.35023 236.307 8.46263 236.435 8.46263C236.435 8.46263 236.451 8.46263 236.467 8.46263L236.628 8.33417L236.885 8.25388C237.013 8.20571 237.094 8.18965 237.254 8.18965C237.35 8.18965 237.463 8.18965 237.575 8.18965C237.768 8.18965 237.961 8.18965 238.169 8.18965C238.394 8.18965 238.619 8.14148 238.844 8.14148C238.876 8.14148 238.924 8.14148 238.956 8.14148C238.988 8.14148 239.004 8.14148 239.02 8.14148C239.197 8.14148 239.326 8.04513 239.518 8.01301C239.695 7.99695 239.855 7.85243 240.016 7.85243H240.048C240.241 7.88455 240.514 7.93272 240.723 7.94878C240.947 7.96484 241.044 8.07724 241.188 8.15753C241.333 8.23782 241.301 8.47869 241.477 8.47869L241.734 8.38234H241.798C241.943 8.15753 242.023 7.86849 242.2 7.64368C242.344 7.48311 242.553 7.41887 242.698 7.29041C242.874 7.14589 243.067 6.88897 243.179 6.69627C243.34 6.43935 243.42 6.26271 243.645 6.05396L243.886 5.76492C243.998 5.60434 244.079 5.42771 244.175 5.26713L244.32 4.97809L244.432 4.73722L244.609 4.52847C245.058 3.99856 245.187 3.58106 245.46 2.92269C245.556 2.68182 245.508 2.55336 245.476 2.31249C245.46 2.16797 245.476 1.9271 245.524 1.78258L245.813 1.58989L246.295 1.99133C246.407 2.16797 246.616 2.2322 246.809 2.36066L246.937 2.69788C246.937 2.8424 246.857 2.87451 246.841 3.00298L247.017 3.32413C247.114 3.4526 247.114 3.51683 247.178 3.6774C247.29 3.96645 247.547 4.25549 247.708 4.52847C247.884 4.78539 248.061 5.05838 248.302 5.28319L248.462 5.42771L248.495 5.58828L248.784 5.84521L248.944 6.0379L249.073 6.19848C249.297 6.45541 249.506 6.58387 249.715 6.77656C249.811 6.87291 250.036 7.03349 250.116 7.2583C250.165 7.40282 250.357 7.41887 250.422 7.43493C250.598 7.53128 250.695 7.64368 250.711 7.94878C250.518 8.20571 250.132 8.63927 249.876 8.78379C249.715 8.88013 249.57 8.86408 249.362 8.88013C249.217 8.88013 249.201 8.7035 249.041 8.7035C249.008 8.7035 248.992 8.7035 248.96 8.7035C248.816 8.7035 248.735 8.68744 248.591 8.63927L248.382 8.55898L248.206 8.33417L247.949 8.06119C247.82 7.93272 247.772 7.91667 247.804 7.74003V7.41887C247.772 7.30647 247.708 7.19406 247.676 7.0656C247.644 6.92108 247.611 6.74445 247.515 6.63204L247.194 6.45541C247.001 6.32694 246.937 6.00579 246.857 5.79704C246.744 5.47588 246.712 5.13867 246.519 4.84962C246.439 4.72116 246.359 4.5927 246.214 4.52847C246.166 4.51241 246.134 4.49635 246.102 4.49635C246.022 4.49635 245.974 4.56058 245.893 4.65693C245.797 4.78539 245.717 4.94597 245.636 5.09049C245.54 5.26713 245.444 5.45982 245.331 5.6204C245.106 5.97367 244.962 6.4554 244.641 6.74445L244.448 6.96926L244.304 7.14589C244.175 7.43493 244.095 7.77214 243.886 8.01301C243.725 8.22176 243.661 8.26994 243.581 8.41446C243.501 8.54292 243.404 8.78379 243.26 8.88013L243.179 8.91225L243.324 9.05677L243.517 9.26552L243.581 9.36187L243.517 9.57062C243.308 9.66697 243.147 9.66697 242.987 9.8436C242.89 9.93995 242.826 10.0042 242.682 10.0202L242.393 9.98812C242.393 9.98812 242.296 9.98812 242.248 9.98812C242.152 9.98812 242.071 9.98812 241.975 10.0042C241.879 10.0042 241.798 10.0202 241.702 10.0202H241.67C241.509 10.0202 241.365 9.90783 241.204 9.85966C240.835 9.71514 240.434 9.69908 240.048 9.66697C239.759 9.65091 239.47 9.60274 239.197 9.60274C239.085 9.60274 238.972 9.60274 238.86 9.61879L238.924 9.71514C239.02 9.82755 239.149 9.89178 239.293 9.92389L239.326 10.1969C239.326 10.1969 239.293 10.1969 239.277 10.1969C239.181 10.1969 239.117 10.229 239.02 10.229C238.876 10.229 238.828 10.1487 238.715 10.1166H238.41C238.234 10.0524 238.266 9.87572 238.121 9.82754C238.266 9.7312 238.491 9.81149 238.635 9.71514V9.61879L238.523 9.60274L238.266 9.52245C238.266 9.52245 238.169 9.52245 238.105 9.52245C238.041 9.52245 237.961 9.52245 237.896 9.52245C237.816 9.52245 237.752 9.52245 237.672 9.52245C237.64 9.52245 237.607 9.52245 237.575 9.52245C237.463 9.52245 237.158 9.45822 236.965 9.45822C236.837 9.45822 236.756 9.47427 236.821 9.5385C236.933 9.61879 237.094 9.81149 237.045 10.0042C236.981 10.2772 236.949 10.1326 236.997 10.4217C237.029 10.6144 236.965 10.7107 236.901 10.8552L236.532 10.791L236.483 10.9034L236.275 10.9998L236.307 11.2406L236.483 11.4012L236.644 11.2727L236.724 11.2246H236.837V11.4494C236.837 11.626 236.837 11.7866 236.885 11.9472L236.981 12.172C237.029 12.3968 236.981 12.6377 236.981 12.8625V13.1515L236.917 13.4084C236.917 13.7296 237.126 14.1471 236.885 14.4201C236.772 14.5485 236.708 14.6931 236.596 14.8536L236.451 15.0463C236.355 15.1587 236.194 15.3193 236.082 15.4638C236.259 15.5602 236.451 15.6405 236.66 15.6726C236.917 15.7047 236.981 15.6726 237.142 15.8813C237.238 15.9937 237.35 16.074 237.415 16.2186V16.4112L237.27 16.6039C237.077 16.7645 237.11 16.9412 236.869 16.9572C236.676 16.9572 236.499 16.9733 236.323 17.0536C236.114 17.1499 236.05 17.1499 235.809 17.2944H235.488C235.311 17.3105 235.167 17.2463 235.006 17.1338C234.813 17.0054 234.653 16.9893 234.46 16.8769C234.299 16.7806 234.171 16.7324 233.978 16.6682C233.641 16.5397 233.192 16.6039 232.838 16.5718C232.469 16.5397 232.1 16.4755 231.73 16.4755C231.666 16.4755 231.602 16.4755 231.538 16.4755H231.377L231.136 16.5879C231.04 16.62 230.976 16.6361 230.879 16.6361C230.847 16.6361 230.831 16.6361 230.799 16.6361H230.767C230.654 16.6361 230.542 16.6682 230.446 16.6682C230.333 16.6682 230.349 16.5397 230.124 16.5397L229.627 16.5718L229.916 16.7806V16.9893V17.2944C229.916 17.3747 229.916 17.455 229.948 17.6156C229.948 17.8083 229.9 17.9528 229.932 18.1134C229.964 18.2579 229.98 18.4024 229.964 18.563C229.964 18.7075 229.964 18.9805 229.9 19.109C229.835 19.2535 229.819 19.3498 229.675 19.4462L229.595 19.5104H229.675C229.932 19.4783 230.076 19.4622 230.317 19.4141L230.638 19.3659C230.735 19.3659 230.847 19.2214 231.12 19.2214H231.152C231.329 19.2535 231.441 19.3177 231.618 19.3177C231.618 19.3177 231.634 19.3177 231.65 19.3177C231.682 19.3177 231.698 19.3177 231.714 19.3177C231.827 19.3177 231.891 19.3498 232.035 19.398C232.549 19.6068 232.389 19.398 232.613 19.6389C232.886 19.9279 233.143 20.2169 233.047 20.506C232.999 20.6505 232.774 20.9877 232.774 21.1483C232.774 21.3249 232.742 21.341 232.726 21.5497C232.694 21.7424 232.646 21.9191 232.694 22.1599C232.726 22.3045 232.742 22.4329 232.726 22.5774C232.694 22.9147 232.742 22.9949 232.726 23.1876C232.71 23.4606 232.694 23.6051 232.646 23.7978C232.597 24.0387 232.565 24.2314 232.581 24.392V24.8898L232.373 25.0343L232.116 25.2109C231.971 25.3233 231.875 25.4679 231.714 25.5803C231.57 25.6766 231.409 25.7087 231.265 25.8211C231.152 25.8854 231.136 25.9335 231.088 25.9335C231.056 25.9335 231.008 25.9175 230.927 25.8693C230.815 25.516 230.654 25.243 230.719 24.8737C230.751 24.6971 230.719 24.681 230.815 24.5526C230.927 24.3759 230.895 23.9905 230.943 23.7818V23.557H231.072L231.313 23.6051L231.473 23.7657L231.538 23.7015L231.409 23.4927L231.329 23.2358C231.329 23.2358 231.104 23.1876 230.959 23.1876C230.959 22.8504 231.088 22.738 231.104 22.3366V22.0475C231.104 21.7264 230.992 21.3731 231.024 21.052L230.863 21.0198C230.686 20.7629 230.478 20.5863 230.173 20.4418C230.076 20.7147 229.691 20.6505 229.434 20.7147C229.386 20.7147 229.322 20.7308 229.273 20.7308C229.161 20.7308 229.049 20.7147 228.92 20.6987C228.856 20.6987 228.792 20.6987 228.711 20.6987C228.599 20.6987 228.487 20.6987 228.39 20.6987L227.973 20.7308C227.844 20.7469 227.748 20.8432 227.603 20.8753H227.266C227.17 20.8432 227.09 20.8432 226.993 20.8432C226.415 20.8432 225.853 21.0198 225.275 21.0198C225.002 21.0198 224.729 21.0198 224.472 21.052L224.135 21.1322L223.958 21.2286H223.621L223.396 21.1162L223.091 20.9717L222.802 20.8593H222.77L222.609 20.6023L222.529 20.5381V20.3294L222.561 20.1045L222.722 20.0724L222.931 19.9761C222.931 19.9761 222.995 19.9761 223.027 19.9761C223.091 19.9761 223.155 19.9761 223.204 19.9921C223.268 19.9921 223.332 20.0082 223.38 20.0082C223.412 20.0082 223.428 20.0082 223.46 20.0082C223.621 19.9921 223.798 19.9761 223.974 19.9761C224.039 19.9761 224.087 19.9761 224.151 19.9761C224.215 19.9761 224.263 19.9761 224.328 19.9761C224.376 19.9761 224.424 19.9761 224.472 19.9761C224.536 19.9761 224.601 19.9761 224.665 19.9761C224.938 19.9761 225.195 19.9921 225.468 20.0082C225.596 20.0243 225.741 20.0403 225.869 20.0403C225.949 20.0403 226.046 20.0403 226.142 20.0082L226.431 19.8637C226.56 19.8476 226.72 19.8476 226.849 19.8476C227.073 19.8476 227.25 19.8155 227.443 19.7994C227.571 19.7994 227.684 19.7834 227.812 19.7834C227.908 19.7834 228.021 19.7834 228.117 19.7834H228.342L228.31 19.4943L228.23 19.2374C228.149 19.109 228.037 19.0608 228.053 18.8841C228.23 18.0973 228.214 18.1455 228.23 17.9046C228.246 17.7119 228.198 17.5192 228.214 17.3265C228.214 17.1981 228.214 17.0536 228.181 16.9251C228.133 16.7806 228.021 16.7163 227.941 16.6842L227.716 16.7163C227.571 16.7324 227.459 16.7324 227.33 16.7324H227.122C226.929 16.7324 226.672 16.8448 226.463 16.8448C226.431 16.8448 226.399 16.8448 226.367 16.8448L225.933 16.6842C225.933 16.6842 225.933 16.6842 225.917 16.6842C225.757 16.6842 225.741 16.7806 225.612 16.8769L225.387 16.9572H225.05C224.874 16.9572 224.729 17.0054 224.552 17.0375C224.167 17.1017 223.766 17.1338 223.38 17.1338C223.187 17.1338 222.995 17.1338 222.802 17.1338L222.625 17.1017L222.513 17.0054L222.208 17.166C222.031 17.2141 221.871 17.2463 221.694 17.2623C221.582 18.1134 221.501 18.9805 221.485 19.8637C221.485 21.9833 221.79 24.0226 222.385 25.9496L222.915 25.6124L223.974 26.3029C223.974 26.3029 223.717 26.5116 223.846 27.1379L223.926 27.9086H223.38C223.38 27.9086 223.139 27.4911 222.834 27.186C224.071 30.3976 226.126 33.1917 228.711 35.3595H228.872H229.193L229.418 35.2631C229.595 35.231 230.012 35.2952 230.108 35.0865L230.076 34.9098V34.6208C229.932 34.0267 229.787 34.0588 229.819 33.9143C229.868 33.7216 229.948 33.6252 230.028 33.577L229.707 33.5289C229.546 33.4968 229.386 33.5289 229.225 33.4807C229.081 33.4486 228.936 33.3522 228.824 33.3362H228.583C228.583 33.3362 228.503 33.3683 228.454 33.3683C228.438 33.3683 228.406 33.3683 228.374 33.3522L228.181 33.2077L227.973 33.015L227.828 32.7902L227.684 32.5654L227.555 32.3085C227.555 32.3085 227.491 32.164 227.443 32.0355C227.395 31.891 227.363 31.7625 227.379 31.7625C227.379 31.7625 227.379 31.7625 227.395 31.7786C227.25 31.5859 227.218 31.5377 227.266 31.2968C227.346 30.9757 227.346 30.7509 227.523 30.4458C227.684 30.1888 227.812 29.8677 228.117 29.7553L228.422 29.675V29.4823L228.599 29.402C228.76 29.3378 228.872 29.2254 229.033 29.1611C229.338 29.0166 229.675 29.0006 229.996 28.9203C230.301 28.84 230.494 28.7597 230.815 28.7597H230.863C231.088 28.7597 231.104 28.8882 231.265 29.0006C231.409 29.0969 231.57 29.0648 231.73 29.113C231.955 29.1772 232.164 29.2575 232.389 29.3378L232.678 29.4984L232.951 29.6911L233.256 29.9801C233.336 30.1567 233.416 30.3173 233.481 30.51V30.7669C233.481 30.8793 233.481 30.9436 233.481 31.1523C233.513 31.345 233.529 31.3771 233.513 31.5377C233.513 31.6983 233.432 31.6662 233.32 31.7786C233.175 31.9231 233.159 32.1479 233.047 32.3406C232.951 32.5172 232.774 32.8544 232.581 32.9508L232.26 33.1114L231.891 33.3041C231.746 33.3843 231.602 33.4325 231.473 33.5289L231.329 33.6092L231.265 33.6573L231.056 33.7537V33.8821L231.249 34.0748C231.409 34.4281 231.249 34.7493 231.329 34.8617L231.425 35.3273L231.473 35.1507C231.65 35.0704 232.26 35.0544 232.437 35.0062C232.902 34.8617 233.336 34.7814 233.802 34.7011C233.914 34.685 234.027 34.6369 234.139 34.6369C234.171 34.6369 234.203 34.6369 234.235 34.6369C234.412 34.669 234.556 34.7814 234.733 34.8135H235.038V34.7493C234.878 34.4602 234.733 34.3799 234.669 34.1551C234.605 33.9464 234.701 33.7537 234.749 33.5449C234.894 33.4807 235.038 33.4004 235.199 33.3362C235.215 33.1435 235.215 32.9026 235.215 32.7099C235.359 32.7099 235.456 32.726 235.6 32.726C235.568 32.9026 235.44 33.0953 235.407 33.2719C235.359 33.5128 235.391 33.7858 235.375 34.0267C235.359 34.2354 235.279 34.4602 235.295 34.6529V34.7653C235.295 34.7653 235.375 34.7653 235.407 34.7653C235.488 34.7653 235.552 34.7814 235.648 34.8456L235.841 35.0222L236.162 35.3434C236.162 35.3434 236.242 35.4237 236.275 35.4237C236.291 35.4237 236.307 35.3916 236.403 35.3755L236.612 35.4076C236.515 35.1346 236.355 35.1828 236.066 35.0544C236.082 34.9259 235.986 34.8135 235.986 34.669C235.986 34.5245 236.034 34.5405 236.082 34.4281C236.21 34.1391 236.178 33.7216 236.13 33.4165C236.082 33.0311 236.082 32.6296 236.194 32.2603C236.242 32.0837 236.275 32.0034 236.226 31.8267C236.194 31.6662 236.162 31.5056 236.194 31.3611C236.259 31.0881 236.21 30.799 236.226 30.51C236.226 30.0604 236.226 29.6268 236.226 29.1772C236.226 28.856 236.259 28.5349 236.291 28.2137C236.307 28.0371 236.307 27.9568 236.242 27.7641C236.146 27.4911 236.226 27.4911 236.435 27.3145C236.21 27.17 236.291 26.9933 236.194 26.7685C236.114 26.5919 236.066 26.3992 236.066 26.2065C236.066 25.9817 235.986 25.7729 235.986 25.5803L235.953 25.4036C235.921 25.3233 235.6 24.8255 235.263 24.665L235.199 24.5204V24.4562L235.006 24.6489C234.878 24.7292 234.701 25.0182 234.621 25.1306L234.412 25.3876L234.027 25.6284C233.721 25.8211 233.513 26.0459 233.159 26.1102L232.806 25.9978H232.501L232.405 25.7087L232.597 25.4679L232.935 25.0664L233.175 24.6489C233.304 24.4402 233.448 24.3117 233.529 24.2153C233.721 23.9584 233.898 23.8621 234.091 23.6533C234.187 23.5409 234.332 23.4767 234.38 23.3322C234.444 23.1395 234.492 23.1074 234.621 22.9628C235.038 22.449 235.552 21.8709 235.616 21.7103C235.68 21.5819 235.777 21.5176 235.857 21.4534L236.018 21.2446L236.178 20.9877C236.275 20.8271 236.371 20.6826 236.499 20.5542C236.612 20.4418 236.724 20.3133 236.788 20.1688L236.869 19.96V19.7352C236.917 19.6228 236.933 19.4943 236.965 19.3498C236.981 19.2535 236.997 19.2053 236.965 19.0126C236.949 18.9002 236.949 18.9002 236.885 18.7717V18.6272C236.885 18.6272 236.853 18.6272 236.837 18.6272C236.805 18.6272 236.772 18.6433 236.724 18.6754C236.692 18.6915 236.644 18.7236 236.596 18.7236C236.467 18.7236 236.323 18.7075 236.178 18.6915L235.777 18.6112C235.777 18.6112 235.664 18.6112 235.584 18.6112C235.456 18.6112 235.311 18.6112 235.151 18.6112C235.118 18.6112 235.086 18.6112 235.07 18.6112H235.006C234.845 18.6112 234.685 18.6112 234.54 18.7236L234.396 18.6593L234.107 18.2258L233.994 18.1294L233.898 18.0813V18.0331L233.818 17.5995L233.914 17.4229L234.428 17.5514C234.589 17.5835 234.781 17.5995 234.958 17.5995C234.99 17.5995 235.006 17.5995 235.022 17.5995L235.295 17.5514L235.407 17.5835L235.52 17.6316L235.777 17.4871L236.114 17.4389C236.339 17.3908 236.564 17.3908 236.788 17.3908L237.126 17.4389C237.254 17.4389 237.238 17.3587 237.334 17.3426C237.383 17.3265 237.431 17.3265 237.495 17.3265C237.623 17.3265 237.752 17.3426 237.848 17.3426C237.961 17.3426 238.057 17.3426 238.169 17.3426C238.282 17.3426 238.394 17.3426 238.507 17.3105C238.731 17.2463 238.924 17.1178 239.149 17.0375C239.293 16.9893 239.406 16.8769 239.55 16.8769H239.566H239.599C239.759 16.8769 239.888 16.8127 240.032 16.7806C240.064 16.7806 240.08 16.7806 240.112 16.7806C240.273 16.7806 240.353 16.8769 240.498 16.9251C240.546 16.9572 240.899 17.0696 240.899 17.0696C240.899 17.0696 240.899 17.0696 240.851 17.0536L241.06 17.182C241.06 17.182 241.124 17.182 241.14 17.182C241.172 17.182 241.172 17.182 241.204 17.182C241.22 17.182 241.236 17.182 241.285 17.182H241.317L241.606 17.2784L241.638 17.455V17.5995V17.728L241.493 18.0652C241.461 18.1937 241.349 18.3382 241.236 18.4345L241.108 18.6112H240.771C240.691 18.6112 240.594 18.6112 240.498 18.6112C240.305 18.6112 240.112 18.6272 239.952 18.6433L239.743 18.6915L239.583 18.7396L239.261 18.7075L238.924 18.6433L238.635 18.5951C238.635 18.5951 238.587 18.4827 238.523 18.4827C238.442 18.4827 238.362 18.5148 238.314 18.5309C238.185 18.5791 238.041 18.5469 237.913 18.5791L237.848 18.5469L238.009 18.6593L238.234 19.0287C238.314 19.1571 238.458 19.2374 238.475 19.398L238.346 19.8797L238.458 20.0082L238.587 20.2491C238.635 20.3775 238.635 20.3936 238.683 20.506L238.78 20.7469L238.956 21.052C239.053 21.2928 239.181 21.4695 239.342 21.6461C239.566 21.887 239.647 22.1439 239.872 22.3848C239.936 22.465 240.032 22.6899 239.968 22.8183C239.968 22.8665 239.968 22.8825 239.968 22.8825C239.968 22.8825 240 22.8825 240.016 22.8504C240.048 22.8504 240.064 22.8183 240.096 22.8183C240.128 22.8183 240.161 22.8183 240.177 22.8665L240.337 23.0271L240.514 23.1395L240.61 23.2198L240.851 23.4446L241.06 23.7176L241.204 23.7978L241.445 23.9745C241.542 24.0387 241.622 24.0548 241.654 24.2153V24.392L241.526 24.6007L241.188 24.8416C241.012 24.9861 240.723 25.227 240.514 25.227C240.418 25.227 240.353 25.2109 240.209 25.1628C240.08 25.1306 240.016 25.1306 239.92 25.0503C239.807 24.9379 239.711 24.9701 239.583 24.9219C239.326 24.8255 239.261 24.5044 239.117 24.2956L238.94 24.0548L239.004 23.7497C238.956 23.6212 238.892 23.5249 238.828 23.3964L238.635 23.2519L238.555 23.1876C238.442 23.0913 238.378 22.8825 238.346 22.7541C238.33 22.6256 238.202 22.4811 238.153 22.3205C238.105 22.2723 238.105 22.1599 238.057 21.9833C238.009 21.7585 237.929 21.4213 237.961 21.2125C237.961 21.068 237.816 21.1644 237.8 21.068L237.72 20.8914C237.72 20.8914 237.688 20.8914 237.672 20.8914C237.495 20.8914 237.19 21.5337 237.142 21.63C237.029 21.8227 236.853 21.9191 236.756 22.1118C236.644 22.3366 236.499 22.5293 236.339 22.7059L236.098 23.0271C236.002 23.1234 235.986 23.1395 235.905 23.284C235.825 23.4446 235.697 23.5088 235.6 23.6533C235.504 23.8139 235.52 23.8621 235.456 24.0548V24.1029L235.697 23.9905C235.729 23.9905 235.761 23.9905 235.793 23.9905C235.905 23.9905 235.937 24.0226 236.066 24.0708L236.403 24.1993C236.66 24.2635 236.885 24.4241 237.142 24.4241C237.174 24.4241 237.206 24.4241 237.238 24.4241C237.286 24.4241 237.334 24.4241 237.367 24.4241C237.479 24.4241 237.543 24.4562 237.656 24.5365L237.816 24.6971C238.041 24.9058 237.816 24.8737 238.025 25.0503C238.073 25.4197 237.993 25.6284 237.977 25.8051C237.977 25.9335 237.929 25.9496 237.929 26.078C237.912 26.4153 237.929 26.7525 237.929 27.0897C237.929 27.3948 237.929 27.6838 238.025 27.9729C238.105 28.2619 237.961 28.5831 237.913 28.8721C237.88 29.0166 237.913 29.1451 237.913 29.2896C237.913 29.4662 237.848 29.6108 237.88 29.7713C237.913 29.9319 238.025 30.0604 238.089 30.221L238.475 30.2531L238.699 30.1246C238.924 30.0604 239.037 29.8677 239.245 29.8516C239.422 29.8356 239.615 29.8195 239.775 29.8195H239.791C239.984 29.8195 240.096 29.948 240.273 29.9962C240.305 29.9962 240.321 29.9962 240.353 29.9962C240.385 29.9962 240.434 29.9962 240.466 29.9962C240.498 29.9962 240.53 29.9962 240.562 29.9962C240.61 29.9962 240.658 29.9962 240.723 30.0283C240.915 30.1246 241.204 30.1728 241.381 30.2691C241.509 30.3494 241.493 30.51 241.493 30.6866C241.509 30.8472 241.654 31.056 241.606 31.1844C241.542 31.3771 241.285 31.6501 241.028 31.6501C241.012 31.6501 240.98 31.6501 240.963 31.6501L240.739 31.6019C240.594 31.5698 240.418 31.5698 240.273 31.5216C240.112 31.4895 239.952 31.4253 239.775 31.4253L239.583 31.4574H239.293H238.924C238.908 31.4574 238.876 31.4574 238.86 31.4574C238.603 31.4574 238.394 31.3611 238.153 31.3289L238.105 31.5056L237.913 31.4253L237.656 31.3771L237.816 31.0399H237.431L237.222 31.1523L237.19 31.3611V31.5538L236.885 31.5698L237.061 31.9391L237.142 31.8589L237.334 31.7465L237.238 31.5538C237.367 31.5538 237.527 31.5216 237.688 31.5216C237.784 31.5216 237.864 31.5216 237.945 31.5698C237.945 31.7143 238.025 31.907 237.993 32.0355C237.961 32.2121 237.768 32.2924 237.736 32.4691C237.736 32.6296 237.704 32.6617 237.72 32.7099C237.816 32.999 237.752 33.3201 237.72 33.6092C237.704 33.7858 237.768 34.1872 237.623 34.3318C237.768 34.396 237.8 34.3799 237.832 34.5405C237.848 34.7332 237.816 34.958 237.784 35.1507C237.752 35.4719 237.848 35.793 237.848 36.0981C237.848 36.3229 237.848 36.5156 237.848 36.7404C237.848 36.8849 237.784 36.9974 237.768 37.1419C237.768 37.3667 237.768 37.5754 237.8 37.7842C237.8 37.9769 237.88 38.2017 237.864 38.3944C237.864 38.5389 237.784 38.7477 237.72 38.8922L237.559 39.117C237.479 39.2455 237.527 39.3739 237.479 39.5024C238.78 39.7754 240.112 39.968 241.493 39.9841H241.606C244.4 39.9841 247.049 39.406 249.458 38.3783C249.442 38.298 249.458 38.1696 249.458 37.9929C249.458 37.7681 249.458 37.5433 249.458 37.3185C249.474 37.0937 249.41 37.0295 249.41 36.7886C249.41 36.3711 249.41 36.1142 249.458 35.8412C249.49 35.6324 249.506 35.4397 249.538 35.2631C249.587 34.9901 249.522 34.5887 249.49 34.3157C249.458 34.0267 249.49 33.7537 249.49 33.4807C249.474 33.2238 249.49 32.7742 249.522 32.5172L249.763 32.3406C249.763 32.3406 249.651 32.3245 249.538 32.3245C249.474 32.3245 249.394 32.3245 249.33 32.3245C249.249 32.3245 249.185 32.3245 249.121 32.3245C249.073 32.3245 249.008 32.3245 248.976 32.3245V32.453C248.816 32.453 248.735 32.4691 248.639 32.5493L248.479 32.6939C248.479 32.6939 248.446 32.6939 248.43 32.6939C248.318 32.6939 248.206 32.5975 248.093 32.5654L247.676 32.6136H247.435C247.29 32.6457 247.194 32.742 247.049 32.742C247.049 32.742 247.033 32.742 247.017 32.742C246.889 32.726 246.809 32.6939 246.664 32.5815L246.407 32.4048C246.295 32.3085 246.295 32.2603 246.247 32.1318L246.166 31.9713L246.23 31.5859C246.359 31.5859 246.407 31.5859 246.519 31.5377C246.648 31.4895 246.68 31.3932 246.841 31.3932C246.873 31.3932 246.905 31.3932 246.921 31.3932C247.146 31.3932 247.354 31.4253 247.563 31.4414H247.595C247.788 31.4414 247.949 31.3771 248.125 31.3611L248.414 31.2968C248.414 31.2968 248.559 31.2808 248.639 31.2808C248.719 31.2808 248.816 31.2808 248.896 31.2808C248.944 31.2808 249.105 31.345 249.201 31.345C249.265 31.345 249.314 31.3129 249.233 31.2005L249.394 30.8312L249.33 30.7348V30.6385C249.362 30.3334 249.281 29.964 249.378 29.675L249.506 29.6429C249.378 29.5465 249.474 29.3699 249.362 29.2575C249.281 29.1451 249.217 29.1933 249.201 29.0166V28.6955L249.169 28.3904C249.153 28.1334 249.024 28.021 248.864 27.8765L248.655 27.6678L248.511 27.443L248.398 27.2503L248.302 27.1218L248.157 27.0094L248.206 26.8328L248.286 26.6882L248.414 26.5277L248.816 26.5598C248.992 26.5598 249.089 26.7846 249.265 26.8649C249.442 26.9612 249.554 26.9773 249.651 27.1539L249.731 27.0415H249.908C250.1 27.0576 250.309 27.1539 250.486 27.2182C250.727 27.3145 250.582 27.3627 250.678 27.5393L250.775 27.6838C250.839 27.8444 250.727 27.9086 250.711 28.0853L250.486 28.1174L250.438 28.2619L250.1 28.1174L249.827 28.2619C249.779 28.4064 249.651 28.6473 249.667 28.6955L249.811 28.8882L250.1 29.1451C250.1 29.1451 250.132 29.1772 250.149 29.1772C250.213 29.1772 250.197 28.9524 250.213 28.8721L250.486 28.5349C250.486 28.5349 250.566 28.4707 250.598 28.4707C250.63 28.4707 250.646 28.5349 250.695 28.6473C250.727 28.7436 250.807 28.7597 250.807 28.8882C250.807 29.0648 250.678 29.2575 250.662 29.4823H250.357L250.133 29.5305L250.02 29.7553L250.084 30.1246L249.956 30.0764C249.892 29.9319 249.956 29.948 249.763 29.8837L249.587 30.221L249.779 30.5261C249.811 30.6545 249.892 30.799 250.004 30.9757C250.036 30.9757 250.068 30.9757 250.1 30.9757C250.181 30.9757 250.277 30.9436 250.373 30.8312L250.662 30.7188H250.823C250.807 30.9436 250.727 31.1684 250.887 31.3611C251.032 31.5377 250.951 31.8428 250.951 32.0837L250.807 32.18V32.4851C250.807 32.7902 250.662 33.0953 250.678 33.4004C250.711 33.6092 250.695 33.85 250.678 34.0588C250.678 34.2836 250.678 34.4763 250.678 34.7011C250.678 34.9098 250.727 35.1186 250.727 35.3434V35.6806C250.678 35.8573 250.695 35.8733 250.678 36.0339C250.678 36.1624 250.662 36.355 250.711 36.5799C250.759 36.7565 250.727 36.7404 250.759 36.9171C250.775 37.0937 250.807 37.1901 250.711 37.3988C250.662 37.4951 250.598 37.5433 250.55 37.6718L250.47 37.8966C250.984 37.6397 251.481 37.3667 251.963 37.0616C251.963 36.901 251.963 36.7404 251.963 36.5959C251.995 36.2266 252.011 36.1302 251.979 35.9054L251.947 35.5843C251.947 35.4719 251.995 34.1551 251.979 34.0267C251.979 33.85 252.14 32.9347 251.979 32.8384L251.915 32.3085C251.915 32.164 251.915 31.9552 251.851 31.8267C251.802 31.5216 251.786 30.783 251.819 30.4779C251.851 30.237 251.915 30.0764 251.819 29.8677C251.819 29.7232 251.77 29.402 251.754 29.2575C251.754 29.129 251.754 29.0166 251.754 28.8882V28.6473L251.722 28.567V28.4225V28.3101L251.642 28.0692L251.578 27.9247L251.674 27.6999V27.5232C251.722 27.4269 251.754 27.3466 251.835 27.3466C251.867 27.3466 251.899 27.3466 251.931 27.3627V27.2021L251.835 27.1379L251.674 26.9933V26.7204L251.385 26.7364L251.16 26.5116L251.032 26.3831C251.032 26.3831 250.855 26.1905 250.534 25.9656C250.534 25.8372 250.405 25.6766 250.438 25.5481L250.502 25.5L250.55 25.4518L250.646 25.3715L250.727 25.3233L250.887 25.2912L251.016 25.3394L251.224 25.4197L251.353 25.5L251.513 25.5642L251.851 25.6124H252.172H252.445C252.605 25.6124 252.798 25.7408 252.927 25.8532L252.798 25.5481V25.3715L252.862 25.227L252.943 24.8577L252.862 24.7131V24.6168L252.702 24.4883L252.814 24.3277L252.589 24.4562C252.589 24.4562 252.605 24.3438 252.525 24.2153L252.638 23.9424C252.638 23.9424 252.798 24.1351 252.943 24.1672V24.0708C252.975 23.7015 253.2 23.4606 253.36 23.1395C253.44 22.9789 253.521 22.8023 253.681 22.7059C253.842 22.5935 254.051 22.5614 254.211 22.4329L254.452 22.1118C254.581 21.9994 254.693 21.9833 254.853 21.9672C255.159 21.9351 255.464 21.9351 255.785 21.9191C255.865 21.9191 255.945 21.9191 256.026 21.9191C256.251 21.9191 256.475 21.9191 256.716 21.9512C257.037 21.9833 257.487 22.1439 258.161 22.3205L258.418 22.5453L258.547 22.8344L258.772 23.1234L258.868 23.0592L258.707 22.722V22.5132L258.756 22.2081C258.756 22.0154 258.756 21.7906 258.788 21.5979C258.82 21.4213 258.916 21.341 258.884 21.1804C258.868 21.052 258.852 20.8914 258.836 20.7308C258.82 20.4578 258.772 20.2169 258.788 19.944C258.788 19.7673 258.723 19.687 258.675 19.5265C258.627 19.3819 258.675 19.3017 258.515 19.2856H258.145C258.033 19.3338 257.921 19.4141 257.792 19.4462C257.471 19.5265 257.15 19.6549 256.813 19.687C256.796 19.687 256.78 19.687 256.764 19.687C256.636 19.687 256.62 19.6389 256.491 19.5907C256.363 19.5425 256.267 19.4943 256.138 19.4943C256.106 19.4943 256.074 19.4943 256.042 19.4943C255.881 19.5104 255.737 19.5425 255.576 19.5907C255.48 19.6228 255.432 19.6549 255.351 19.6549C255.303 19.6549 255.271 19.6549 255.207 19.6228L254.837 19.4783L254.741 19.3017L254.548 18.9644V18.7557C254.789 18.7557 254.805 18.7236 255.014 18.7075C255.175 18.7075 255.351 18.6593 255.512 18.6433C255.705 18.6433 255.737 18.6112 255.865 18.5309C255.961 18.4666 255.945 18.4666 256.09 18.4506L256.411 18.4024C256.684 18.3382 256.893 18.2579 257.134 18.2579C257.182 18.2579 257.23 18.2579 257.278 18.2579C257.471 18.274 257.696 18.29 257.904 18.29C257.969 18.29 258.033 18.29 258.097 18.29H258.113C258.322 18.29 258.466 18.4345 258.659 18.5309L258.804 18.4345C258.836 18.3061 258.739 18.3221 258.707 18.2418V18.017C258.723 17.8725 258.772 17.728 258.804 17.5674C258.82 17.455 258.852 17.455 258.804 17.3265L258.723 17.1178C258.691 16.9733 258.723 16.8288 258.675 16.6842C258.643 16.5397 258.659 16.4434 258.659 16.2988C258.659 16.2988 258.643 16.2988 258.627 16.2988C258.515 16.2988 258.45 16.3952 258.37 16.4434C258.258 16.5076 258.338 16.5879 258.129 16.6521C257.824 16.7485 257.359 16.9251 257.021 16.9251C256.989 16.9251 256.957 16.9251 256.909 16.9251C256.813 16.9251 256.732 16.9251 256.636 16.9251H256.475C256.315 16.9251 256.251 16.9251 256.122 16.8448L255.994 16.7806H255.737C255.64 16.7806 255.544 16.7806 255.448 16.7806C255.367 16.7806 255.287 16.7806 255.207 16.7485C255.094 16.7163 254.853 16.5718 254.709 16.5718C254.613 16.5718 254.548 16.62 254.564 16.7966L254.709 17.0054V17.166L254.661 17.3105V17.6156C254.597 17.9207 254.356 18.1134 254.324 18.4185L254.275 18.8039C254.275 18.9163 254.34 18.9163 254.243 19.0608L254.099 19.3017C254.018 19.4622 253.986 19.4943 253.826 19.5746C253.649 19.6549 253.456 19.6549 253.28 19.7673C253.119 19.8637 252.959 20.0082 252.798 20.1045L252.638 20.1848C252.381 20.2972 252.059 20.3454 251.819 20.4899C251.594 20.6184 251.401 20.8271 251.128 20.8271C251.096 20.8271 251.048 20.8271 251 20.8271C250.919 20.8111 250.839 20.795 250.759 20.795C250.727 20.795 250.695 20.795 250.646 20.795C250.598 20.795 250.582 20.795 250.534 20.795C250.47 20.795 250.405 20.795 250.325 20.795C250.149 20.7629 249.988 20.6826 249.843 20.5863L249.474 20.3775L249.249 20.0564C249.057 19.8637 248.88 19.6549 248.671 19.4622L248.495 19.1732C248.382 19.0447 248.35 18.9323 248.254 18.8039C248.173 18.7075 248.109 18.6754 248.029 18.5309L247.933 18.274C247.852 18.0973 247.756 18.1615 247.804 17.9046C247.852 17.6798 247.933 17.4229 248.045 17.2141C248.125 17.0375 248.093 16.909 248.27 16.7324C248.366 16.62 248.446 16.4915 248.495 16.347L248.575 16.058L248.719 15.9135C248.8 15.8171 248.976 15.7208 249.153 15.7208C249.201 15.7208 249.249 15.7208 249.281 15.7368C249.442 15.6726 249.137 15.6726 249.201 15.5602L249.297 15.4638L249.394 15.3354C249.603 15.3193 249.94 15.2551 250.116 15.239C250.405 15.2069 250.63 15.1106 250.887 15.0142L251.16 14.9018L251.449 15.0303C251.449 15.0303 251.562 15.0624 251.626 15.0624C251.658 15.0624 251.69 15.0624 251.706 15.0624H251.835C252.14 15.0624 252.445 15.1587 252.702 15.3033L253.055 15.496L253.264 15.6405C253.392 15.7208 253.553 15.785 253.681 15.8653C253.826 15.9456 253.922 16.1222 254.067 16.2186C254.195 16.3149 254.227 16.3791 254.291 16.5237L254.484 15.9777H254.773C254.773 15.9777 254.902 15.9135 254.966 15.9135C255.062 15.9135 255.143 15.9295 255.239 15.9456C255.239 15.9456 255.271 15.9456 255.287 15.9456C255.432 15.9456 255.608 15.8813 255.737 15.8332L255.945 15.785L256.267 15.7047C256.427 15.6565 256.507 15.6726 256.684 15.6405C256.813 15.6084 256.957 15.6084 257.086 15.5762L257.31 15.4799C257.31 15.4799 257.439 15.4478 257.487 15.4478C257.599 15.4478 257.696 15.4799 257.824 15.4799C258.001 15.4799 257.904 15.4478 258.306 15.4478C258.338 15.4478 258.386 15.4478 258.418 15.4478C258.611 15.4478 258.579 15.4478 258.804 15.3996C258.916 15.4799 258.964 15.5602 259.045 15.5602C259.077 15.5602 259.093 15.5602 259.125 15.5281L259.35 15.3996C259.51 15.3996 259.703 15.3996 259.703 15.3835L259.639 15.0945C259.591 14.9982 259.526 14.966 259.446 14.966C259.35 14.966 259.205 15.0142 259.012 15.0463L258.756 15.223L258.643 15.0945V14.9339L258.611 14.5967L258.579 14.4201L258.627 14.2274L258.852 14.1792C258.804 14.0026 258.499 13.7938 258.37 13.6975C258.258 13.5851 258.097 13.2639 258.049 13.0873L257.953 12.9267C257.824 12.8785 257.776 12.8625 257.712 12.8143C257.583 12.6858 257.519 12.6216 257.359 12.5092C257.278 12.3486 257.359 12.2683 257.407 12.188C257.535 12.0756 257.567 12.0596 257.599 12.0596H257.631C257.631 12.0596 257.68 12.0596 257.728 12.0596C257.824 12.0435 257.872 12.0114 257.921 12.0114C257.969 12.0114 258.017 12.0275 258.097 12.0756C258.21 12.1399 258.338 12.188 258.467 12.2202C258.643 12.2683 258.739 12.3004 258.9 12.3968C259.093 12.4931 259.205 12.5092 259.366 12.6216C259.414 12.6537 259.478 12.6698 259.526 12.6698C259.558 12.6698 259.574 12.6698 259.607 12.6698C259.639 12.6698 259.655 12.6698 259.687 12.6698H259.719C259.912 12.6698 259.944 12.734 260.072 12.9267M253.938 24.5526L254.018 24.5847V24.8577L254.067 25.0664C254.115 25.2109 254.131 25.2109 254.002 25.3233L254.083 25.4839L254.147 25.4197C254.34 25.5481 254.629 25.8693 254.741 25.8693C254.741 25.8693 254.741 25.8693 254.757 25.8693L255.078 26.0299L255.159 26.2226L255.464 26.4153L255.753 26.5758C255.753 26.5758 256.154 26.5758 256.315 26.4313C256.475 26.3029 256.588 26.1423 256.796 26.078C256.957 26.0138 257.359 25.9978 257.487 25.8854L257.664 25.7087C257.808 25.5803 257.856 25.3394 257.921 25.1628C257.953 25.0022 258.001 24.8577 258.017 24.6971V24.4883V24.1993C258.017 23.9584 257.648 23.7175 257.599 23.4606C257.567 23.284 257.535 23.1876 257.342 23.1555C257.31 23.1555 257.262 23.2198 257.214 23.3C257.15 23.3803 257.086 23.4446 256.989 23.4446C256.877 23.4446 256.893 23.4446 256.764 23.4125C256.491 23.3803 256.186 23.1716 255.913 23.1716C255.913 23.1716 255.897 23.1716 255.881 23.1716L255.64 23.1234H255.544L255.351 23.2679C255.207 23.3161 255.078 23.3482 254.934 23.3482C254.677 23.3482 254.693 23.5088 254.564 23.7015C254.5 23.83 254.356 23.9745 254.308 24.119L254.211 24.408H253.97L253.569 24.3599V24.4562C253.569 24.4562 253.569 24.6168 253.681 24.6168C253.681 24.6168 253.697 24.6168 253.713 24.6168L253.97 24.5365L253.938 24.5526ZM249.699 17.4871L249.667 17.4068L249.715 17.182L249.458 17.0054L249.314 17.182L249.185 17.4068L249.378 17.5192L249.619 17.6156V17.7762L249.33 17.9367L249.281 18.001V18.0973L249.362 18.2097L249.442 18.3382V18.3703L249.554 18.4988L249.763 18.7075L250.084 18.9002H250.116L250.165 18.9644L250.341 19.0929L250.454 19.1892C250.534 19.2856 250.518 19.3498 250.662 19.3819C250.887 19.4462 251.112 19.4943 251.353 19.4943L251.578 19.4622L251.754 19.2374L252.14 19.1571L252.477 19.0126C252.654 18.8681 252.798 18.6112 252.927 18.4185C253.087 18.1776 253.071 17.8243 253.007 17.5192C252.943 17.2141 252.959 16.893 252.67 16.7645L252.509 16.6682L252.429 16.5558C252.429 16.5558 252.3 16.5237 252.204 16.5237C252.108 16.5237 251.995 16.5237 251.931 16.5237C251.69 16.5237 251.305 16.4273 251.016 16.4273C250.919 16.4273 250.839 16.4273 250.759 16.4594L250.502 16.6682L250.293 16.9572C250.149 17.0857 250.149 17.182 250.052 17.3426C249.972 17.4711 249.892 17.4711 249.731 17.4871M260.104 13.023C260.185 13.2318 260.265 13.4406 260.329 13.6654C260.265 13.4566 260.185 13.2479 260.104 13.0391V13.023ZM261.373 20.1206C261.373 17.9689 261.036 15.8974 260.426 13.9544C260.377 14.1953 260.426 14.1792 260.313 14.3558C260.201 14.5485 260.153 15.0784 260.153 15.1909C260.153 15.3835 260.12 15.5281 260.12 15.6084C260.12 15.785 260.137 15.8492 260.12 15.9777C260.104 16.1383 260.12 16.2988 260.104 16.4594C260.072 16.7645 260.072 16.9893 260.072 17.2944C260.072 17.5995 260.137 17.744 260.12 18.0652C260.088 18.4185 260.072 18.4024 260.04 18.5309C259.96 18.9484 260.008 19.3338 260.072 19.8637C260.088 20.0564 260.153 20.2169 260.137 20.3936C260.137 20.5702 260.088 20.7629 260.088 20.9395C260.088 21.2286 260.104 21.5016 260.088 21.7746C260.056 22.0315 260.088 22.2884 260.088 22.5614L260.04 22.7059V22.9949L260.088 23.3C260.137 23.4927 259.944 23.557 259.88 23.7336L259.719 23.9905L259.43 24.0387L259.366 24.4241C259.414 24.7452 259.446 25.0022 259.35 25.3233L259.301 25.5L259.35 25.5963L259.382 25.6927L259.35 25.8693C259.301 26.0299 259.189 26.2065 259.109 26.3671L258.852 26.608C258.723 26.7364 258.627 26.7364 258.467 26.7846C258.322 26.8328 258.226 26.9452 258.097 27.0255C257.969 27.1057 257.888 27.1379 257.776 27.2503L257.407 27.4751C257.262 27.5232 257.214 27.5393 257.069 27.5714C256.78 27.6517 256.491 27.7802 256.186 27.8123C256.17 27.8123 256.154 27.8123 256.138 27.8123C256.058 27.8123 255.978 27.7962 255.897 27.7802C255.817 27.7641 255.753 27.7481 255.656 27.7481C255.608 27.7481 255.56 27.7481 255.512 27.7641C255.496 27.7641 255.48 27.7641 255.464 27.7641C255.335 27.7641 255.255 27.6838 255.094 27.6517C254.934 27.6196 254.837 27.5393 254.693 27.4751C254.548 27.4108 254.372 27.2984 254.211 27.2021C253.842 26.9933 253.553 26.6401 253.424 26.4795L253.151 26.2386C253.183 26.3831 253.296 26.4153 253.408 26.4955L253.505 26.7525L253.537 26.9773C253.553 27.17 253.328 27.2181 253.296 27.3787C253.296 27.5072 253.473 27.6196 253.456 27.7802C253.456 27.9247 253.376 28.021 253.344 28.1334C253.296 28.278 253.312 28.4546 253.312 28.5991C253.312 28.7758 253.248 28.9685 253.296 29.1451C253.344 29.3378 253.376 29.4502 253.344 29.675C253.296 29.8837 253.344 30.0443 253.376 30.237C253.424 30.5261 253.408 30.8633 253.408 31.1523C253.408 31.5216 253.424 31.8749 253.424 32.2282C253.424 32.3727 253.473 32.5815 253.424 32.726L253.296 32.9187C253.232 33.0632 253.312 33.2559 253.328 33.4165C253.376 33.7697 253.328 34.1391 253.328 34.4923C253.328 34.8938 253.328 35.2792 253.344 35.6646V35.9375C255.255 34.5245 256.893 32.7742 258.194 30.783L258.049 30.5582L258.402 29.964L257.631 30.3976C257.631 30.3976 257.712 30.0122 257.407 29.5144L257.76 28.5991C257.76 28.5991 258.402 29.402 258.932 29.402C258.948 29.402 258.98 29.402 258.996 29.402C260.506 26.608 261.373 23.4285 261.389 20.0243" fill="white" fill-opacity="0.5"/>
</g>
<defs>
<clipPath id="clip0_899_101">
<rect width="333.039" height="40" fill="white"/>
</clipPath>
</defs>
</svg>
