<svg width="25" height="25" viewBox="0 0 25 25" fill="none" xmlns="http://www.w3.org/2000/svg">
<g clip-path="url(#clip0_4_165)">
<mask id="mask0_4_165" style="mask-type:luminance" maskUnits="userSpaceOnUse" x="0" y="0" width="25" height="25">
<path d="M24.8276 0.5H0.827637V24.5H24.8276V0.5Z" fill="white"/>
</mask>
<g mask="url(#mask0_4_165)">
<path d="M24.3889 21.9455L19.7437 17.2984C23.2195 12.6536 22.2717 6.07058 17.627 2.59486C12.9822 -0.880859 6.39919 0.0668559 2.92348 4.71163C-0.552245 9.3564 0.395467 15.9394 5.04025 19.4152C8.77131 22.2072 13.8959 22.2072 17.627 19.4152L22.2741 24.0623C22.8581 24.6463 23.8049 24.6463 24.3888 24.0623C24.9728 23.4783 24.9728 22.5315 24.3888 21.9475L24.3889 21.9455ZM11.3723 18.5182C7.24427 18.5182 3.89787 15.1718 3.89787 11.0438C3.89787 6.91566 7.24427 3.56925 11.3723 3.56925C15.5004 3.56925 18.8468 6.91566 18.8468 11.0438C18.8424 15.1699 15.4986 18.5138 11.3723 18.5182Z" fill="white" fill-opacity="0.7"/>
</g>
</g>
<defs>
<clipPath id="clip0_4_165">
<rect width="24" height="25" fill="white" transform="translate(0.827637)"/>
</clipPath>
</defs>
</svg>
