<svg width="171" height="43" viewBox="0 0 171 43" fill="none" xmlns="http://www.w3.org/2000/svg">
<path d="M0 40.5H30.375L40.5 30.375L0 40.5Z" fill="url(#paint0_linear_107_691)"/>
<path d="M0 0V10.125L30.375 0H0Z" fill="url(#paint1_linear_107_691)"/>
<path d="M27.0007 23.6243L40.5 10.125L30.375 0L0 10.125L27.0007 23.6243Z" fill="url(#paint2_linear_107_691)"/>
<path d="M0 10.125V40.5L40.5 30.375L0 10.125Z" fill="url(#paint3_linear_107_691)"/>
<path style="mix-blend-mode:multiply" d="M30.375 0L0 10.125L27.0007 23.6243L40.5 10.125L30.375 0Z" fill="url(#paint4_linear_107_691)"/>
<path d="M65.3068 19.4086V8.09033H62.4658V11.5608H52.5637V8.09033H49.7227V17.8154L51.3158 19.4086H65.3046H65.3068ZM52.5637 14.0281H62.4658V16.9631H52.5637V14.0281Z" fill="#575153"/>
<path d="M46.3765 23.9456H56.095V30.2505H58.936V23.9456H68.554V21.4761H46.3765V23.9456Z" fill="#575153"/>
<path d="M88.461 8.09033H85.644V24.6404H88.461V16.3359H91.7326V13.8664H88.461V8.09033Z" fill="#575153"/>
<path d="M76.1897 22.5994H73.3486V28.6573L74.9418 30.2505H88.9568V27.781H76.1897V22.5994Z" fill="#575153"/>
<path d="M112.441 8.09033H109.627V17.8241H101.243V13.4948H98.4024V17.8241H93.3716V20.2674H109.627V21.5022H112.441V15.8136H115.715V13.3462H112.441V8.09033Z" fill="#575153"/>
<path d="M120.326 22.3196V24.7891H133.86V30.2504H136.701V23.9127L135.108 22.3196H120.326Z" fill="#575153"/>
<path d="M158.715 8.09033H155.898V30.2504H158.715V8.09033Z" fill="#575153"/>
<path d="M104.327 16.7817H107.142V10.5031L105.548 8.90771H94.7656V11.3532H104.327V16.7817Z" fill="#575153"/>
<path d="M104.521 21.6356C99.2719 21.6246 96.1184 23.2047 96.1118 26.1812C96.1053 29.1599 99.2566 30.7487 104.504 30.7596C109.753 30.7706 112.907 29.1905 112.913 26.214C112.92 23.2353 109.768 21.6465 104.521 21.6356ZM104.506 28.3273C101.042 28.3229 98.9638 27.5799 98.9682 26.1899C98.9725 24.8 101.055 24.0635 104.519 24.0679C107.983 24.0723 110.061 24.8153 110.057 26.2052C110.053 27.5952 107.97 28.3316 104.506 28.3273Z" fill="#575153"/>
<path d="M128.801 18.2197H133.885V21.5612H136.702V8.09033H133.885V10.6932H128.699C127.591 9.32509 125.858 8.49026 123.81 8.49026C120.235 8.49026 117.614 11.0384 117.614 14.5198C117.614 18.0012 120.235 20.5493 123.81 20.5493C125.919 20.5493 127.696 19.6621 128.799 18.2197H128.801ZM133.885 13.0884V15.8245H129.877C129.962 15.4071 130.006 14.9722 130.006 14.5198C130.006 14.0215 129.951 13.5429 129.848 13.0884H133.882H133.885ZM120.425 14.5198C120.425 12.4874 121.858 11.0013 123.81 11.0013C125.761 11.0013 127.195 12.4874 127.195 14.5198C127.195 16.5522 125.761 18.0383 123.81 18.0383C121.858 18.0383 120.425 16.5522 120.425 14.5198Z" fill="#575153"/>
<path d="M148.092 8.55151H145.113V17.4243L138.878 24.4438L141.02 26.3451L146.597 20.0664L152.174 26.3451L154.318 24.4438L148.092 17.4352V8.55151Z" fill="#575153"/>
<path d="M83.0062 21.1373L84.866 18.9562L78.5764 13.5867V8.55151H75.5977V13.5867L69.3081 18.9562L71.1701 21.1373L77.0882 16.0824L83.0062 21.1373Z" fill="#575153"/>
<path d="M48.5991 34.8091H52.1635L52.9743 35.6221V37.213L52.6487 37.5452L53.2256 38.1287V39.6148L52.3493 40.4911H48.5991V34.8091ZM51.5953 37.1868L51.8882 36.894V36.0176L51.6041 35.7335H49.6809V37.1868H51.5975H51.5953ZM51.7898 39.5645L52.1395 39.2149V38.4194L51.7898 38.0697H49.6787V39.5645H51.7898Z" fill="#575153"/>
<path d="M54.1196 39.5167V34.8071H55.2232V39.1342L55.6363 39.5473H57.2273L57.6403 39.1342V34.8071H58.7439V39.5167L57.7692 40.4914H55.0899L54.1152 39.5167H54.1196Z" fill="#575153"/>
<path d="M59.7622 39.6148V38.8018H60.8505V39.2804L61.1193 39.5492H62.7999L63.0753 39.2739V38.332L62.8065 38.0632H60.656L59.7797 37.1868V35.6854L60.656 34.8091H63.2217L64.098 35.6854V36.505H63.0097V36.0176L62.7409 35.7488H61.1324L60.8636 36.0176V36.8546L61.1324 37.1234H63.2829L64.1592 37.9998V39.5995L63.2654 40.4933H60.6342L59.7578 39.617L59.7622 39.6148Z" fill="#575153"/>
<path d="M66.5654 34.8091H67.5728L69.6512 40.4911H68.5301L68.0667 39.2324H66.0693L65.606 40.4911H64.4849L66.5632 34.8091H66.5654ZM67.8242 38.3254L67.0702 36.1662H67.0527L66.3228 38.3254H67.8242Z" fill="#575153"/>
<path d="M70.3003 34.8091H71.2903L73.8232 38.6663H73.8385V34.8091H74.9028V40.4911H73.9128L71.3799 36.6426H71.3646V40.4911H70.3003V34.8091Z" fill="#575153"/>
<path d="M78.3296 34.8091H79.3524L81.0417 38.4784H81.057L82.7529 34.8091H83.7756V40.4911H82.7113V37.0338H82.696L81.3892 39.6957H80.7073L79.4092 37.0338H79.3939V40.4911H78.3296V34.8091Z" fill="#575153"/>
<path d="M84.9116 34.8091H89.0202V35.7423H86.0174V37.1803H88.7863V38.0981H86.0174V39.5602H89.0202V40.4933H84.9116V34.8113V34.8091Z" fill="#575153"/>
<path d="M91.2037 35.7423H89.5078V34.8091H94.0054V35.7423H92.3095V40.4911H91.2059V35.7423H91.2037Z" fill="#575153"/>
<path d="M99.2001 38.6073V40.4911H98.0965V38.8586L97.6092 38.3145H95.839V40.4911H94.7354V34.8091H98.2998L99.1674 35.6854V37.4075L98.6145 37.967L99.2001 38.6073ZM95.839 37.4053H97.7949L98.079 37.1212V36.0176L97.7949 35.7335H95.839V37.4053Z" fill="#575153"/>
<path d="M100.216 39.558V35.7423L101.149 34.8091H104.071L105.005 35.7423V39.558L104.071 40.4911H101.149L100.216 39.558ZM103.488 39.5492L103.901 39.1362V36.164L103.488 35.751H101.735L101.322 36.164V39.1362L101.735 39.5492H103.488Z" fill="#575153"/>
<path d="M106.06 34.8091H109.624L110.492 35.6854V37.6742L109.616 38.5592H107.164V40.4911H106.06V34.8091ZM109.122 37.6348L109.406 37.3507V36.0198L109.122 35.7357H107.166V37.6348H109.122Z" fill="#575153"/>
<path d="M111.305 39.558V35.7423L112.238 34.8091H115.16L116.093 35.7423V39.558L115.16 40.4911H112.238L111.305 39.558ZM114.577 39.5492L114.99 39.1362V36.164L114.577 35.751H112.824L112.411 36.164V39.1362L112.824 39.5492H114.577Z" fill="#575153"/>
<path d="M117.151 34.8091H118.255V39.558H121.096V40.4911H117.151V34.8091Z" fill="#575153"/>
<path d="M121.828 34.8091H122.931V40.4911H121.828V34.8091Z" fill="#575153"/>
<path d="M125.399 35.7423H123.703V34.8091H128.2V35.7423H126.504V40.4911H125.401V35.7423H125.399Z" fill="#575153"/>
<path d="M129.791 34.8091H130.799L132.877 40.4911H131.756L131.293 39.2324H129.295L128.832 40.4911H127.711L129.789 34.8091H129.791ZM131.05 38.3254L130.296 36.1662H130.281L129.551 38.3254H131.052H131.05Z" fill="#575153"/>
<path d="M133.526 34.8091H134.516L137.049 38.6663H137.065V34.8091H138.129V40.4911H137.139L134.606 36.6426H134.591V40.4911H133.526V34.8091Z" fill="#575153"/>
<path d="M141.472 39.558V35.7423L142.405 34.8091H145.183L146.101 35.727V36.5967H144.997V36.1334L144.615 35.751H142.991L142.578 36.164V39.1362L142.991 39.5492H144.615L144.997 39.1668V38.7035H146.101V39.5733L145.183 40.4911H142.405L141.472 39.558Z" fill="#575153"/>
<path d="M146.995 34.8091H148.099V40.4911H146.995V34.8091Z" fill="#575153"/>
<path d="M150.566 35.7423H148.87V34.8091H153.368V35.7423H151.672V40.4911H150.568V35.7423H150.566Z" fill="#575153"/>
<path d="M155.59 38.1702L153.569 34.8091H154.78L156.135 37.1387H156.152L157.507 34.8091H158.718L156.696 38.1702V40.4911H155.593V38.1702H155.59Z" fill="#575153"/>
<defs>
<linearGradient id="paint0_linear_107_691" x1="1.1386" y1="44.036" x2="41.0901" y2="33.9787" gradientUnits="userSpaceOnUse">
<stop offset="0.25" stop-color="#0087CC"/>
<stop offset="0.8" stop-color="#662483"/>
</linearGradient>
<linearGradient id="paint1_linear_107_691" x1="-1.45767" y1="5.54438" x2="28.8824" y2="-4.45823" gradientUnits="userSpaceOnUse">
<stop offset="0.2" stop-color="#E6007E"/>
<stop offset="0.54" stop-color="#A61180"/>
<stop offset="0.9" stop-color="#662483"/>
</linearGradient>
<linearGradient id="paint2_linear_107_691" x1="0.192316" y1="11.8121" x2="40.4781" y2="11.8121" gradientUnits="userSpaceOnUse">
<stop offset="0.1" stop-color="#ED6EA7"/>
<stop offset="0.21" stop-color="#EB5BA0"/>
<stop offset="0.61" stop-color="#E71987"/>
<stop offset="0.8" stop-color="#E6007E"/>
</linearGradient>
<linearGradient id="paint3_linear_107_691" x1="-3.26719" y1="34.8398" x2="23.6636" y2="18.1323" gradientUnits="userSpaceOnUse">
<stop stop-color="#662483"/>
<stop offset="0.5" stop-color="#E6007E"/>
<stop offset="0.58" stop-color="#E60580"/>
<stop offset="0.69" stop-color="#E71686"/>
<stop offset="0.81" stop-color="#E93290"/>
<stop offset="0.94" stop-color="#EB589F"/>
<stop offset="1" stop-color="#ED6EA7"/>
</linearGradient>
<linearGradient id="paint4_linear_107_691" x1="15.6956" y1="25.9474" x2="18.7901" y2="15.1951" gradientUnits="userSpaceOnUse">
<stop offset="0.15" stop-color="#878787"/>
<stop offset="0.27" stop-color="#878787" stop-opacity="0.92"/>
<stop offset="0.48" stop-color="#878787" stop-opacity="0.71"/>
<stop offset="0.75" stop-color="#878787" stop-opacity="0.36"/>
<stop offset="1" stop-color="#878787" stop-opacity="0"/>
</linearGradient>
</defs>
</svg>
