<?xml version="1.0" encoding="utf-8"?>
<!-- Generator: Adobe Illustrator 24.0.2, SVG Export Plug-In . SVG Version: 6.00 Build 0)  -->
<svg version="1.1" id="레이어_1" xmlns="http://www.w3.org/2000/svg" xmlns:xlink="http://www.w3.org/1999/xlink" x="0px"
	 y="0px" viewBox="0 0 27 19.02" width="27px" height="19px" style="enable-background:new 0 0 27 19.02;" xml:space="preserve">
<style type="text/css">
	.st0{fill:#FFFFFF;}
</style>
<path class="st0" d="M26.44,2.97c-0.31-1.17-1.23-2.09-2.39-2.4C21.95,0,13.5,0,13.5,0S5.06,0,2.96,0.57
	C1.79,0.88,0.88,1.8,0.57,2.97C0,5.09,0,9.51,0,9.51s0,4.42,0.56,6.54c0.31,1.17,1.23,2.09,2.39,2.4c2.1,0.57,10.55,0.57,10.55,0.57
	s8.44,0,10.55-0.57c1.16-0.31,2.08-1.23,2.39-2.4C27,13.94,27,9.51,27,9.51S27,5.09,26.44,2.97z M10.74,13.53V5.5l7.05,4.02
	L10.74,13.53z"/>
</svg>
