<?xml version="1.0" encoding="utf-8"?>
<!-- Generator: Adobe Illustrator 24.0.2, SVG Export Plug-In . SVG Version: 6.00 Build 0)  -->
<svg version="1.1" id="레이어_1" xmlns="http://www.w3.org/2000/svg" xmlns:xlink="http://www.w3.org/1999/xlink" x="0px"
	 y="0px" viewBox="0 0 23 23" width="23px" height="23px" style="enable-background:new 0 0 23 23;" xml:space="preserve">
<style type="text/css">
	.st0{fill:#FFFFFF;}
</style>
<g>
	<path class="st0" d="M16.15,0h-9.3C3.07,0,0,3.07,0,6.85v9.3C0,19.93,3.07,23,6.85,23h9.3c3.78,0,6.85-3.07,6.85-6.85v-9.3
		C23,3.07,19.93,0,16.15,0z M20.69,16.15c0,2.51-2.03,4.54-4.54,4.54h-9.3c-2.51,0-4.54-2.03-4.54-4.54v-9.3
		c0-2.51,2.03-4.54,4.54-4.54h9.3c2.51,0,4.54,2.03,4.54,4.54L20.69,16.15L20.69,16.15z"/>
	<path class="st0" d="M11.5,5.55c-3.28,0-5.95,2.67-5.95,5.95s2.67,5.95,5.95,5.95s5.95-2.67,5.95-5.95S14.78,5.55,11.5,5.55z
		 M11.5,15.13c-2.01,0-3.63-1.63-3.63-3.63s1.63-3.63,3.63-3.63c2.01,0,3.63,1.63,3.63,3.63C15.13,13.51,13.51,15.13,11.5,15.13z"/>
	<circle class="st0" cx="17.46" cy="5.6" r="1.43"/>
</g>
</svg>
